{
	"asset":{
		"version":"2.0",
		"generator":"Autodesk Maya 2023"
	},
	"scenes":[{
		"nodes":[0,
		1]
	}],
	"animations":[{
		"samplers":[{
			"input":0,
			"interpolation":"LINEAR",
			"output":1
		},
		{
			"input":8,
			"interpolation":"LINEAR",
			"output":9
		},
		{
			"input":10,
			"interpolation":"LINEAR",
			"output":11
		},
		{
			"input":12,
			"interpolation":"LINEAR",
			"output":13
		},
		{
			"input":14,
			"interpolation":"LINEAR",
			"output":15
		},
		{
			"input":16,
			"interpolation":"LINEAR",
			"output":17
		},
		{
			"input":18,
			"interpolation":"LINEAR",
			"output":19
		},
		{
			"input":28,
			"interpolation":"LINEAR",
			"output":29
		}],
		"channels":[{
			"sampler":0,
			"target":{
				"node":3,
				"path":"translation"
			}
		},
		{
			"sampler":1,
			"target":{
				"node":5,
				"path":"translation"
			}
		},
		{
			"sampler":2,
			"target":{
				"node":5,
				"path":"rotation"
			}
		},
		{
			"sampler":3,
			"target":{
				"node":6,
				"path":"translation"
			}
		},
		{
			"sampler":4,
			"target":{
				"node":6,
				"path":"rotation"
			}
		},
		{
			"sampler":5,
			"target":{
				"node":7,
				"path":"rotation"
			}
		},
		{
			"sampler":6,
			"target":{
				"node":11,
				"path":"rotation"
			}
		},
		{
			"sampler":7,
			"target":{
				"node":17,
				"path":"rotation"
			}
		}]
	}],
	"nodes":[{
		"name":"blueChar_GRP",
		"translation":[0.0,
		0.0012268235441297293,
		0.0],
		"children":[2],
		"rotation":[0.0,
		0.0,
		0.0,
		-1.0],
		"scale":[1.0,
		1.0,
		1.0]
	},
	{
		"name":"Root",
		"translation":[1.3378205487857287e-10,
		0.008703439496457577,
		0.0],
		"children":[3],
		"rotation":[0.0,
		0.0,
		0.0,
		-1.0],
		"scale":[1.0,
		1.0,
		1.0]
	},
	{
		"name":"Body",
		"children":[4,
		5,
		6]
	},
	{
		"name":"Spine_INT_0",
		"translation":[-1.4802974020113686e-18,
		-0.008666038513183594,
		5.551114999048691e-19],
		"children":[7],
		"rotation":[-0.6905098557472229,
		-0.15230271220207215,
		0.15230271220207215,
		-0.6905098557472229],
		"scale":[1.0,
		1.0,
		1.0]
	},
	{
		"name":"Body",
		"mesh":0,
		"skin":0
	},
	{
		"name":"HairConstraint",
		"translation":[0.00006339401443256065,
		0.19157488644123078,
		0.000016138375940499828],
		"children":[8,
		9],
		"rotation":[0.6905534863471985,
		0.1522868424654007,
		-0.15271228551864625,
		0.69037926197052],
		"scale":[1.0,
		1.0,
		1.0]
	},
	{
		"name":"EyesConstraint",
		"translation":[0.0000013661016282640049,
		0.09211419522762299,
		0.000008137380973494146],
		"children":[10],
		"rotation":[0.6905452013015747,
		0.15227468311786652,
		-0.1526930183172226,
		0.6903945207595825],
		"scale":[1.0,
		1.0,
		1.0]
	},
	{
		"name":"Spine_INT_1",
		"translation":[3.98581417870858e-10,
		2.805660928460623e-19,
		-0.04938317835330963],
		"children":[11],
		"rotation":[-0.00009057988063432276,
		-0.00002488539757905528,
		0.00016447168309241533,
		-1.0],
		"scale":[1.0,
		1.0,
		1.0]
	},
	{
		"name":"pCube2",
		"translation":[-1.7718165823410459e-9,
		1.7740438372667604e-17,
		0.19157491624355317],
		"children":[12],
		"rotation":[0.7071067690849304,
		0.0,
		0.0,
		-0.7071067690849304],
		"scale":[1.0,
		1.0,
		1.0]
	},
	{
		"name":"pCube3",
		"translation":[-1.7718165823410459e-9,
		1.7740438372667604e-17,
		0.19157491624355317],
		"children":[13],
		"rotation":[0.7071067690849304,
		0.0,
		0.0,
		-0.7071067690849304],
		"scale":[1.0,
		1.0,
		1.0]
	},
	{
		"name":"eyes",
		"translation":[-8.868540346540499e-10,
		6.775830135393425e-17,
		0.09211419522762299],
		"children":[14,
		15,
		16],
		"rotation":[0.7071067690849304,
		0.0,
		0.0,
		-0.7071067690849304],
		"scale":[1.0,
		1.0,
		1.0]
	},
	{
		"name":"Spine_INT_2",
		"translation":[3.5449057578240686e-10,
		3.0993725497519839e-18,
		-0.04392043501138687],
		"children":[17],
		"rotation":[0.00007720269059063867,
		-0.00029080218519084156,
		-0.00009783407585928217,
		0.9999999403953552],
		"scale":[1.0,
		1.0,
		1.0]
	},
	{
		"name":"pCube2",
		"mesh":1
	},
	{
		"name":"pCube3",
		"mesh":2
	},
	{
		"name":"eyes-blackMTL",
		"children":[18]
	},
	{
		"name":"eyes-blueMTL",
		"children":[19]
	},
	{
		"name":"eyes-whiteMTL",
		"children":[20]
	},
	{
		"name":"Spine_INT_3",
		"translation":[8.84962547686996e-10,
		-6.618548028489122e-17,
		-0.09946072101593018],
		"children":[21],
		"rotation":[0.000017385853425366805,
		-0.0000013042650834904635,
		-0.000022756210455554539,
		1.0],
		"scale":[1.0,
		1.0,
		1.0]
	},
	{
		"name":"eyes-blackMTL",
		"mesh":3
	},
	{
		"name":"eyes-blueMTL",
		"mesh":4
	},
	{
		"name":"eyes-whiteMTL",
		"mesh":5
	},
	{
		"name":"Spine_INT_4",
		"translation":[4.394632750662537e-18,
		7.262708643942137e-18,
		-0.07150915265083313],
		"rotation":[-1.3463080476838752e-16,
		-4.448803991863315e-9,
		5.989460935555136e-25,
		-1.0],
		"scale":[1.0,
		1.0,
		1.0]
	}],
	"meshes":[{
		"name":"Body",
		"primitives":[{
			"attributes":{
				"POSITION":3,
				"NORMAL":4,
				"TEXCOORD_0":5,
				"JOINTS_0":6,
				"WEIGHTS_0":7
			},
			"indices":2,
			"material":0
		}]
	},
	{
		"name":"pCube2",
		"primitives":[{
			"attributes":{
				"POSITION":21,
				"NORMAL":22,
				"TEXCOORD_0":23
			},
			"indices":20,
			"material":0
		}]
	},
	{
		"name":"pCube3",
		"primitives":[{
			"attributes":{
				"POSITION":25,
				"NORMAL":26,
				"TEXCOORD_0":27
			},
			"indices":24,
			"material":0
		}]
	},
	{
		"name":"eyes-blackMTL",
		"primitives":[{
			"attributes":{
				"POSITION":31,
				"NORMAL":32,
				"TEXCOORD_0":33
			},
			"indices":30,
			"material":1
		}]
	},
	{
		"name":"eyes-blueMTL",
		"primitives":[{
			"attributes":{
				"POSITION":35,
				"NORMAL":36,
				"TEXCOORD_0":37
			},
			"indices":34,
			"material":0
		}]
	},
	{
		"name":"eyes-whiteMTL",
		"primitives":[{
			"attributes":{
				"POSITION":39,
				"NORMAL":40,
				"TEXCOORD_0":41
			},
			"indices":38,
			"material":2
		}]
	}],
	"skins":[{
		"inverseBindMatrices":42,
		"joints":[3,
		7,
		11,
		17,
		21]
	}],
	"accessors":[{
		"bufferView":0,
		"type":"SCALAR",
		"componentType":5126,
		"count":101,
		"byteOffset":0,
		"min":[0.0],
		"max":[3.3333332538604738]
	},
	{
		"bufferView":0,
		"type":"VEC3",
		"componentType":5126,
		"count":101,
		"byteOffset":404,
		"min":[-1.4802974020113686e-18,
		-0.008666038513183594,
		5.551114999048691e-19],
		"max":[0.09169082343578339,
		-0.008666038513183594,
		0.08952610939741135]
	},
	{
		"bufferView":1,
		"type":"SCALAR",
		"componentType":5123,
		"count":1344,
		"byteOffset":0,
		"min":[0],
		"max":[260]
	},
	{
		"bufferView":2,
		"type":"VEC3",
		"componentType":5126,
		"count":261,
		"byteOffset":0,
		"min":[-0.13927096128463746,
		-0.0011894225608557463,
		-0.15017396211624146],
		"max":[0.1392732411623001,
		0.2630840241909027,
		0.15018989145755769]
	},
	{
		"bufferView":2,
		"type":"VEC3",
		"componentType":5126,
		"count":261,
		"byteOffset":12,
		"min":[-0.9983609318733215,
		-1.0,
		-0.999714195728302],
		"max":[0.9983638525009155,
		0.9999998807907105,
		0.9997108578681946]
	},
	{
		"bufferView":2,
		"type":"VEC2",
		"componentType":5126,
		"count":261,
		"byteOffset":24,
		"min":[0.125,
		0.0],
		"max":[0.875,
		1.0]
	},
	{
		"bufferView":3,
		"type":"VEC4",
		"componentType":5123,
		"count":261,
		"byteOffset":0,
		"min":[0,
		0,
		0,
		0],
		"max":[3,
		2,
		3,
		3]
	},
	{
		"bufferView":4,
		"type":"VEC4",
		"componentType":5126,
		"count":261,
		"byteOffset":0,
		"min":[0.48352789878845217,
		0.0,
		0.0,
		0.0],
		"max":[1.0,
		0.4799878001213074,
		0.03646906092762947,
		0.0]
	},
	{
		"bufferView":5,
		"type":"SCALAR",
		"componentType":5126,
		"count":101,
		"byteOffset":0,
		"min":[0.0],
		"max":[3.3333332538604738]
	},
	{
		"bufferView":5,
		"type":"VEC3",
		"componentType":5126,
		"count":101,
		"byteOffset":404,
		"min":[1.6198323793403802e-9,
		0.18478035926818849,
		-6.890656378821802e-10],
		"max":[0.12720505893230439,
		0.19157491624355317,
		0.12341375648975373]
	},
	{
		"bufferView":6,
		"type":"SCALAR",
		"componentType":5126,
		"count":101,
		"byteOffset":0,
		"min":[0.0],
		"max":[3.3333332538604738]
	},
	{
		"bufferView":6,
		"type":"VEC4",
		"componentType":5126,
		"count":101,
		"byteOffset":404,
		"min":[-0.6905098557472229,
		-0.15230271220207215,
		-0.4320295453071594,
		-0.6905098557472229],
		"max":[0.7497096061706543,
		0.3183286488056183,
		0.15230271220207215,
		0.69037926197052]
	},
	{
		"bufferView":7,
		"type":"SCALAR",
		"componentType":5126,
		"count":101,
		"byteOffset":0,
		"min":[0.0],
		"max":[3.3333332538604738]
	},
	{
		"bufferView":7,
		"type":"VEC3",
		"componentType":5126,
		"count":101,
		"byteOffset":404,
		"min":[8.169805942870312e-10,
		0.0915212407708168,
		-3.1679187051381066e-10],
		"max":[0.0928967148065567,
		0.09211419522762299,
		0.09661693125963211]
	},
	{
		"bufferView":8,
		"type":"SCALAR",
		"componentType":5126,
		"count":101,
		"byteOffset":0,
		"min":[0.0],
		"max":[3.3333332538604738]
	},
	{
		"bufferView":8,
		"type":"VEC4",
		"componentType":5126,
		"count":101,
		"byteOffset":404,
		"min":[-0.6905098557472229,
		-0.15230271220207215,
		-0.39088645577430727,
		-0.6905098557472229],
		"max":[0.7443810701370239,
		0.28789645433425906,
		0.15230271220207215,
		0.6903945207595825]
	},
	{
		"bufferView":9,
		"type":"SCALAR",
		"componentType":5126,
		"count":101,
		"byteOffset":0,
		"min":[0.0],
		"max":[3.3333332538604738]
	},
	{
		"bufferView":9,
		"type":"VEC4",
		"componentType":5126,
		"count":101,
		"byteOffset":404,
		"min":[-0.0753011405467987,
		-0.032863959670066836,
		0.0,
		-1.0],
		"max":[0.0,
		0.0,
		0.14478141069412232,
		-0.9860466718673706]
	},
	{
		"bufferView":10,
		"type":"SCALAR",
		"componentType":5126,
		"count":101,
		"byteOffset":0,
		"min":[0.0],
		"max":[3.3333332538604738]
	},
	{
		"bufferView":10,
		"type":"VEC4",
		"componentType":5126,
		"count":101,
		"byteOffset":404,
		"min":[-0.06498143076896668,
		-0.15510907769203187,
		-0.04903214052319527,
		-1.0],
		"max":[0.07250814884901047,
		0.0,
		0.04764432832598686,
		0.9999999403953552]
	},
	{
		"bufferView":11,
		"type":"SCALAR",
		"componentType":5123,
		"count":672,
		"byteOffset":0,
		"min":[0],
		"max":[140]
	},
	{
		"bufferView":12,
		"type":"VEC3",
		"componentType":5126,
		"count":141,
		"byteOffset":0,
		"min":[-0.021308058872818948,
		0.2592582106590271,
		-0.005602533463388681],
		"max":[-0.0016151592135429383,
		0.2787730395793915,
		0.005602533463388681]
	},
	{
		"bufferView":12,
		"type":"VEC3",
		"componentType":5126,
		"count":141,
		"byteOffset":12,
		"min":[-0.9783244132995606,
		-0.7065549492835999,
		-0.9951133131980896],
		"max":[0.9146322011947632,
		0.9952749013900757,
		0.9952985048294067]
	},
	{
		"bufferView":12,
		"type":"VEC2",
		"componentType":5126,
		"count":141,
		"byteOffset":24,
		"min":[0.125,
		0.31103515625],
		"max":[0.875,
		0.9375]
	},
	{
		"bufferView":13,
		"type":"SCALAR",
		"componentType":5123,
		"count":672,
		"byteOffset":0,
		"min":[0],
		"max":[140]
	},
	{
		"bufferView":14,
		"type":"VEC3",
		"componentType":5126,
		"count":141,
		"byteOffset":0,
		"min":[-0.0037440515588968994,
		0.25953835248947146,
		-0.005602533463388681],
		"max":[0.017060743644833566,
		0.2847910225391388,
		0.005602533463388681]
	},
	{
		"bufferView":14,
		"type":"VEC3",
		"componentType":5126,
		"count":141,
		"byteOffset":12,
		"min":[-0.9457683563232422,
		-0.6037724018096924,
		-0.9971326589584351],
		"max":[0.9761389493942261,
		0.9926798939704895,
		0.996932864189148]
	},
	{
		"bufferView":14,
		"type":"VEC2",
		"componentType":5126,
		"count":141,
		"byteOffset":24,
		"min":[0.125,
		0.31103515625],
		"max":[0.875,
		0.9375]
	},
	{
		"bufferView":15,
		"type":"SCALAR",
		"componentType":5126,
		"count":101,
		"byteOffset":0,
		"min":[0.0],
		"max":[3.3333332538604738]
	},
	{
		"bufferView":15,
		"type":"VEC4",
		"componentType":5126,
		"count":101,
		"byteOffset":404,
		"min":[0.0,
		-0.002110109431669116,
		-0.05902619659900665,
		-1.0],
		"max":[0.0453922338783741,
		0.0,
		0.0,
		1.0]
	},
	{
		"bufferView":16,
		"type":"SCALAR",
		"componentType":5123,
		"count":840,
		"byteOffset":0,
		"min":[0],
		"max":[207]
	},
	{
		"bufferView":17,
		"type":"VEC3",
		"componentType":5126,
		"count":208,
		"byteOffset":0,
		"min":[-0.05052720755338669,
		0.1403360366821289,
		0.15441946685314179],
		"max":[0.05052720755338669,
		0.17420561611652375,
		0.16235393285751344]
	},
	{
		"bufferView":17,
		"type":"VEC3",
		"componentType":5126,
		"count":208,
		"byteOffset":12,
		"min":[-0.5758907794952393,
		-0.4222244918346405,
		0.7769251465797424],
		"max":[0.5758907794952393,
		0.6158607602119446,
		0.9988424777984619]
	},
	{
		"bufferView":17,
		"type":"VEC2",
		"componentType":5126,
		"count":208,
		"byteOffset":24,
		"min":[0.0,
		0.0],
		"max":[1.0000001192092896,
		0.1999998688697815]
	},
	{
		"bufferView":18,
		"type":"SCALAR",
		"componentType":5123,
		"count":240,
		"byteOffset":0,
		"min":[0],
		"max":[83]
	},
	{
		"bufferView":19,
		"type":"VEC3",
		"componentType":5126,
		"count":84,
		"byteOffset":0,
		"min":[-0.053790513426065448,
		0.1365625113248825,
		0.15104088187217713],
		"max":[0.053790513426065448,
		0.17730766534805299,
		0.15883827209472657]
	},
	{
		"bufferView":19,
		"type":"VEC3",
		"componentType":5126,
		"count":84,
		"byteOffset":12,
		"min":[-0.6966108083724976,
		-0.5586989521980286,
		0.6688247323036194],
		"max":[0.6966108083724976,
		0.7313485145568848,
		0.8381116390228272]
	},
	{
		"bufferView":19,
		"type":"VEC2",
		"componentType":5126,
		"count":84,
		"byteOffset":24,
		"min":[0.0,
		0.1999998688697815],
		"max":[1.0000001192092896,
		0.24999988079071046]
	},
	{
		"bufferView":20,
		"type":"SCALAR",
		"componentType":5123,
		"count":3480,
		"byteOffset":0,
		"min":[0],
		"max":[669]
	},
	{
		"bufferView":21,
		"type":"VEC3",
		"componentType":5126,
		"count":670,
		"byteOffset":0,
		"min":[-0.060949817299842837,
		0.12563419342041017,
		0.10438324511051178],
		"max":[0.060949817299842837,
		0.1835777908563614,
		0.15635673701763154]
	},
	{
		"bufferView":21,
		"type":"VEC3",
		"componentType":5126,
		"count":670,
		"byteOffset":12,
		"min":[-0.9979338645935059,
		-0.9990559220314026,
		-0.9990566372871399],
		"max":[0.9979338645935059,
		0.9990501999855042,
		0.7415807843208313]
	},
	{
		"bufferView":21,
		"type":"VEC2",
		"componentType":5126,
		"count":670,
		"byteOffset":24,
		"min":[0.0,
		0.24999988079071046],
		"max":[1.0000001192092896,
		1.0]
	},
	{
		"bufferView":22,
		"type":"MAT4",
		"componentType":5126,
		"count":5,
		"byteOffset":0,
		"min":[0.9069753289222717,
		0.4206661283969879,
		-0.0006406447500921786,
		0.0,
		-0.0005343456286936998,
		-0.0003704000555444509,
		-1.0,
		0.0,
		-0.42118334770202639,
		0.906975507736206,
		-0.00018528272630646825,
		0.0,
		-0.000002400597395535442,
		-5.6277576349073047e-11,
		-0.0011894225608557463,
		1.0],
		"max":[0.9072155356407166,
		0.42118319869041445,
		6.162975822039155e-33,
		0.0,
		0.00004980058656656183,
		5.555092869255428e-17,
		-0.9999997615814209,
		0.0,
		-0.4206661283969879,
		0.9072155356407166,
		6.123234262925839e-17,
		0.0,
		0.00005166760820429772,
		0.000029621742214658299,
		0.2630840539932251,
		1.0]
	}],
	"bufferViews":[{
		"buffer":0,
		"byteOffset":0,
		"byteLength":1616
	},
	{
		"buffer":1,
		"byteOffset":0,
		"byteLength":2688,
		"target":34963
	},
	{
		"buffer":1,
		"byteOffset":2688,
		"byteLength":8352,
		"target":34962,
		"byteStride":32
	},
	{
		"buffer":1,
		"byteOffset":11040,
		"byteLength":2088,
		"target":34962
	},
	{
		"buffer":1,
		"byteOffset":13128,
		"byteLength":4176,
		"target":34962
	},
	{
		"buffer":2,
		"byteOffset":0,
		"byteLength":1616
	},
	{
		"buffer":2,
		"byteOffset":1616,
		"byteLength":2020
	},
	{
		"buffer":3,
		"byteOffset":0,
		"byteLength":1616
	},
	{
		"buffer":3,
		"byteOffset":1616,
		"byteLength":2020
	},
	{
		"buffer":4,
		"byteOffset":0,
		"byteLength":2020
	},
	{
		"buffer":5,
		"byteOffset":0,
		"byteLength":2020
	},
	{
		"buffer":6,
		"byteOffset":0,
		"byteLength":1344,
		"target":34963
	},
	{
		"buffer":6,
		"byteOffset":1344,
		"byteLength":4512,
		"target":34962,
		"byteStride":32
	},
	{
		"buffer":7,
		"byteOffset":0,
		"byteLength":1344,
		"target":34963
	},
	{
		"buffer":7,
		"byteOffset":1344,
		"byteLength":4512,
		"target":34962,
		"byteStride":32
	},
	{
		"buffer":8,
		"byteOffset":0,
		"byteLength":2020
	},
	{
		"buffer":9,
		"byteOffset":0,
		"byteLength":1680,
		"target":34963
	},
	{
		"buffer":9,
		"byteOffset":1680,
		"byteLength":6656,
		"target":34962,
		"byteStride":32
	},
	{
		"buffer":10,
		"byteOffset":0,
		"byteLength":480,
		"target":34963
	},
	{
		"buffer":10,
		"byteOffset":480,
		"byteLength":2688,
		"target":34962,
		"byteStride":32
	},
	{
		"buffer":11,
		"byteOffset":0,
		"byteLength":6960,
		"target":34963
	},
	{
		"buffer":11,
		"byteOffset":6960,
		"byteLength":21440,
		"target":34962,
		"byteStride":32
	},
	{
		"buffer":12,
		"byteOffset":0,
		"byteLength":320
	}],
	"buffers":[{
		"uri":"data:application/octet-stream;base64,",
		"byteLength":1616
	},
	{
		"uri":"data:application/octet-stream;base64,",
		"byteLength":17304
	},
	{
		"uri":"data:application/octet-stream;base64,",
		"byteLength":3636
	},
	{
		"uri":"data:application/octet-stream;base64,",
		"byteLength":3636
	},
	{
		"uri":"data:application/octet-stream;base64,",
		"byteLength":2020
	},
	{
		"uri":"data:application/octet-stream;base64,",
		"byteLength":2020
	},
	{
		"uri":"data:application/octet-stream;base64,",
		"byteLength":5856
	},
	{
		"uri":"data:application/octet-stream;base64,",
		"byteLength":5856
	},
	{
		"uri":"data:application/octet-stream;base64,",
		"byteLength":2020
	},
	{
		"uri":"data:application/octet-stream;base64,",
		"byteLength":8336
	},
	{
		"uri":"data:application/octet-stream;base64,",
		"byteLength":3168
	},
	{
		"uri":"data:application/octet-stream;base64,",
		"byteLength":28400
	},
	{
		"uri":"data:application/octet-stream;base64,",
		"byteLength":320
	}],
	"materials":[{
		"pbrMetallicRoughness":{
			"baseColorFactor":[0.5490196078431373,
			0.611764705882353,
			0.8156862745098039,
			1.0],
			"metallicFactor":0.0,
			"roughnessFactor":0.5
		},
		"emissiveFactor":[0.0,
		0.0,
		0.0],
		"alphaMode":"OPAQUE",
		"doubleSided":false,
		"name":"blueMTL"
	},
	{
		"pbrMetallicRoughness":{
			"baseColorFactor":[0.1,
			0.1,
			0.1,
			1.0],
			"metallicFactor":0.0,
			"roughnessFactor":0.5
		},
		"emissiveFactor":[0.0,
		0.0,
		0.0],
		"alphaMode":"OPAQUE",
		"doubleSided":false,
		"name":"blackMTL"
	},
	{
		"pbrMetallicRoughness":{
			"baseColorFactor":[0.8,
			0.8,
			0.8,
			1.0],
			"metallicFactor":0.0,
			"roughnessFactor":0.5
		},
		"emissiveFactor":[0.0,
		0.0,
		0.0],
		"alphaMode":"OPAQUE",
		"doubleSided":false,
		"name":"whiteMTL"
	}]
}