{
	"accessors":[{
		"bufferView":0,
		"type":"SCALAR",
		"componentType":5123,
		"count":2112,
		"byteOffset":0,
		"min":[0],
		"max":[384]
	},
	{
		"bufferView":1,
		"type":"VEC3",
		"componentType":5126,
		"count":385,
		"byteOffset":0,
		"min":[-0.006385344080626965,
		-0.001618173555471003,
		-0.0012968418886885048],
		"max":[0.0003952764382120222,
		0.0016307913465425373,
		0.0012968418886885048]
	},
	{
		"bufferView":1,
		"type":"VEC3",
		"componentType":5126,
		"count":385,
		"byteOffset":12,
		"min":[-0.9998403787612915,
		-0.9984199404716492,
		-0.9999577403068543],
		"max":[0.9987262487411499,
		0.9994983077049255,
		0.9999887943267822]
	},
	{
		"bufferView":1,
		"type":"VEC2",
		"componentType":5126,
		"count":385,
		"byteOffset":24,
		"min":[0.125,
		0.0],
		"max":[0.875,
		1.0]
	},
	{
		"bufferView":2,
		"type":"SCALAR",
		"componentType":5126,
		"count":61,
		"byteOffset":0,
		"min":[0.0],
		"max":[2.0]
	},
	{
		"bufferView":2,
		"type":"VEC4",
		"componentType":5126,
		"count":61,
		"byteOffset":244,
		"min":[0.0028463059570640327,
		-0.9999959468841553,
		1.7428597278794553e-19,
		-6.123209116635218e-17],
		"max":[0.1563674956560135,
		0.9999427795410156,
		9.574747112018692e-18,
		6.122883538346117e-17]
	},
	{
		"bufferView":3,
		"type":"SCALAR",
		"componentType":5123,
		"count":2112,
		"byteOffset":0,
		"min":[0],
		"max":[384]
	},
	{
		"bufferView":4,
		"type":"VEC3",
		"componentType":5126,
		"count":385,
		"byteOffset":0,
		"min":[-0.006444412749260664,
		-0.001618173555471003,
		-0.0012968418886885048],
		"max":[0.0003362077986821532,
		0.0016307913465425373,
		0.0012968418886885048]
	},
	{
		"bufferView":4,
		"type":"VEC3",
		"componentType":5126,
		"count":385,
		"byteOffset":12,
		"min":[-0.9998403787612915,
		-0.9984199404716492,
		-0.9999577403068543],
		"max":[0.9987262487411499,
		0.9994983077049255,
		0.9999887943267822]
	},
	{
		"bufferView":4,
		"type":"VEC2",
		"componentType":5126,
		"count":385,
		"byteOffset":24,
		"min":[0.125,
		0.0],
		"max":[0.875,
		1.0]
	},
	{
		"bufferView":5,
		"type":"SCALAR",
		"componentType":5126,
		"count":61,
		"byteOffset":0,
		"min":[0.0],
		"max":[2.0]
	},
	{
		"bufferView":5,
		"type":"VEC4",
		"componentType":5126,
		"count":61,
		"byteOffset":244,
		"min":[0.0,
		0.0,
		0.0028463059570640327,
		-0.9999959468841553],
		"max":[0.0,
		0.0,
		0.1563674956560135,
		0.9999427795410156]
	}],
	"asset":{
		"version":"2.0",
		"generator":"Autodesk Maya 2023"
	},
	"scenes":[{
		"nodes":[0]
	}],
	"nodes":[{
		"name":"mustache",
		"translation":[0.0,
		0.0,
		0.0],
		"rotation":[-0.7071067690849304,
		0.0,
		0.0,
		-0.7071067690849304],
		"scale":[1.0,
		1.0,
		1.0],
		"children":[1,
		2]
	},
	{
		"name":"mustache.2",
		"mesh":0,
		"translation":[0.000525054638274014,
		0.0019194763153791428,
		1.1753402861417435e-19],
		"rotation":[0.07463934272527695,
		0.9972106218338013,
		4.570341629200439e-18,
		6.106153975893354e-17],
		"scale":[1.0,
		1.0,
		1.0]
	},
	{
		"name":"mustache",
		"mesh":1,
		"translation":[-0.00046598599874414504,
		0.0019194763153791428,
		1.1753402861417435e-19],
		"rotation":[0.0,
		0.0,
		0.07463934272527695,
		0.9972106218338013],
		"scale":[1.0,
		1.0,
		1.0]
	}],
	"meshes":[{
		"name":"mustache.2",
		"primitives":[{
			"attributes":{
				"POSITION":1,
				"NORMAL":2,
				"TEXCOORD_0":3
			},
			"indices":0,
			"material":0
		}]
	},
	{
		"name":"mustache",
		"primitives":[{
			"attributes":{
				"POSITION":7,
				"NORMAL":8,
				"TEXCOORD_0":9
			},
			"indices":6,
			"material":0
		}]
	}],
	"bufferViews":[{
		"buffer":0,
		"byteOffset":0,
		"byteLength":4224,
		"target":34963
	},
	{
		"buffer":0,
		"byteOffset":4224,
		"byteLength":12320,
		"target":34962,
		"byteStride":32
	},
	{
		"buffer":1,
		"byteOffset":0,
		"byteLength":1220
	},
	{
		"buffer":2,
		"byteOffset":0,
		"byteLength":4224,
		"target":34963
	},
	{
		"buffer":2,
		"byteOffset":4224,
		"byteLength":12320,
		"target":34962,
		"byteStride":32
	},
	{
		"buffer":3,
		"byteOffset":0,
		"byteLength":1220
	}],
	"buffers":[{
		"uri":"data:application/octet-stream;base64,",
		"byteLength":16544
	},
	{
		"uri":"data:application/octet-stream;base64,",
		"byteLength":1220
	},
	{
		"uri":"data:application/octet-stream;base64,",
		"byteLength":16544
	},
	{
		"uri":"data:application/octet-stream;base64,",
		"byteLength":1220
	}],
	"materials":[{
		"pbrMetallicRoughness":{
			"baseColorFactor":[0.12000000178813934,
			0.12000000178813934,
			0.12000000178813934,
			1.0],
			"metallicFactor":1.0,
			"roughnessFactor":1.0
		},
		"name":"lambert1",
		"emissiveFactor":[0.0,
		0.0,
		0.0],
		"alphaMode":"OPAQUE",
		"doubleSided":false
	}],
	"animations":[{
		"samplers":[{
			"input":4,
			"interpolation":"LINEAR",
			"output":5
		},
		{
			"input":10,
			"interpolation":"LINEAR",
			"output":11
		}],
		"channels":[{
			"sampler":0,
			"target":{
				"node":1,
				"path":"rotation"
			}
		},
		{
			"sampler":1,
			"target":{
				"node":2,
				"path":"rotation"
			}
		}]
	}]
}