{
	"buffers":[{
		"uri":"data:application/octet-stream;base64,",
		"byteLength":6080
	},
	{
		"uri":"data:application/octet-stream;base64,",
		"byteLength":23328
	},
	{
		"uri":"data:application/octet-stream;base64,",
		"byteLength":18720
	},
	{
		"uri":"data:application/octet-stream;base64,",
		"byteLength":21440
	},
	{
		"uri":"data:application/octet-stream;base64,",
		"byteLength":8336
	},
	{
		"uri":"data:application/octet-stream;base64,",
		"byteLength":4992
	},
	{
		"uri":"data:application/octet-stream;base64,",
		"byteLength":26576
	},
	{
		"uri":"data:application/octet-stream;base64,",
		"byteLength":23008
	},
	{
		"uri":"data:application/octet-stream;base64,",
		"byteLength":23008
	}],
	"asset":{
		"version":"2.0",
		"generator":"Maxon Cinema 4D 2023.2.2 (#200000219)"
	},
	"scenes":[{
		"nodes":[0]
	}],
	"bufferViews":[{
		"buffer":0,
		"byteOffset":0,
		"byteLength":1152,
		"target":34963
	},
	{
		"buffer":0,
		"byteOffset":1152,
		"byteLength":4928,
		"target":34962,
		"byteStride":32
	},
	{
		"buffer":1,
		"byteOffset":0,
		"byteLength":7632,
		"target":34963
	},
	{
		"buffer":1,
		"byteOffset":7632,
		"byteLength":15696,
		"target":34962,
		"byteStride":24
	},
	{
		"buffer":2,
		"byteOffset":0,
		"byteLength":4608,
		"target":34963
	},
	{
		"buffer":2,
		"byteOffset":4608,
		"byteLength":14112,
		"target":34962,
		"byteStride":32
	},
	{
		"buffer":3,
		"byteOffset":0,
		"byteLength":4224,
		"target":34963
	},
	{
		"buffer":3,
		"byteOffset":4224,
		"byteLength":17216,
		"target":34962,
		"byteStride":32
	},
	{
		"buffer":4,
		"byteOffset":0,
		"byteLength":1680,
		"target":34963
	},
	{
		"buffer":4,
		"byteOffset":1680,
		"byteLength":6656,
		"target":34962,
		"byteStride":32
	},
	{
		"buffer":5,
		"byteOffset":0,
		"byteLength":960,
		"target":34963
	},
	{
		"buffer":5,
		"byteOffset":960,
		"byteLength":4032,
		"target":34962,
		"byteStride":32
	},
	{
		"buffer":6,
		"byteOffset":0,
		"byteLength":6480,
		"target":34963
	},
	{
		"buffer":6,
		"byteOffset":6480,
		"byteLength":20096,
		"target":34962,
		"byteStride":32
	},
	{
		"buffer":7,
		"byteOffset":0,
		"byteLength":2304,
		"target":34963
	},
	{
		"buffer":7,
		"byteOffset":2304,
		"byteLength":20704,
		"target":34962,
		"byteStride":32
	},
	{
		"buffer":8,
		"byteOffset":0,
		"byteLength":2304,
		"target":34963
	},
	{
		"buffer":8,
		"byteOffset":2304,
		"byteLength":20704,
		"target":34962,
		"byteStride":32
	}],
	"nodes":[{
		"name":"pinkCharTris_GRP",
		"children":[1,
		2,
		3,
		4,
		5,
		6,
		7]
	},
	{
		"name":"eyes",
		"children":[8,
		9,
		10]
	},
	{
		"mesh":0,
		"name":"pCylinder2"
	},
	{
		"name":"r arm",
		"children":[11]
	},
	{
		"name":"l arm",
		"children":[12]
	},
	{
		"mesh":1,
		"name":"orangeLegs"
	},
	{
		"mesh":2,
		"name":"pCube4"
	},
	{
		"mesh":3,
		"name":"pCylinder3"
	},
	{
		"mesh":4,
		"name":"eyes-blackMTL"
	},
	{
		"mesh":5,
		"name":"eyes-blueMTL"
	},
	{
		"mesh":6,
		"name":"eyes-whiteMTL"
	},
	{
		"mesh":7,
		"name":"r arm"
	},
	{
		"mesh":8,
		"name":"l arm"
	}],
	"meshes":[{
		"name":"pCylinder2",
		"primitives":[{
			"attributes":{
				"POSITION":1,
				"NORMAL":2,
				"TEXCOORD_0":3
			},
			"indices":0,
			"material":0
		}]
	},
	{
		"name":"orangeLegs",
		"primitives":[{
			"attributes":{
				"POSITION":5,
				"NORMAL":6
			},
			"indices":4,
			"material":1
		}]
	},
	{
		"name":"pCube4",
		"primitives":[{
			"attributes":{
				"POSITION":8,
				"NORMAL":9,
				"TEXCOORD_0":10
			},
			"indices":7,
			"material":1
		}]
	},
	{
		"name":"pCylinder3",
		"primitives":[{
			"attributes":{
				"POSITION":12,
				"NORMAL":13,
				"TEXCOORD_0":14
			},
			"indices":11,
			"material":2
		}]
	},
	{
		"name":"eyes-blackMTL",
		"primitives":[{
			"attributes":{
				"POSITION":16,
				"NORMAL":17,
				"TEXCOORD_0":18
			},
			"indices":15,
			"material":0
		}]
	},
	{
		"name":"eyes-blueMTL",
		"primitives":[{
			"attributes":{
				"POSITION":20,
				"NORMAL":21,
				"TEXCOORD_0":22
			},
			"indices":19,
			"material":3
		}]
	},
	{
		"name":"eyes-whiteMTL",
		"primitives":[{
			"attributes":{
				"POSITION":24,
				"NORMAL":25,
				"TEXCOORD_0":26
			},
			"indices":23,
			"material":4
		}]
	},
	{
		"name":"r arm",
		"primitives":[{
			"attributes":{
				"POSITION":28,
				"NORMAL":29,
				"TEXCOORD_0":30
			},
			"indices":27,
			"material":1
		}]
	},
	{
		"name":"l arm",
		"primitives":[{
			"attributes":{
				"POSITION":32,
				"NORMAL":33,
				"TEXCOORD_0":34
			},
			"indices":31,
			"material":1
		}]
	}],
	"accessors":[{
		"bufferView":0,
		"type":"SCALAR",
		"componentType":5123,
		"count":576,
		"byteOffset":0,
		"min":[0],
		"max":[153]
	},
	{
		"bufferView":1,
		"type":"VEC3",
		"componentType":5126,
		"count":154,
		"byteOffset":0,
		"min":[-0.0032090414315462114,
		0.03885781764984131,
		0.01911497488617897],
		"max":[0.0032215456012636425,
		0.04226994141936302,
		0.019912803545594217]
	},
	{
		"bufferView":1,
		"type":"VEC3",
		"componentType":5126,
		"count":154,
		"byteOffset":12,
		"min":[-0.9972925186157227,
		-0.9949653744697571,
		-0.312289297580719],
		"max":[0.9972094893455505,
		0.9958246946334839,
		0.9978594183921814]
	},
	{
		"bufferView":1,
		"type":"VEC2",
		"componentType":5126,
		"count":154,
		"byteOffset":24,
		"min":[0.3437499701976776,
		0.15625],
		"max":[0.65625,
		0.8264791965484619]
	},
	{
		"bufferView":2,
		"type":"SCALAR",
		"componentType":5123,
		"count":3816,
		"byteOffset":0,
		"min":[0],
		"max":[653]
	},
	{
		"bufferView":3,
		"type":"VEC3",
		"componentType":5126,
		"count":654,
		"byteOffset":0,
		"min":[-0.01202166173607111,
		0.00018895695393439382,
		-0.00521874288097024],
		"max":[0.01202166173607111,
		0.027462491765618326,
		0.007204138208180666]
	},
	{
		"bufferView":3,
		"type":"VEC3",
		"componentType":5126,
		"count":654,
		"byteOffset":12,
		"min":[-0.9981460571289063,
		-1.0,
		-0.9986392855644226],
		"max":[0.9981460571289063,
		0.8588836789131165,
		0.997861921787262]
	},
	{
		"bufferView":4,
		"type":"SCALAR",
		"componentType":5123,
		"count":2304,
		"byteOffset":0,
		"min":[0],
		"max":[440]
	},
	{
		"bufferView":5,
		"type":"VEC3",
		"componentType":5126,
		"count":441,
		"byteOffset":0,
		"min":[-0.019869815558195115,
		0.023329665884375573,
		-0.019869815558195115],
		"max":[0.019869815558195115,
		0.06306929886341095,
		0.019869815558195115]
	},
	{
		"bufferView":5,
		"type":"VEC3",
		"componentType":5126,
		"count":441,
		"byteOffset":12,
		"min":[-1.0,
		-1.0,
		-1.0],
		"max":[1.0,
		1.0,
		1.0]
	},
	{
		"bufferView":5,
		"type":"VEC2",
		"componentType":5126,
		"count":441,
		"byteOffset":24,
		"min":[0.125,
		0.0],
		"max":[0.875,
		1.0]
	},
	{
		"bufferView":6,
		"type":"SCALAR",
		"componentType":5123,
		"count":2112,
		"byteOffset":0,
		"min":[0],
		"max":[537]
	},
	{
		"bufferView":7,
		"type":"VEC3",
		"componentType":5126,
		"count":538,
		"byteOffset":0,
		"min":[-0.021066443994641305,
		0.04111430048942566,
		0.018715953454375268],
		"max":[0.021066443994641305,
		0.06168590113520622,
		0.020320897921919824]
	},
	{
		"bufferView":7,
		"type":"VEC3",
		"componentType":5126,
		"count":538,
		"byteOffset":12,
		"min":[-0.93748539686203,
		-0.9232770800590515,
		-1.0],
		"max":[0.93748539686203,
		0.9236196279525757,
		1.0]
	},
	{
		"bufferView":7,
		"type":"VEC2",
		"componentType":5126,
		"count":538,
		"byteOffset":24,
		"min":[0.3437499701976776,
		0.00005042552947998047],
		"max":[0.65625,
		0.99994957447052]
	},
	{
		"bufferView":8,
		"type":"SCALAR",
		"componentType":5123,
		"count":840,
		"byteOffset":0,
		"min":[0],
		"max":[207]
	},
	{
		"bufferView":9,
		"type":"VEC3",
		"componentType":5126,
		"count":208,
		"byteOffset":0,
		"min":[-0.012162245810031891,
		0.04503244534134865,
		0.022011689841747285],
		"max":[0.012162245810031891,
		0.05324158817529678,
		0.023545730859041215]
	},
	{
		"bufferView":9,
		"type":"VEC3",
		"componentType":5126,
		"count":208,
		"byteOffset":12,
		"min":[-0.5636075735092163,
		-0.5222957730293274,
		0.82558274269104],
		"max":[0.5636075735092163,
		0.5222933292388916,
		0.9987896084785461]
	},
	{
		"bufferView":9,
		"type":"VEC2",
		"componentType":5126,
		"count":208,
		"byteOffset":24,
		"min":[0.0,
		0.0],
		"max":[1.0000001192092896,
		0.1999998688697815]
	},
	{
		"bufferView":10,
		"type":"SCALAR",
		"componentType":5123,
		"count":480,
		"byteOffset":0,
		"min":[0],
		"max":[125]
	},
	{
		"bufferView":11,
		"type":"VEC3",
		"componentType":5126,
		"count":126,
		"byteOffset":0,
		"min":[-0.013629225082695485,
		0.043487548828125,
		0.020392637699842454],
		"max":[0.013629225082695485,
		0.05478646233677864,
		0.02241569198668003]
	},
	{
		"bufferView":11,
		"type":"VEC3",
		"componentType":5126,
		"count":126,
		"byteOffset":12,
		"min":[-0.7908129096031189,
		-0.7597929239273071,
		0.6107431650161743],
		"max":[0.7908129096031189,
		0.7597981691360474,
		0.7909795045852661]
	},
	{
		"bufferView":11,
		"type":"VEC2",
		"componentType":5126,
		"count":126,
		"byteOffset":24,
		"min":[0.0,
		0.1999998688697815],
		"max":[1.0000001192092896,
		0.2999998927116394]
	},
	{
		"bufferView":12,
		"type":"SCALAR",
		"componentType":5123,
		"count":3240,
		"byteOffset":0,
		"min":[0],
		"max":[627]
	},
	{
		"bufferView":13,
		"type":"VEC3",
		"componentType":5126,
		"count":628,
		"byteOffset":0,
		"min":[-0.014759259298443795,
		0.042153891175985339,
		0.009596430696547032],
		"max":[0.014759259298443795,
		0.056120119988918307,
		0.020948713645339013]
	},
	{
		"bufferView":13,
		"type":"VEC3",
		"componentType":5126,
		"count":628,
		"byteOffset":12,
		"min":[-0.9987896084785461,
		-1.0,
		-0.9987896084785461],
		"max":[0.9987896084785461,
		1.0,
		0.5632643103599548]
	},
	{
		"bufferView":13,
		"type":"VEC2",
		"componentType":5126,
		"count":628,
		"byteOffset":24,
		"min":[0.0,
		0.2999998927116394],
		"max":[1.0000001192092896,
		1.0]
	},
	{
		"bufferView":14,
		"type":"SCALAR",
		"componentType":5123,
		"count":1152,
		"byteOffset":0,
		"min":[0],
		"max":[646]
	},
	{
		"bufferView":15,
		"type":"VEC3",
		"componentType":5126,
		"count":647,
		"byteOffset":0,
		"min":[-0.03008217178285122,
		0.03227218985557556,
		-0.003645582590252161],
		"max":[-0.011314494535326958,
		0.05158788710832596,
		0.003645582590252161]
	},
	{
		"bufferView":15,
		"type":"VEC3",
		"componentType":5126,
		"count":647,
		"byteOffset":12,
		"min":[-0.9989883899688721,
		-0.9999855756759644,
		-0.9999979734420776],
		"max":[0.9947328567504883,
		1.0,
		0.9999979734420776]
	},
	{
		"bufferView":15,
		"type":"VEC2",
		"componentType":5126,
		"count":647,
		"byteOffset":24,
		"min":[0.0,
		0.0],
		"max":[1.0,
		1.0]
	},
	{
		"bufferView":16,
		"type":"SCALAR",
		"componentType":5123,
		"count":1152,
		"byteOffset":0,
		"min":[0],
		"max":[646]
	},
	{
		"bufferView":17,
		"type":"VEC3",
		"componentType":5126,
		"count":647,
		"byteOffset":0,
		"min":[0.011314494535326958,
		0.018288657069206239,
		-0.003645582590252161],
		"max":[0.026356244459748269,
		0.03954818844795227,
		0.003645582590252161]
	},
	{
		"bufferView":17,
		"type":"VEC3",
		"componentType":5126,
		"count":647,
		"byteOffset":12,
		"min":[-0.9968796372413635,
		-0.9999672770500183,
		-0.9999980926513672],
		"max":[0.9996772408485413,
		0.9999540448188782,
		0.9999980926513672]
	},
	{
		"bufferView":17,
		"type":"VEC2",
		"componentType":5126,
		"count":647,
		"byteOffset":24,
		"min":[0.0,
		0.0],
		"max":[1.0,
		1.0]
	}],
	"materials":[{
		"pbrMetallicRoughness":{
			"baseColorFactor":[0.1,
			0.1,
			0.1,
			1.0],
			"metallicFactor":0.0,
			"roughnessFactor":0.5
		},
		"emissiveFactor":[0.0,
		0.0,
		0.0],
		"alphaMode":"OPAQUE",
		"name":"blackMTL",
		"doubleSided":false
	},
	{
		"pbrMetallicRoughness":{
			"baseColorFactor":[0.9529411764705882,
			0.5411764705882353,
			0.5450980392156862,
			1.0],
			"metallicFactor":0.0,
			"roughnessFactor":0.5
		},
		"emissiveFactor":[0.0,
		0.0,
		0.0],
		"alphaMode":"OPAQUE",
		"name":"pinkMTL",
		"doubleSided":false
	},
	{
		"pbrMetallicRoughness":{
			"baseColorFactor":[0.8,
			0.8,
			0.8,
			1.0],
			"metallicFactor":0.0,
			"roughnessFactor":0.5
		},
		"emissiveFactor":[0.0,
		0.0,
		0.0],
		"alphaMode":"OPAQUE",
		"name":"darkBlueMTL",
		"doubleSided":false
	},
	{
		"pbrMetallicRoughness":{
			"baseColorFactor":[0.5490196078431373,
			0.611764705882353,
			0.8156862745098039,
			1.0],
			"metallicFactor":0.0,
			"roughnessFactor":0.5
		},
		"emissiveFactor":[0.0,
		0.0,
		0.0],
		"alphaMode":"OPAQUE",
		"name":"blueMTL",
		"doubleSided":false
	},
	{
		"pbrMetallicRoughness":{
			"baseColorFactor":[1.0,
			1.0,
			1.0,
			1.0],
			"metallicFactor":0.0,
			"roughnessFactor":0.5
		},
		"emissiveFactor":[0.0,
		0.0,
		0.0],
		"alphaMode":"OPAQUE",
		"name":"whiteMTL",
		"doubleSided":false
	}]
}