{
	"buffers":[{
		"uri":"data:application/octet-stream;base64,",
		"byteLength":6080
	},
	{
		"uri":"data:application/octet-stream;base64,",
		"byteLength":5056
	},
	{
		"uri":"data:application/octet-stream;base64,",
		"byteLength":34848
	},
	{
		"uri":"data:application/octet-stream;base64,",
		"byteLength":34000
	},
	{
		"uri":"data:application/octet-stream;base64,",
		"byteLength":27504
	},
	{
		"uri":"data:application/octet-stream;base64,",
		"byteLength":3040
	},
	{
		"uri":"data:application/octet-stream;base64,",
		"byteLength":6864
	},
	{
		"uri":"data:application/octet-stream;base64,",
		"byteLength":15776
	},
	{
		"uri":"data:application/octet-stream;base64,",
		"byteLength":15776
	}],
	"asset":{
		"version":"2.0",
		"generator":"Maxon Cinema 4D 2023.2.2 (#200000219)"
	},
	"scenes":[{
		"nodes":[0]
	}],
	"bufferViews":[{
		"buffer":0,
		"byteOffset":0,
		"byteLength":1152,
		"target":34963
	},
	{
		"buffer":0,
		"byteOffset":1152,
		"byteLength":4928,
		"target":34962,
		"byteStride":32
	},
	{
		"buffer":1,
		"byteOffset":0,
		"byteLength":1152,
		"target":34963
	},
	{
		"buffer":1,
		"byteOffset":1152,
		"byteLength":3904,
		"target":34962,
		"byteStride":32
	},
	{
		"buffer":2,
		"byteOffset":0,
		"byteLength":9216,
		"target":34963
	},
	{
		"buffer":2,
		"byteOffset":9216,
		"byteLength":25632,
		"target":34962,
		"byteStride":32
	},
	{
		"buffer":3,
		"byteOffset":0,
		"byteLength":8784,
		"target":34963
	},
	{
		"buffer":3,
		"byteOffset":8784,
		"byteLength":25216,
		"target":34962,
		"byteStride":32
	},
	{
		"buffer":4,
		"byteOffset":0,
		"byteLength":6960,
		"target":34963
	},
	{
		"buffer":4,
		"byteOffset":6960,
		"byteLength":20544,
		"target":34962,
		"byteStride":32
	},
	{
		"buffer":5,
		"byteOffset":0,
		"byteLength":480,
		"target":34963
	},
	{
		"buffer":5,
		"byteOffset":480,
		"byteLength":2560,
		"target":34962,
		"byteStride":32
	},
	{
		"buffer":6,
		"byteOffset":0,
		"byteLength":1680,
		"target":34963
	},
	{
		"buffer":6,
		"byteOffset":1680,
		"byteLength":5184,
		"target":34962,
		"byteStride":32
	},
	{
		"buffer":7,
		"byteOffset":0,
		"byteLength":4032,
		"target":34963
	},
	{
		"buffer":7,
		"byteOffset":4032,
		"byteLength":11744,
		"target":34962,
		"byteStride":32
	},
	{
		"buffer":8,
		"byteOffset":0,
		"byteLength":4032,
		"target":34963
	},
	{
		"buffer":8,
		"byteOffset":4032,
		"byteLength":11744,
		"target":34962,
		"byteStride":32
	}],
	"nodes":[{
		"name":"orangeChar_MTL",
		"children":[1,
		2,
		3,
		4,
		5,
		6,
		7]
	},
	{
		"name":"eyes",
		"children":[8,
		9,
		10]
	},
	{
		"mesh":0,
		"name":"mouth"
	},
	{
		"mesh":1,
		"name":"ears"
	},
	{
		"mesh":2,
		"name":"body"
	},
	{
		"mesh":3,
		"name":"leg_L"
	},
	{
		"name":"arm_L",
		"children":[11]
	},
	{
		"name":"arm_R",
		"children":[12]
	},
	{
		"mesh":4,
		"name":"eyes-whiteMTL"
	},
	{
		"mesh":5,
		"name":"eyes-blueMTL"
	},
	{
		"mesh":6,
		"name":"eyes-blackMTL"
	},
	{
		"mesh":7,
		"name":"arm_L"
	},
	{
		"mesh":8,
		"name":"arm_R"
	}],
	"meshes":[{
		"name":"mouth",
		"primitives":[{
			"attributes":{
				"POSITION":1,
				"NORMAL":2,
				"TEXCOORD_0":3
			},
			"indices":0,
			"material":0
		}]
	},
	{
		"name":"ears",
		"primitives":[{
			"attributes":{
				"POSITION":5,
				"NORMAL":6,
				"TEXCOORD_0":7
			},
			"indices":4,
			"material":1
		}]
	},
	{
		"name":"body",
		"primitives":[{
			"attributes":{
				"POSITION":9,
				"NORMAL":10,
				"TEXCOORD_0":11
			},
			"indices":8,
			"material":1
		}]
	},
	{
		"name":"leg_L",
		"primitives":[{
			"attributes":{
				"POSITION":13,
				"NORMAL":14,
				"TEXCOORD_0":15
			},
			"indices":12,
			"material":1
		}]
	},
	{
		"name":"eyes-whiteMTL",
		"primitives":[{
			"attributes":{
				"POSITION":17,
				"NORMAL":18,
				"TEXCOORD_0":19
			},
			"indices":16,
			"material":2
		}]
	},
	{
		"name":"eyes-blueMTL",
		"primitives":[{
			"attributes":{
				"POSITION":21,
				"NORMAL":22,
				"TEXCOORD_0":23
			},
			"indices":20,
			"material":3
		}]
	},
	{
		"name":"eyes-blackMTL",
		"primitives":[{
			"attributes":{
				"POSITION":25,
				"NORMAL":26,
				"TEXCOORD_0":27
			},
			"indices":24,
			"material":0
		}]
	},
	{
		"name":"arm_L",
		"primitives":[{
			"attributes":{
				"POSITION":29,
				"NORMAL":30,
				"TEXCOORD_0":31
			},
			"indices":28,
			"material":1
		}]
	},
	{
		"name":"arm_R",
		"primitives":[{
			"attributes":{
				"POSITION":33,
				"NORMAL":34,
				"TEXCOORD_0":35
			},
			"indices":32,
			"material":1
		}]
	}],
	"accessors":[{
		"bufferView":0,
		"type":"SCALAR",
		"componentType":5123,
		"count":576,
		"byteOffset":0,
		"min":[0],
		"max":[153]
	},
	{
		"bufferView":1,
		"type":"VEC3",
		"componentType":5126,
		"count":154,
		"byteOffset":0,
		"min":[-0.004407401662319899,
		0.09338679909706116,
		0.022662144154310228],
		"max":[0.0044259880669415,
		0.09809568524360657,
		0.024626363068819047]
	},
	{
		"bufferView":1,
		"type":"VEC3",
		"componentType":5126,
		"count":154,
		"byteOffset":12,
		"min":[-0.9948816299438477,
		-0.9871702790260315,
		-0.3446343243122101],
		"max":[0.9960320591926575,
		0.996901273727417,
		0.998703122138977]
	},
	{
		"bufferView":1,
		"type":"VEC2",
		"componentType":5126,
		"count":154,
		"byteOffset":24,
		"min":[0.33085015416145327,
		0.9819574356079102],
		"max":[0.36741533875465395,
		0.9999997615814209]
	},
	{
		"bufferView":2,
		"type":"SCALAR",
		"componentType":5123,
		"count":576,
		"byteOffset":0,
		"min":[0],
		"max":[121]
	},
	{
		"bufferView":3,
		"type":"VEC3",
		"componentType":5126,
		"count":122,
		"byteOffset":0,
		"min":[-0.013369143009185791,
		0.11961663514375687,
		-0.003173419274389744],
		"max":[0.013369143009185791,
		0.1272030621767044,
		0.0031734174117445947]
	},
	{
		"bufferView":3,
		"type":"VEC3",
		"componentType":5126,
		"count":122,
		"byteOffset":12,
		"min":[-0.9931514263153076,
		-0.3313809633255005,
		-0.996417760848999],
		"max":[0.9931514263153076,
		0.9998279809951782,
		0.9964185953140259]
	},
	{
		"bufferView":3,
		"type":"VEC2",
		"componentType":5126,
		"count":122,
		"byteOffset":24,
		"min":[0.10674599558115006,
		0.9648711681365967],
		"max":[0.43437448143959048,
		1.0]
	},
	{
		"bufferView":4,
		"type":"SCALAR",
		"componentType":5123,
		"count":4608,
		"byteOffset":0,
		"min":[0],
		"max":[800]
	},
	{
		"bufferView":5,
		"type":"VEC3",
		"componentType":5126,
		"count":801,
		"byteOffset":0,
		"min":[-0.030549485236406328,
		0.029082035645842553,
		-0.030008528381586076],
		"max":[0.030549488961696626,
		0.12415216118097305,
		0.03000853955745697]
	},
	{
		"bufferView":5,
		"type":"VEC3",
		"componentType":5126,
		"count":801,
		"byteOffset":12,
		"min":[-0.9997785091400147,
		-1.0,
		-0.9995062947273254],
		"max":[0.9997785091400147,
		1.0,
		0.9995062947273254]
	},
	{
		"bufferView":5,
		"type":"VEC2",
		"componentType":5126,
		"count":801,
		"byteOffset":24,
		"min":[0.01997585967183113,
		0.11545717716217041],
		"max":[0.5059391856193543,
		0.48039698600769045]
	},
	{
		"bufferView":6,
		"type":"SCALAR",
		"componentType":5123,
		"count":4392,
		"byteOffset":0,
		"min":[0],
		"max":[787]
	},
	{
		"bufferView":7,
		"type":"VEC3",
		"componentType":5126,
		"count":788,
		"byteOffset":0,
		"min":[-0.02996225655078888,
		0.0000625583779765293,
		-0.013268500566482544],
		"max":[0.02996225655078888,
		0.06110452488064766,
		0.018142271786928178]
	},
	{
		"bufferView":7,
		"type":"VEC3",
		"componentType":5126,
		"count":788,
		"byteOffset":12,
		"min":[-0.9990257620811462,
		-1.0,
		-0.9976978898048401],
		"max":[0.9990257620811462,
		0.867099404335022,
		0.9987902045249939]
	},
	{
		"bufferView":7,
		"type":"VEC2",
		"componentType":5126,
		"count":788,
		"byteOffset":24,
		"min":[0.5128177404403687,
		0.7891579866409302],
		"max":[0.7933344841003418,
		0.9999998807907105]
	},
	{
		"bufferView":8,
		"type":"SCALAR",
		"componentType":5123,
		"count":3480,
		"byteOffset":0,
		"min":[0],
		"max":[641]
	},
	{
		"bufferView":9,
		"type":"VEC3",
		"componentType":5126,
		"count":642,
		"byteOffset":0,
		"min":[-0.015265720896422863,
		0.10031045973300934,
		0.013564340770244599],
		"max":[0.015265720896422863,
		0.11216472834348679,
		0.02368258684873581]
	},
	{
		"bufferView":9,
		"type":"VEC3",
		"componentType":5126,
		"count":642,
		"byteOffset":12,
		"min":[-1.0,
		-1.0,
		-1.0],
		"max":[1.0,
		1.0,
		0.6489255428314209]
	},
	{
		"bufferView":9,
		"type":"VEC2",
		"componentType":5126,
		"count":642,
		"byteOffset":24,
		"min":[5.551115123125783e-17,
		0.228091299533844],
		"max":[1.0,
		0.9999997615814209]
	},
	{
		"bufferView":10,
		"type":"SCALAR",
		"componentType":5123,
		"count":240,
		"byteOffset":0,
		"min":[0],
		"max":[79]
	},
	{
		"bufferView":11,
		"type":"VEC3",
		"componentType":5126,
		"count":80,
		"byteOffset":0,
		"min":[-0.013529703952372074,
		0.10204648226499558,
		0.02368258684873581],
		"max":[0.013529703952372074,
		0.11042870581150055,
		0.024286622181534768]
	},
	{
		"bufferView":11,
		"type":"VEC3",
		"componentType":5126,
		"count":80,
		"byteOffset":12,
		"min":[-0.649075448513031,
		-0.649075448513031,
		0.7599526643753052],
		"max":[0.649075448513031,
		0.649075448513031,
		0.7599653601646423]
	},
	{
		"bufferView":11,
		"type":"VEC2",
		"componentType":5126,
		"count":80,
		"byteOffset":24,
		"min":[0.12100515514612198,
		0.3491056561470032],
		"max":[0.878986120223999,
		0.8789948225021362]
	},
	{
		"bufferView":12,
		"type":"SCALAR",
		"componentType":5123,
		"count":840,
		"byteOffset":0,
		"min":[0],
		"max":[161]
	},
	{
		"bufferView":13,
		"type":"VEC3",
		"componentType":5126,
		"count":162,
		"byteOffset":0,
		"min":[-0.01282246969640255,
		0.10275371372699738,
		0.024286622181534768],
		"max":[0.01282246969640255,
		0.10972148180007935,
		0.025418603792786599]
	},
	{
		"bufferView":13,
		"type":"VEC3",
		"componentType":5126,
		"count":162,
		"byteOffset":12,
		"min":[-0.5222880244255066,
		-0.5222880244255066,
		0.8523188829421997],
		"max":[0.5222880244255066,
		0.5222880244255066,
		1.0]
	},
	{
		"bufferView":13,
		"type":"VEC2",
		"componentType":5126,
		"count":162,
		"byteOffset":24,
		"min":[0.14985674619674684,
		0.3779639005661011],
		"max":[0.850127637386322,
		0.8501424789428711]
	},
	{
		"bufferView":14,
		"type":"SCALAR",
		"componentType":5123,
		"count":2016,
		"byteOffset":0,
		"min":[0],
		"max":[366]
	},
	{
		"bufferView":15,
		"type":"VEC3",
		"componentType":5126,
		"count":367,
		"byteOffset":0,
		"min":[0.021306870505213739,
		0.04540366306900978,
		-0.00799686461687088],
		"max":[0.048495713621377948,
		0.09209685772657395,
		0.00799686461687088]
	},
	{
		"bufferView":15,
		"type":"VEC3",
		"componentType":5126,
		"count":367,
		"byteOffset":12,
		"min":[-0.9957674741744995,
		-0.9976405501365662,
		-0.9999861717224121],
		"max":[0.9999448657035828,
		0.9828342199325562,
		0.9999440312385559]
	},
	{
		"bufferView":15,
		"type":"VEC2",
		"componentType":5126,
		"count":367,
		"byteOffset":24,
		"min":[0.7818676233291626,
		0.8309459686279297],
		"max":[0.9381951689720154,
		0.9999998807907105]
	},
	{
		"bufferView":16,
		"type":"SCALAR",
		"componentType":5123,
		"count":2016,
		"byteOffset":0,
		"min":[0],
		"max":[366]
	},
	{
		"bufferView":17,
		"type":"VEC3",
		"componentType":5126,
		"count":367,
		"byteOffset":0,
		"min":[-0.0574001669883728,
		0.07611747086048126,
		-0.00799686461687088],
		"max":[-0.021321477368474008,
		0.11317476630210877,
		0.00799686461687088]
	},
	{
		"bufferView":17,
		"type":"VEC3",
		"componentType":5126,
		"count":367,
		"byteOffset":12,
		"min":[-0.9998754858970642,
		-0.9996504187583923,
		-0.999996542930603],
		"max":[0.9990108609199524,
		1.0,
		1.0]
	},
	{
		"bufferView":17,
		"type":"VEC2",
		"componentType":5126,
		"count":367,
		"byteOffset":24,
		"min":[0.7818676233291626,
		0.8309459686279297],
		"max":[0.9381951689720154,
		0.9999998807907105]
	}],
	"materials":[{
		"pbrMetallicRoughness":{
			"baseColorFactor":[0.1,
			0.1,
			0.1,
			1.0],
			"metallicFactor":0.0,
			"roughnessFactor":0.5
		},
		"emissiveFactor":[0.0,
		0.0,
		0.0],
		"alphaMode":"OPAQUE",
		"name":"blackMTL",
		"doubleSided":false
	},
	{
		"pbrMetallicRoughness":{
			"baseColorFactor":[0.9215686274509803,
			0.38039215686274516,
			0.1411764705882353,
			1.0],
			"metallicFactor":0.0,
			"roughnessFactor":0.5
		},
		"emissiveFactor":[0.0,
		0.0,
		0.0],
		"alphaMode":"OPAQUE",
		"name":"orangeMTL",
		"doubleSided":false
	},
	{
		"pbrMetallicRoughness":{
			"baseColorFactor":[1.0,
			1.0,
			1.0,
			1.0],
			"metallicFactor":0.0,
			"roughnessFactor":0.5
		},
		"emissiveFactor":[0.0,
		0.0,
		0.0],
		"alphaMode":"OPAQUE",
		"name":"whiteMTL",
		"doubleSided":false
	},
	{
		"pbrMetallicRoughness":{
			"baseColorFactor":[0.5490196078431373,
			0.611764705882353,
			0.8156862745098039,
			1.0],
			"metallicFactor":0.0,
			"roughnessFactor":0.5
		},
		"emissiveFactor":[0.0,
		0.0,
		0.0],
		"alphaMode":"OPAQUE",
		"name":"blueMTL",
		"doubleSided":false
	}]
}