{
	"buffers":[{
		"uri":"data:application/octet-stream;base64,",
		"byteLength":11040
	},
	{
		"uri":"data:application/octet-stream;base64,",
		"byteLength":5856
	},
	{
		"uri":"data:application/octet-stream;base64,",
		"byteLength":5856
	},
	{
		"uri":"data:application/octet-stream;base64,",
		"byteLength":8336
	},
	{
		"uri":"data:application/octet-stream;base64,",
		"byteLength":3168
	},
	{
		"uri":"data:application/octet-stream;base64,",
		"byteLength":28400
	}],
	"asset":{
		"version":"2.0",
		"generator":"Maxon Cinema 4D 2023.2.2 (#200000219)"
	},
	"scenes":[{
		"nodes":[0]
	}],
	"bufferViews":[{
		"buffer":0,
		"byteOffset":0,
		"byteLength":2688,
		"target":34963
	},
	{
		"buffer":0,
		"byteOffset":2688,
		"byteLength":8352,
		"target":34962,
		"byteStride":32
	},
	{
		"buffer":1,
		"byteOffset":0,
		"byteLength":1344,
		"target":34963
	},
	{
		"buffer":1,
		"byteOffset":1344,
		"byteLength":4512,
		"target":34962,
		"byteStride":32
	},
	{
		"buffer":2,
		"byteOffset":0,
		"byteLength":1344,
		"target":34963
	},
	{
		"buffer":2,
		"byteOffset":1344,
		"byteLength":4512,
		"target":34962,
		"byteStride":32
	},
	{
		"buffer":3,
		"byteOffset":0,
		"byteLength":1680,
		"target":34963
	},
	{
		"buffer":3,
		"byteOffset":1680,
		"byteLength":6656,
		"target":34962,
		"byteStride":32
	},
	{
		"buffer":4,
		"byteOffset":0,
		"byteLength":480,
		"target":34963
	},
	{
		"buffer":4,
		"byteOffset":480,
		"byteLength":2688,
		"target":34962,
		"byteStride":32
	},
	{
		"buffer":5,
		"byteOffset":0,
		"byteLength":6960,
		"target":34963
	},
	{
		"buffer":5,
		"byteOffset":6960,
		"byteLength":21440,
		"target":34962,
		"byteStride":32
	}],
	"nodes":[{
		"name":"blueChar_GRP",
		"children":[1,
		2,
		3,
		4]
	},
	{
		"name":"eyes",
		"children":[5,
		6,
		7]
	},
	{
		"mesh":0,
		"name":"pCube1"
	},
	{
		"mesh":1,
		"name":"pCube2"
	},
	{
		"mesh":2,
		"name":"pCube3"
	},
	{
		"mesh":3,
		"name":"eyes-blackMTL"
	},
	{
		"mesh":4,
		"name":"eyes-blueMTL"
	},
	{
		"mesh":5,
		"name":"eyes-whiteMTL"
	}],
	"meshes":[{
		"name":"pCube1",
		"primitives":[{
			"attributes":{
				"POSITION":1,
				"NORMAL":2,
				"TEXCOORD_0":3
			},
			"indices":0,
			"material":0
		}]
	},
	{
		"name":"pCube2",
		"primitives":[{
			"attributes":{
				"POSITION":5,
				"NORMAL":6,
				"TEXCOORD_0":7
			},
			"indices":4,
			"material":0
		}]
	},
	{
		"name":"pCube3",
		"primitives":[{
			"attributes":{
				"POSITION":9,
				"NORMAL":10,
				"TEXCOORD_0":11
			},
			"indices":8,
			"material":0
		}]
	},
	{
		"name":"eyes-blackMTL",
		"primitives":[{
			"attributes":{
				"POSITION":13,
				"NORMAL":14,
				"TEXCOORD_0":15
			},
			"indices":12,
			"material":1
		}]
	},
	{
		"name":"eyes-blueMTL",
		"primitives":[{
			"attributes":{
				"POSITION":17,
				"NORMAL":18,
				"TEXCOORD_0":19
			},
			"indices":16,
			"material":0
		}]
	},
	{
		"name":"eyes-whiteMTL",
		"primitives":[{
			"attributes":{
				"POSITION":21,
				"NORMAL":22,
				"TEXCOORD_0":23
			},
			"indices":20,
			"material":2
		}]
	}],
	"accessors":[{
		"bufferView":0,
		"type":"SCALAR",
		"componentType":5123,
		"count":1344,
		"byteOffset":0,
		"min":[0],
		"max":[260]
	},
	{
		"bufferView":1,
		"type":"VEC3",
		"componentType":5126,
		"count":261,
		"byteOffset":0,
		"min":[-0.02018192782998085,
		-0.00017841339285951108,
		-0.022594982758164407],
		"max":[0.02018192782998085,
		0.039462611079216,
		0.022594982758164407]
	},
	{
		"bufferView":1,
		"type":"VEC3",
		"componentType":5126,
		"count":261,
		"byteOffset":12,
		"min":[-0.9997607469558716,
		-1.0,
		-0.9996998906135559],
		"max":[0.9997607469558716,
		1.0,
		0.9996998906135559]
	},
	{
		"bufferView":1,
		"type":"VEC2",
		"componentType":5126,
		"count":261,
		"byteOffset":24,
		"min":[0.125,
		0.0],
		"max":[0.875,
		1.0]
	},
	{
		"bufferView":2,
		"type":"SCALAR",
		"componentType":5123,
		"count":672,
		"byteOffset":0,
		"min":[0],
		"max":[140]
	},
	{
		"bufferView":3,
		"type":"VEC3",
		"componentType":5126,
		"count":141,
		"byteOffset":0,
		"min":[-0.0031962087377905847,
		0.038888730108737949,
		-0.0008403800311498344],
		"max":[-0.00024227387621067464,
		0.04181595891714096,
		0.0008403800311498344]
	},
	{
		"bufferView":3,
		"type":"VEC3",
		"componentType":5126,
		"count":141,
		"byteOffset":12,
		"min":[-0.9783244132995606,
		-0.7065549492835999,
		-0.9951133131980896],
		"max":[0.9146322011947632,
		0.9952749013900757,
		0.9952985048294067]
	},
	{
		"bufferView":3,
		"type":"VEC2",
		"componentType":5126,
		"count":141,
		"byteOffset":24,
		"min":[0.125,
		0.31103515625],
		"max":[0.875,
		0.9375]
	},
	{
		"bufferView":4,
		"type":"SCALAR",
		"componentType":5123,
		"count":672,
		"byteOffset":0,
		"min":[0],
		"max":[140]
	},
	{
		"bufferView":5,
		"type":"VEC3",
		"componentType":5126,
		"count":141,
		"byteOffset":0,
		"min":[-0.0005616077687591314,
		0.038930751383304599,
		-0.0008403800311498344],
		"max":[0.0025591114535927774,
		0.04271865263581276,
		0.0008403800311498344]
	},
	{
		"bufferView":5,
		"type":"VEC3",
		"componentType":5126,
		"count":141,
		"byteOffset":12,
		"min":[-0.9457683563232422,
		-0.6037724018096924,
		-0.9971326589584351],
		"max":[0.9761389493942261,
		0.9926798939704895,
		0.996932864189148]
	},
	{
		"bufferView":5,
		"type":"VEC2",
		"componentType":5126,
		"count":141,
		"byteOffset":24,
		"min":[0.125,
		0.31103515625],
		"max":[0.875,
		0.9375]
	},
	{
		"bufferView":6,
		"type":"SCALAR",
		"componentType":5123,
		"count":840,
		"byteOffset":0,
		"min":[0],
		"max":[207]
	},
	{
		"bufferView":7,
		"type":"VEC3",
		"componentType":5126,
		"count":208,
		"byteOffset":0,
		"min":[-0.007579081226140261,
		0.021050404757261277,
		0.023162920027971269],
		"max":[0.007579081226140261,
		0.02613084390759468,
		0.024353088811039926]
	},
	{
		"bufferView":7,
		"type":"VEC3",
		"componentType":5126,
		"count":208,
		"byteOffset":12,
		"min":[-0.5758907794952393,
		-0.4222244918346405,
		0.7769251465797424],
		"max":[0.5758907794952393,
		0.6158607602119446,
		0.9988424777984619]
	},
	{
		"bufferView":7,
		"type":"VEC2",
		"componentType":5126,
		"count":208,
		"byteOffset":24,
		"min":[0.0,
		0.0],
		"max":[1.0000001192092896,
		0.1999998688697815]
	},
	{
		"bufferView":8,
		"type":"SCALAR",
		"componentType":5123,
		"count":240,
		"byteOffset":0,
		"min":[0],
		"max":[83]
	},
	{
		"bufferView":9,
		"type":"VEC3",
		"componentType":5126,
		"count":84,
		"byteOffset":0,
		"min":[-0.008068577386438847,
		0.020484376698732377,
		0.022656133398413659],
		"max":[0.008068577386438847,
		0.026596151292324067,
		0.023825740441679956]
	},
	{
		"bufferView":9,
		"type":"VEC3",
		"componentType":5126,
		"count":84,
		"byteOffset":12,
		"min":[-0.6966108083724976,
		-0.5586989521980286,
		0.6688247323036194],
		"max":[0.6966108083724976,
		0.7313485145568848,
		0.8381116390228272]
	},
	{
		"bufferView":9,
		"type":"VEC2",
		"componentType":5126,
		"count":84,
		"byteOffset":24,
		"min":[0.0,
		0.1999998688697815],
		"max":[1.0000001192092896,
		0.24999988079071046]
	},
	{
		"bufferView":10,
		"type":"SCALAR",
		"componentType":5123,
		"count":3480,
		"byteOffset":0,
		"min":[0],
		"max":[669]
	},
	{
		"bufferView":11,
		"type":"VEC3",
		"componentType":5126,
		"count":670,
		"byteOffset":0,
		"min":[-0.00914247240871191,
		0.018845129758119584,
		0.015657486394047738],
		"max":[0.00914247240871191,
		0.02753666788339615,
		0.02345350943505764]
	},
	{
		"bufferView":11,
		"type":"VEC3",
		"componentType":5126,
		"count":670,
		"byteOffset":12,
		"min":[-0.9979338645935059,
		-0.9990559220314026,
		-0.9990566372871399],
		"max":[0.9979338645935059,
		0.9990501999855042,
		0.7415807843208313]
	},
	{
		"bufferView":11,
		"type":"VEC2",
		"componentType":5126,
		"count":670,
		"byteOffset":24,
		"min":[0.0,
		0.24999988079071046],
		"max":[1.0000001192092896,
		1.0]
	}],
	"materials":[{
		"pbrMetallicRoughness":{
			"baseColorFactor":[0.5490196078431373,
			0.611764705882353,
			0.8156862745098039,
			1.0],
			"metallicFactor":0.0,
			"roughnessFactor":0.5
		},
		"emissiveFactor":[0.0,
		0.0,
		0.0],
		"alphaMode":"OPAQUE",
		"name":"blueMTL",
		"doubleSided":false
	},
	{
		"pbrMetallicRoughness":{
			"baseColorFactor":[0.1,
			0.1,
			0.1,
			1.0],
			"metallicFactor":0.0,
			"roughnessFactor":0.5
		},
		"emissiveFactor":[0.0,
		0.0,
		0.0],
		"alphaMode":"OPAQUE",
		"name":"blackMTL",
		"doubleSided":false
	},
	{
		"pbrMetallicRoughness":{
			"baseColorFactor":[0.8,
			0.8,
			0.8,
			1.0],
			"metallicFactor":0.0,
			"roughnessFactor":0.5
		},
		"emissiveFactor":[0.0,
		0.0,
		0.0],
		"alphaMode":"OPAQUE",
		"name":"whiteMTL",
		"doubleSided":false
	}]
}