{
	"buffers":[{
		"uri":"data:application/octet-stream;base64,",
		"byteLength":52728
	},
	{
		"uri":"data:application/octet-stream;base64,",
		"byteLength":6080
	},
	{
		"uri":"data:application/octet-stream;base64,",
		"byteLength":9984
	},
	{
		"uri":"data:application/octet-stream;base64,",
		"byteLength":8224
	},
	{
		"uri":"data:application/octet-stream;base64,",
		"byteLength":38448
	},
	{
		"uri":"data:application/octet-stream;base64,",
		"byteLength":88672
	},
	{
		"uri":"data:application/octet-stream;base64,",
		"byteLength":8336
	},
	{
		"uri":"data:application/octet-stream;base64,",
		"byteLength":4992
	},
	{
		"uri":"data:application/octet-stream;base64,",
		"byteLength":26576
	},
	{
		"uri":"data:application/octet-stream;base64,",
		"byteLength":23008
	},
	{
		"uri":"data:application/octet-stream;base64,",
		"byteLength":23008
	}],
	"asset":{
		"version":"2.0",
		"generator":"Maxon Cinema 4D 2023.2.2 (#200000219)"
	},
	"scenes":[{
		"nodes":[0]
	}],
	"bufferViews":[{
		"buffer":0,
		"byteOffset":0,
		"byteLength":17208,
		"target":34963
	},
	{
		"buffer":0,
		"byteOffset":17208,
		"byteLength":35520,
		"target":34962,
		"byteStride":24
	},
	{
		"buffer":1,
		"byteOffset":0,
		"byteLength":1152,
		"target":34963
	},
	{
		"buffer":1,
		"byteOffset":1152,
		"byteLength":4928,
		"target":34962,
		"byteStride":32
	},
	{
		"buffer":2,
		"byteOffset":0,
		"byteLength":3072,
		"target":34963
	},
	{
		"buffer":2,
		"byteOffset":3072,
		"byteLength":6912,
		"target":34962,
		"byteStride":24
	},
	{
		"buffer":3,
		"byteOffset":0,
		"byteLength":1920,
		"target":34963
	},
	{
		"buffer":3,
		"byteOffset":1920,
		"byteLength":6304,
		"target":34962,
		"byteStride":32
	},
	{
		"buffer":4,
		"byteOffset":0,
		"byteLength":9870,
		"target":34963
	},
	{
		"buffer":4,
		"byteOffset":9872,
		"byteLength":28576,
		"target":34962,
		"byteStride":32
	},
	{
		"buffer":5,
		"byteOffset":0,
		"byteLength":23328,
		"target":34963
	},
	{
		"buffer":5,
		"byteOffset":23328,
		"byteLength":65344,
		"target":34962,
		"byteStride":32
	},
	{
		"buffer":6,
		"byteOffset":0,
		"byteLength":1680,
		"target":34963
	},
	{
		"buffer":6,
		"byteOffset":1680,
		"byteLength":6656,
		"target":34962,
		"byteStride":32
	},
	{
		"buffer":7,
		"byteOffset":0,
		"byteLength":960,
		"target":34963
	},
	{
		"buffer":7,
		"byteOffset":960,
		"byteLength":4032,
		"target":34962,
		"byteStride":32
	},
	{
		"buffer":8,
		"byteOffset":0,
		"byteLength":6480,
		"target":34963
	},
	{
		"buffer":8,
		"byteOffset":6480,
		"byteLength":20096,
		"target":34962,
		"byteStride":32
	},
	{
		"buffer":9,
		"byteOffset":0,
		"byteLength":2304,
		"target":34963
	},
	{
		"buffer":9,
		"byteOffset":2304,
		"byteLength":20704,
		"target":34962,
		"byteStride":32
	},
	{
		"buffer":10,
		"byteOffset":0,
		"byteLength":2304,
		"target":34963
	},
	{
		"buffer":10,
		"byteOffset":2304,
		"byteLength":20704,
		"target":34962,
		"byteStride":32
	}],
	"nodes":[{
		"name":"greenChar_GRP",
		"translation":[0.003005076665431261,
		-0.01403289008885622,
		0.0],
		"rotation":[0.0,
		0.0,
		0.0,
		-1.0],
		"scale":[1.0,
		1.0,
		1.0],
		"children":[1,
		2,
		3,
		4,
		5,
		6,
		7,
		8,
		9]
	},
	{
		"mesh":0,
		"name":"bootSole"
	},
	{
		"name":"eyes",
		"translation":[0.0,
		-0.020037446171045305,
		0.04232058674097061],
		"rotation":[0.08269441872835159,
		0.0,
		0.0,
		-0.9965749382972717],
		"scale":[1.0,
		1.0,
		1.0],
		"children":[10,
		11,
		12]
	},
	{
		"mesh":1,
		"name":"pCylinder2",
		"translation":[0.0,
		-0.015438622795045376,
		-0.007567147724330425],
		"rotation":[-0.0752028226852417,
		0.0,
		0.0,
		-0.997168242931366],
		"scale":[1.0,
		1.0,
		1.0]
	},
	{
		"name":"pCube2",
		"children":[13]
	},
	{
		"name":"pCube2.1",
		"children":[14]
	},
	{
		"mesh":2,
		"name":"orangeLegs"
	},
	{
		"mesh":3,
		"name":"pCube4",
		"translation":[0.0,
		0.0716242715716362,
		0.0],
		"rotation":[0.0,
		0.0,
		7.450580596923828e-9,
		-1.0],
		"scale":[6.48326301574707,
		6.48326301574707,
		6.48326301574707]
	},
	{
		"mesh":4,
		"name":"cowboyHat",
		"translation":[0.0,
		0.013301108963787556,
		0.0],
		"rotation":[0.0,
		0.0,
		0.0,
		-1.0],
		"scale":[1.0,
		1.0,
		1.0]
	},
	{
		"mesh":5,
		"name":"greenChar_geo_10",
		"translation":[0.0,
		0.013301108963787556,
		0.0],
		"rotation":[0.0,
		0.0,
		0.0,
		-1.0],
		"scale":[1.0,
		1.0,
		1.0]
	},
	{
		"mesh":6,
		"name":"eyes-blackMTL"
	},
	{
		"mesh":7,
		"name":"eyes-orangeMTL"
	},
	{
		"mesh":8,
		"name":"eyes-whiteMTL"
	},
	{
		"mesh":9,
		"name":"pCube2"
	},
	{
		"mesh":10,
		"name":"pCube2.1"
	}],
	"meshes":[{
		"name":"bootSole",
		"primitives":[{
			"attributes":{
				"POSITION":1,
				"NORMAL":2
			},
			"indices":0,
			"material":0
		}]
	},
	{
		"name":"pCylinder2",
		"primitives":[{
			"attributes":{
				"POSITION":4,
				"NORMAL":5,
				"TEXCOORD_0":6
			},
			"indices":3,
			"material":1
		}]
	},
	{
		"name":"orangeLegs",
		"primitives":[{
			"attributes":{
				"POSITION":8,
				"NORMAL":9
			},
			"indices":7,
			"material":2
		}]
	},
	{
		"name":"pCube4",
		"primitives":[{
			"attributes":{
				"POSITION":11,
				"NORMAL":12,
				"TEXCOORD_0":13
			},
			"indices":10,
			"material":2
		}]
	},
	{
		"name":"cowboyHat",
		"primitives":[{
			"attributes":{
				"POSITION":15,
				"NORMAL":16,
				"TEXCOORD_0":17
			},
			"indices":14,
			"material":3
		}]
	},
	{
		"name":"greenChar_geo_10",
		"primitives":[{
			"attributes":{
				"POSITION":19,
				"NORMAL":20,
				"TEXCOORD_0":21
			},
			"indices":18,
			"material":3
		}]
	},
	{
		"name":"eyes-blackMTL",
		"primitives":[{
			"attributes":{
				"POSITION":23,
				"NORMAL":24,
				"TEXCOORD_0":25
			},
			"indices":22,
			"material":1
		}]
	},
	{
		"name":"eyes-orangeMTL",
		"primitives":[{
			"attributes":{
				"POSITION":27,
				"NORMAL":28,
				"TEXCOORD_0":29
			},
			"indices":26,
			"material":4
		}]
	},
	{
		"name":"eyes-whiteMTL",
		"primitives":[{
			"attributes":{
				"POSITION":31,
				"NORMAL":32,
				"TEXCOORD_0":33
			},
			"indices":30,
			"material":3
		}]
	},
	{
		"name":"pCube2",
		"primitives":[{
			"attributes":{
				"POSITION":35,
				"NORMAL":36,
				"TEXCOORD_0":37
			},
			"indices":34,
			"material":2
		}]
	},
	{
		"name":"pCube2.1",
		"primitives":[{
			"attributes":{
				"POSITION":39,
				"NORMAL":40,
				"TEXCOORD_0":41
			},
			"indices":38,
			"material":2
		}]
	}],
	"accessors":[{
		"bufferView":0,
		"type":"SCALAR",
		"componentType":5123,
		"count":8604,
		"byteOffset":0,
		"min":[0],
		"max":[1479]
	},
	{
		"bufferView":1,
		"type":"VEC3",
		"componentType":5126,
		"count":1480,
		"byteOffset":0,
		"min":[-0.02622060477733612,
		0.014058900065720082,
		-0.009326908737421036],
		"max":[0.02622060477733612,
		0.021751591935753824,
		0.017823848873376848]
	},
	{
		"bufferView":1,
		"type":"VEC3",
		"componentType":5126,
		"count":1480,
		"byteOffset":12,
		"min":[-0.9991604089736939,
		-1.0,
		-0.9999954700469971],
		"max":[0.9991604089736939,
		0.9884738326072693,
		0.9996250867843628]
	},
	{
		"bufferView":2,
		"type":"SCALAR",
		"componentType":5123,
		"count":576,
		"byteOffset":0,
		"min":[0],
		"max":[153]
	},
	{
		"bufferView":3,
		"type":"VEC3",
		"componentType":5126,
		"count":154,
		"byteOffset":0,
		"min":[-0.004407401662319899,
		0.09338679909706116,
		0.022662144154310228],
		"max":[0.0044259880669415,
		0.09809568524360657,
		0.024626363068819047]
	},
	{
		"bufferView":3,
		"type":"VEC3",
		"componentType":5126,
		"count":154,
		"byteOffset":12,
		"min":[-0.9948816299438477,
		-0.9871702790260315,
		-0.3446343243122101],
		"max":[0.9960320591926575,
		0.996901273727417,
		0.998703122138977]
	},
	{
		"bufferView":3,
		"type":"VEC2",
		"componentType":5126,
		"count":154,
		"byteOffset":24,
		"min":[0.3437499701976776,
		0.15625],
		"max":[0.65625,
		0.8264791965484619]
	},
	{
		"bufferView":4,
		"type":"SCALAR",
		"componentType":5123,
		"count":1536,
		"byteOffset":0,
		"min":[0],
		"max":[287]
	},
	{
		"bufferView":5,
		"type":"VEC3",
		"componentType":5126,
		"count":288,
		"byteOffset":0,
		"min":[-0.028964806348085405,
		0.030886242166161538,
		-0.011949935927987099],
		"max":[0.028964806348085405,
		0.07494724541902542,
		0.012591940350830555]
	},
	{
		"bufferView":5,
		"type":"VEC3",
		"componentType":5126,
		"count":288,
		"byteOffset":12,
		"min":[-0.9977547526359558,
		-0.10381287336349487,
		-0.9976978898048401],
		"max":[0.9977547526359558,
		-0.06218883395195007,
		0.9978574514389038]
	},
	{
		"bufferView":6,
		"type":"SCALAR",
		"componentType":5123,
		"count":960,
		"byteOffset":0,
		"min":[0],
		"max":[196]
	},
	{
		"bufferView":7,
		"type":"VEC3",
		"componentType":5126,
		"count":197,
		"byteOffset":0,
		"min":[-0.005189815536141396,
		-0.004721652250736952,
		-0.004687500186264515],
		"max":[0.005189815536141396,
		0.0046707093715667728,
		0.004687500186264515]
	},
	{
		"bufferView":7,
		"type":"VEC3",
		"componentType":5126,
		"count":197,
		"byteOffset":12,
		"min":[-1.0,
		-1.0,
		-1.0],
		"max":[1.0,
		1.0,
		1.0]
	},
	{
		"bufferView":7,
		"type":"VEC2",
		"componentType":5126,
		"count":197,
		"byteOffset":24,
		"min":[0.125,
		0.0],
		"max":[0.875,
		1.0]
	},
	{
		"bufferView":8,
		"type":"SCALAR",
		"componentType":5123,
		"count":4935,
		"byteOffset":0,
		"min":[0],
		"max":[892]
	},
	{
		"bufferView":9,
		"type":"VEC3",
		"componentType":5126,
		"count":893,
		"byteOffset":0,
		"min":[-0.015867406502366067,
		0.08622625470161438,
		-0.01813024841248989],
		"max":[0.015867406502366067,
		0.09854219108819962,
		0.020211009308695794]
	},
	{
		"bufferView":9,
		"type":"VEC3",
		"componentType":5126,
		"count":893,
		"byteOffset":12,
		"min":[-0.9998944401741028,
		-1.0,
		-1.0],
		"max":[0.9999538064002991,
		0.9999842643737793,
		1.0]
	},
	{
		"bufferView":9,
		"type":"VEC2",
		"componentType":5126,
		"count":893,
		"byteOffset":24,
		"min":[0.125,
		0.0],
		"max":[0.875,
		1.0]
	},
	{
		"bufferView":10,
		"type":"SCALAR",
		"componentType":5123,
		"count":11664,
		"byteOffset":0,
		"min":[0],
		"max":[2041]
	},
	{
		"bufferView":11,
		"type":"VEC3",
		"componentType":5126,
		"count":2042,
		"byteOffset":0,
		"min":[-0.02714366465806961,
		0.0018920174334198237,
		-0.009547356516122818],
		"max":[0.02700335904955864,
		0.02454150840640068,
		0.016908328980207444]
	},
	{
		"bufferView":11,
		"type":"VEC3",
		"componentType":5126,
		"count":2042,
		"byteOffset":12,
		"min":[-0.999941885471344,
		-0.9995201230049133,
		-0.9995996952056885],
		"max":[0.9999151825904846,
		0.9997693300247192,
		0.9997984170913696]
	},
	{
		"bufferView":11,
		"type":"VEC2",
		"componentType":5126,
		"count":2042,
		"byteOffset":24,
		"min":[0.0,
		0.0],
		"max":[1.0,
		1.0]
	},
	{
		"bufferView":12,
		"type":"SCALAR",
		"componentType":5123,
		"count":840,
		"byteOffset":0,
		"min":[0],
		"max":[207]
	},
	{
		"bufferView":13,
		"type":"VEC3",
		"componentType":5126,
		"count":208,
		"byteOffset":0,
		"min":[-0.01374900247901678,
		0.10197648406028748,
		0.006519817281514406],
		"max":[0.01374900247901678,
		0.10891462117433548,
		0.00805693306028843]
	},
	{
		"bufferView":13,
		"type":"VEC3",
		"componentType":5126,
		"count":208,
		"byteOffset":12,
		"min":[-0.573897123336792,
		-0.5969496965408325,
		0.78990238904953],
		"max":[0.573897123336792,
		0.4422927796840668,
		0.9980301260948181]
	},
	{
		"bufferView":13,
		"type":"VEC2",
		"componentType":5126,
		"count":208,
		"byteOffset":24,
		"min":[0.0,
		0.0],
		"max":[1.0000001192092896,
		0.1999998688697815]
	},
	{
		"bufferView":14,
		"type":"SCALAR",
		"componentType":5123,
		"count":480,
		"byteOffset":0,
		"min":[0],
		"max":[125]
	},
	{
		"bufferView":15,
		"type":"VEC3",
		"componentType":5126,
		"count":126,
		"byteOffset":0,
		"min":[-0.014976255595684052,
		0.10078974813222885,
		0.005072462372481823],
		"max":[0.014976255595684052,
		0.11033926904201508,
		0.007285174913704395]
	},
	{
		"bufferView":15,
		"type":"VEC3",
		"componentType":5126,
		"count":126,
		"byteOffset":12,
		"min":[-0.7981744408607483,
		-0.8147916197776794,
		0.5617119669914246],
		"max":[0.7981744408607483,
		0.6970471143722534,
		0.8268078565597534]
	},
	{
		"bufferView":15,
		"type":"VEC2",
		"componentType":5126,
		"count":126,
		"byteOffset":24,
		"min":[0.0,
		0.1999998688697815],
		"max":[1.0000001192092896,
		0.2999998927116394]
	},
	{
		"bufferView":16,
		"type":"SCALAR",
		"componentType":5123,
		"count":3240,
		"byteOffset":0,
		"min":[0],
		"max":[627]
	},
	{
		"bufferView":17,
		"type":"VEC3",
		"componentType":5126,
		"count":628,
		"byteOffset":0,
		"min":[-0.01588968001306057,
		0.09996720403432846,
		-0.0037841082084923984],
		"max":[0.01588968001306057,
		0.11179396510124207,
		0.006125887855887413]
	},
	{
		"bufferView":17,
		"type":"VEC3",
		"componentType":5126,
		"count":628,
		"byteOffset":12,
		"min":[-0.9980176091194153,
		-0.9976902604103088,
		-0.9979631900787354],
		"max":[0.9980176091194153,
		0.9976707100868225,
		0.6125752329826355]
	},
	{
		"bufferView":17,
		"type":"VEC2",
		"componentType":5126,
		"count":628,
		"byteOffset":24,
		"min":[0.0,
		0.2999998927116394],
		"max":[1.0000001192092896,
		1.0]
	},
	{
		"bufferView":18,
		"type":"SCALAR",
		"componentType":5123,
		"count":1152,
		"byteOffset":0,
		"min":[0],
		"max":[646]
	},
	{
		"bufferView":19,
		"type":"VEC3",
		"componentType":5126,
		"count":647,
		"byteOffset":0,
		"min":[-0.05670800432562828,
		0.07613174617290497,
		-0.00799686461687088],
		"max":[-0.026573657989501954,
		0.11935384571552277,
		0.00799686461687088]
	},
	{
		"bufferView":19,
		"type":"VEC3",
		"componentType":5126,
		"count":647,
		"byteOffset":12,
		"min":[-0.9999374747276306,
		-0.9975057244300842,
		-0.9999547600746155],
		"max":[0.9995037913322449,
		1.0,
		0.9999985694885254]
	},
	{
		"bufferView":19,
		"type":"VEC2",
		"componentType":5126,
		"count":647,
		"byteOffset":24,
		"min":[0.0,
		0.0],
		"max":[1.0,
		1.0]
	},
	{
		"bufferView":20,
		"type":"SCALAR",
		"componentType":5123,
		"count":1152,
		"byteOffset":0,
		"min":[0],
		"max":[646]
	},
	{
		"bufferView":21,
		"type":"VEC3",
		"componentType":5126,
		"count":647,
		"byteOffset":0,
		"min":[0.026573657989501954,
		0.04563107714056969,
		-0.00799686461687088],
		"max":[0.054407138377428058,
		0.09209690988063812,
		0.00799686461687088]
	},
	{
		"bufferView":21,
		"type":"VEC3",
		"componentType":5126,
		"count":647,
		"byteOffset":12,
		"min":[-0.9977864027023315,
		-0.9958209991455078,
		-0.9999974966049194],
		"max":[0.9991110563278198,
		0.9841725826263428,
		0.9999470114707947]
	},
	{
		"bufferView":21,
		"type":"VEC2",
		"componentType":5126,
		"count":647,
		"byteOffset":24,
		"min":[0.0,
		0.0],
		"max":[1.0,
		1.0]
	}],
	"materials":[{
		"pbrMetallicRoughness":{
			"baseColorFactor":[0.8941176470588236,
			0.6980392156862745,
			0.13333333333333337,
			1.0],
			"metallicFactor":0.0,
			"roughnessFactor":0.5
		},
		"emissiveFactor":[0.0,
		0.0,
		0.0],
		"alphaMode":"OPAQUE",
		"name":"YELLOWmtl",
		"doubleSided":false
	},
	{
		"pbrMetallicRoughness":{
			"baseColorFactor":[0.1,
			0.1,
			0.1,
			1.0],
			"metallicFactor":0.0,
			"roughnessFactor":0.5
		},
		"emissiveFactor":[0.0,
		0.0,
		0.0],
		"alphaMode":"OPAQUE",
		"name":"blackMTL",
		"doubleSided":false
	},
	{
		"pbrMetallicRoughness":{
			"baseColorFactor":[0.28627450980392157,
			0.7254901960784314,
			0.49019607843137255,
			1.0],
			"metallicFactor":0.0,
			"roughnessFactor":0.5
		},
		"emissiveFactor":[0.0,
		0.0,
		0.0],
		"alphaMode":"OPAQUE",
		"name":"GREENMTL",
		"doubleSided":false
	},
	{
		"pbrMetallicRoughness":{
			"baseColorFactor":[1.0,
			1.0,
			1.0,
			1.0],
			"metallicFactor":0.0,
			"roughnessFactor":0.5
		},
		"emissiveFactor":[0.0,
		0.0,
		0.0],
		"alphaMode":"OPAQUE",
		"name":"whiteMTL",
		"doubleSided":false
	},
	{
		"pbrMetallicRoughness":{
			"baseColorFactor":[0.9215686274509803,
			0.38039215686274516,
			0.1411764705882353,
			1.0],
			"metallicFactor":0.0,
			"roughnessFactor":0.5
		},
		"emissiveFactor":[0.0,
		0.0,
		0.0],
		"alphaMode":"OPAQUE",
		"name":"orangeMTL",
		"doubleSided":false
	}]
}