{
	"buffers":[{
		"uri":"data:application/octet-stream;base64,",
		"byteLength":17400
	},
	{
		"uri":"data:application/octet-stream;base64,",
		"byteLength":23808
	},
	{
		"uri":"data:application/octet-stream;base64,",
		"byteLength":33420
	}],
	"asset":{
		"version":"2.0",
		"generator":"Autodesk Maya 2023"
	},
	"scenes":[{
		"nodes":[0]
	}],
	"bufferViews":[{
		"buffer":0,
		"byteOffset":0,
		"byteLength":5784,
		"target":34963
	},
	{
		"buffer":0,
		"byteOffset":5784,
		"byteLength":11616,
		"target":34962,
		"byteStride":24
	},
	{
		"buffer":1,
		"byteOffset":0,
		"byteLength":7920,
		"target":34963
	},
	{
		"buffer":1,
		"byteOffset":7920,
		"byteLength":15888,
		"target":34962,
		"byteStride":24
	},
	{
		"buffer":2,
		"byteOffset":0,
		"byteLength":11124,
		"target":34963
	},
	{
		"buffer":2,
		"byteOffset":11124,
		"byteLength":22296,
		"target":34962,
		"byteStride":24
	}],
	"nodes":[{
		"name":"Null",
		"translation":[0.0,
		0.0,
		0.0],
		"rotation":[0.7071067690849304,
		0.0,
		0.0,
		-0.7071067690849304],
		"scale":[1.0,
		1.0,
		1.0],
		"children":[1,
		2,
		3]
	},
	{
		"name":"goo02",
		"translation":[0.007532896474003792,
		-0.01615387760102749,
		-0.0000672122769174166],
		"rotation":[0.0,
		0.0,
		0.0,
		-1.0],
		"scale":[1.0,
		1.0,
		1.0],
		"children":[4]
	},
	{
		"name":"goo03",
		"translation":[0.007532896474003792,
		-0.01615387760102749,
		-0.00011401628580642864],
		"rotation":[0.0,
		0.0,
		0.0,
		-1.0],
		"scale":[1.0,
		1.0,
		1.0],
		"children":[5]
	},
	{
		"name":"goo",
		"translation":[0.007532896474003792,
		-0.01615387760102749,
		-0.0003264028928242624],
		"rotation":[0.0,
		0.0,
		0.0,
		-1.0],
		"scale":[1.0,
		1.0,
		1.0],
		"children":[6]
	},
	{
		"name":"PM3D_Sphere3D_2",
		"translation":[-0.0003301752149127424,
		0.013460421934723854,
		0.0],
		"rotation":[0.0,
		0.0,
		0.0,
		-1.0],
		"scale":[0.6630216240882874,
		0.7159100770950317,
		0.6929857730865479],
		"children":[7]
	},
	{
		"name":"PM3D_Sphere3D_3",
		"translation":[-0.01548093743622303,
		0.018359342589974405,
		-6.854534149169922e-7],
		"rotation":[0.0,
		0.0,
		0.0,
		-1.0],
		"scale":[0.6322254538536072,
		0.7049632668495178,
		0.7277970314025879],
		"children":[8]
	},
	{
		"name":"PM3D_Sphere3D_1",
		"translation":[-0.006976391654461622,
		0.02390163019299507,
		-0.00005474011049955152],
		"rotation":[0.0,
		0.0,
		0.0,
		-1.0],
		"scale":[0.9665513038635254,
		0.9687607884407044,
		0.9351524710655212],
		"children":[9]
	},
	{
		"mesh":0,
		"name":"PM3D_Sphere3D_2",
		"translation":[0.0,
		7.401487010056843e-19,
		-4.8670604462216908e-21],
		"rotation":[0.0,
		0.0,
		0.0,
		-1.0],
		"scale":[1.0,
		1.0,
		1.0]
	},
	{
		"mesh":1,
		"name":"PM3D_Sphere3D_3",
		"translation":[0.0,
		0.0,
		-5.1701620610758339e-22],
		"rotation":[-6.162975822039155e-33,
		0.0,
		0.0,
		-1.0],
		"scale":[1.0,
		1.0,
		1.0]
	},
	{
		"mesh":2,
		"name":"PM3D_Sphere3D_1",
		"translation":[0.0,
		-1.4802974020113686e-18,
		-4.4717942907765e-20],
		"rotation":[0.0,
		0.0,
		0.0,
		-1.0],
		"scale":[1.0,
		1.0,
		1.0]
	}],
	"meshes":[{
		"name":"PM3D_Sphere3D_2",
		"primitives":[{
			"attributes":{
				"POSITION":1,
				"NORMAL":2
			},
			"indices":0,
			"material":0
		}]
	},
	{
		"name":"PM3D_Sphere3D_3",
		"primitives":[{
			"attributes":{
				"POSITION":4,
				"NORMAL":5
			},
			"indices":3,
			"material":1
		}]
	},
	{
		"name":"PM3D_Sphere3D_1",
		"primitives":[{
			"attributes":{
				"POSITION":7,
				"NORMAL":8
			},
			"indices":6,
			"material":2
		}]
	}],
	"accessors":[{
		"bufferView":0,
		"type":"SCALAR",
		"componentType":5123,
		"count":2892,
		"byteOffset":0,
		"min":[0],
		"max":[483]
	},
	{
		"bufferView":1,
		"type":"VEC3",
		"componentType":5126,
		"count":484,
		"byteOffset":0,
		"min":[-0.005149404052644968,
		-0.00797541718930006,
		0.00009698940993985161],
		"max":[0.004962201230227947,
		0.005631330423057079,
		0.0010055041639134288]
	},
	{
		"bufferView":1,
		"type":"VEC3",
		"componentType":5126,
		"count":484,
		"byteOffset":12,
		"min":[-0.9896732568740845,
		-0.8998859524726868,
		-1.0],
		"max":[0.9992347359657288,
		0.9787343740463257,
		1.0]
	},
	{
		"bufferView":2,
		"type":"SCALAR",
		"componentType":5123,
		"count":3960,
		"byteOffset":0,
		"min":[0],
		"max":[661]
	},
	{
		"bufferView":3,
		"type":"VEC3",
		"componentType":5126,
		"count":662,
		"byteOffset":0,
		"min":[-0.0032945286948233845,
		-0.004695904906839132,
		0.00015760127280373126],
		"max":[0.0032945286948233845,
		0.004695904906839132,
		0.0006235606269910932]
	},
	{
		"bufferView":3,
		"type":"VEC3",
		"componentType":5126,
		"count":662,
		"byteOffset":12,
		"min":[-0.964645266532898,
		-0.9677911400794983,
		-1.0],
		"max":[0.9792683124542236,
		0.8873206377029419,
		1.0]
	},
	{
		"bufferView":4,
		"type":"SCALAR",
		"componentType":5123,
		"count":5562,
		"byteOffset":0,
		"min":[0],
		"max":[928]
	},
	{
		"bufferView":5,
		"type":"VEC3",
		"componentType":5126,
		"count":929,
		"byteOffset":0,
		"min":[-0.003412473713979125,
		-0.004776263143867254,
		0.00040757309761829674],
		"max":[0.003412473713979125,
		0.004776263143867254,
		0.0013371262466534973]
	},
	{
		"bufferView":5,
		"type":"VEC3",
		"componentType":5126,
		"count":929,
		"byteOffset":12,
		"min":[-0.9945389628410339,
		-0.984661340713501,
		-1.0],
		"max":[0.9880162477493286,
		0.9831716418266296,
		1.0]
	}],
	"materials":[{
		"pbrMetallicRoughness":{
			"baseColorFactor":[0.97,
			0.5432,
			0.6854666666666666,
			1.0],
			"metallicFactor":0.0,
			"roughnessFactor":0.5
		},
		"emissiveFactor":[0.0,
		0.0,
		0.0],
		"alphaMode":"OPAQUE",
		"name":"pinkMTL",
		"doubleSided":false
	},
	{
		"pbrMetallicRoughness":{
			"baseColorFactor":[0.3344000000000001,
			0.47989333333333347,
			0.88,
			1.0],
			"metallicFactor":0.0,
			"roughnessFactor":0.5
		},
		"emissiveFactor":[0.0,
		0.0,
		0.0],
		"alphaMode":"OPAQUE",
		"name":"blueCray",
		"doubleSided":false
	},
	{
		"pbrMetallicRoughness":{
			"baseColorFactor":[0.49936500000000008,
			0.81,
			0.33210000000000008,
			1.0],
			"metallicFactor":0.0,
			"roughnessFactor":0.5
		},
		"emissiveFactor":[0.0,
		0.0,
		0.0],
		"alphaMode":"OPAQUE",
		"name":"greenMTL",
		"doubleSided":false
	}]
}