{
	"asset":{
		"version":"2.0",
		"generator":""
	},
	"scenes":[{
		"nodes":[0]
	}],
	"nodes":[{
		"name":"ceiling_fan",
		"children":[1,
		2,
		3,
		4,
		5,
		6]
	},
	{
		"name":"setting",
		"mesh":0,
		"translation":[0.0,
		1.333345651626587,
		0.0],
		"rotation":[0.0,
		0.0,
		0.0,
		-1.0],
		"scale":[1.0,
		1.0,
		1.0]
	},
	{
		"name":"pole",
		"mesh":1,
		"translation":[0.0,
		1.0582704544067383,
		0.0],
		"rotation":[0.0,
		0.0,
		0.0,
		-1.0],
		"scale":[1.0,
		1.0,
		1.0]
	},
	{
		"name":"vent",
		"mesh":2,
		"translation":[0.0,
		0.8170692920684815,
		0.0],
		"rotation":[0.0,
		0.0,
		0.0,
		-1.0],
		"scale":[1.0,
		1.0,
		1.0]
	},
	{
		"name":"body",
		"mesh":3,
		"translation":[0.0,
		0.611195981502533,
		0.0],
		"rotation":[0.0,
		0.0,
		0.0,
		-1.0],
		"scale":[1.0,
		1.0,
		1.0]
	},
	{
		"name":"blades",
		"mesh":4,
		"translation":[0.0,
		0.37667933106422427,
		0.0],
		"rotation":[0.0,
		0.0,
		0.0,
		-1.0],
		"scale":[1.0,
		1.0,
		1.0],
		"children":[7,
		8,
		9,
		10,
		11]
	},
	{
		"name":"light",
		"mesh":5,
		"translation":[0.0,
		0.21613909304141999,
		0.0],
		"rotation":[0.0,
		0.0,
		0.0,
		-1.0],
		"scale":[1.0,
		1.0,
		1.0],
		"children":[12]
	},
	{
		"name":"blade_1",
		"mesh":6,
		"translation":[0.000054416657803812998,
		0.009981517679989338,
		0.961805522441864],
		"rotation":[0.0,
		0.0,
		0.0,
		-1.0],
		"scale":[1.0,
		1.0,
		1.0]
	},
	{
		"name":"blade_2",
		"mesh":7,
		"translation":[-0.9018294811248779,
		0.009981517679989338,
		0.3087591826915741],
		"rotation":[0.0,
		0.0,
		0.0,
		-1.0],
		"scale":[1.0,
		1.0,
		1.0]
	},
	{
		"name":"blade_3",
		"mesh":8,
		"translation":[-0.5561728477478027,
		0.009981517679989338,
		-0.7624189257621765],
		"rotation":[0.0,
		0.0,
		0.0,
		-1.0],
		"scale":[1.0,
		1.0,
		1.0]
	},
	{
		"name":"blade_4",
		"mesh":9,
		"translation":[0.5561263561248779,
		0.009981517679989338,
		-0.7624704837799072],
		"rotation":[0.0,
		0.0,
		0.0,
		-1.0],
		"scale":[1.0,
		1.0,
		1.0]
	},
	{
		"name":"blade_5",
		"mesh":10,
		"translation":[0.9018880128860474,
		0.009981517679989338,
		0.30870455503463747],
		"rotation":[0.0,
		0.0,
		0.0,
		-1.0],
		"scale":[1.0,
		1.0,
		1.0]
	},
	{
		"name":"bulb",
		"mesh":11,
		"translation":[0.0,
		-0.09661521762609482,
		0.0],
		"rotation":[0.0,
		0.0,
		0.0,
		-1.0],
		"scale":[1.0,
		1.0,
		1.0]
	}],
	"meshes":[{
		"name":"setting",
		"primitives":[{
			"attributes":{
				"POSITION":1,
				"NORMAL":2,
				"TEXCOORD_0":3
			},
			"indices":0
		}]
	},
	{
		"name":"pole",
		"primitives":[{
			"attributes":{
				"POSITION":5,
				"NORMAL":6,
				"TEXCOORD_0":7
			},
			"indices":4
		}]
	},
	{
		"name":"vent",
		"primitives":[{
			"attributes":{
				"POSITION":9,
				"NORMAL":10,
				"TEXCOORD_0":11
			},
			"indices":8
		}]
	},
	{
		"name":"body",
		"primitives":[{
			"attributes":{
				"POSITION":13,
				"NORMAL":14,
				"TEXCOORD_0":15
			},
			"indices":12
		}]
	},
	{
		"name":"blades",
		"primitives":[{
			"attributes":{
				"POSITION":17,
				"NORMAL":18,
				"TEXCOORD_0":19
			},
			"indices":16
		}]
	},
	{
		"name":"light",
		"primitives":[{
			"attributes":{
				"POSITION":21,
				"NORMAL":22,
				"TEXCOORD_0":23
			},
			"indices":20
		}]
	},
	{
		"name":"blade_1",
		"primitives":[{
			"attributes":{
				"POSITION":25,
				"NORMAL":26,
				"TEXCOORD_0":27
			},
			"indices":24
		}]
	},
	{
		"name":"blade_2",
		"primitives":[{
			"attributes":{
				"POSITION":29,
				"NORMAL":30,
				"TEXCOORD_0":31
			},
			"indices":28
		}]
	},
	{
		"name":"blade_3",
		"primitives":[{
			"attributes":{
				"POSITION":33,
				"NORMAL":34,
				"TEXCOORD_0":35
			},
			"indices":32
		}]
	},
	{
		"name":"blade_4",
		"primitives":[{
			"attributes":{
				"POSITION":37,
				"NORMAL":38,
				"TEXCOORD_0":39
			},
			"indices":36
		}]
	},
	{
		"name":"blade_5",
		"primitives":[{
			"attributes":{
				"POSITION":41,
				"NORMAL":42,
				"TEXCOORD_0":43
			},
			"indices":40
		}]
	},
	{
		"name":"bulb",
		"primitives":[{
			"attributes":{
				"POSITION":45,
				"NORMAL":46,
				"TEXCOORD_0":47
			},
			"indices":44
		}]
	}],
	"accessors":[{
		"bufferView":0,
		"type":"SCALAR",
		"componentType":5123,
		"count":672,
		"byteOffset":0,
		"min":[0],
		"max":[221]
	},
	{
		"bufferView":1,
		"type":"VEC3",
		"componentType":5126,
		"count":222,
		"byteOffset":0,
		"min":[-0.2487105429172516,
		-0.10564800351858139,
		-0.2487105429172516],
		"max":[0.2487105429172516,
		0.10564800351858139,
		0.2487105429172516]
	},
	{
		"bufferView":1,
		"type":"VEC3",
		"componentType":5126,
		"count":222,
		"byteOffset":12,
		"min":[-0.9238885045051575,
		-1.0,
		-0.9238885045051575],
		"max":[0.9238885045051575,
		1.0,
		0.9238885045051575]
	},
	{
		"bufferView":1,
		"type":"VEC2",
		"componentType":5126,
		"count":222,
		"byteOffset":24,
		"min":[0.03948061540722847,
		0.0487438440322876],
		"max":[0.3739030659198761,
		0.42242109775543215]
	},
	{
		"bufferView":2,
		"type":"SCALAR",
		"componentType":5123,
		"count":288,
		"byteOffset":0,
		"min":[0],
		"max":[115]
	},
	{
		"bufferView":3,
		"type":"VEC3",
		"componentType":5126,
		"count":116,
		"byteOffset":0,
		"min":[-0.05673513561487198,
		-0.3252454400062561,
		-0.05673513561487198],
		"max":[0.05673513561487198,
		0.3252454400062561,
		0.05673513561487198]
	},
	{
		"bufferView":3,
		"type":"VEC3",
		"componentType":5126,
		"count":116,
		"byteOffset":12,
		"min":[-0.9238885045051575,
		-1.0,
		-0.9238885045051575],
		"max":[0.9238885045051575,
		1.0,
		0.9238885045051575]
	},
	{
		"bufferView":3,
		"type":"VEC2",
		"componentType":5126,
		"count":116,
		"byteOffset":24,
		"min":[0.04150140658020973,
		0.07281503081321717],
		"max":[0.11067178100347519,
		0.23006987571716309]
	},
	{
		"bufferView":4,
		"type":"SCALAR",
		"componentType":5123,
		"count":4968,
		"byteOffset":0,
		"min":[0],
		"max":[1353]
	},
	{
		"bufferView":5,
		"type":"VEC3",
		"componentType":5126,
		"count":1354,
		"byteOffset":0,
		"min":[-0.24372313916683198,
		-0.06921546906232834,
		-0.24372313916683198],
		"max":[0.24372313916683198,
		0.06921546906232834,
		0.24372313916683198]
	},
	{
		"bufferView":5,
		"type":"VEC3",
		"componentType":5126,
		"count":1354,
		"byteOffset":12,
		"min":[-1.0,
		-1.0,
		-1.0],
		"max":[1.0,
		1.0,
		1.0]
	},
	{
		"bufferView":5,
		"type":"VEC2",
		"componentType":5126,
		"count":1354,
		"byteOffset":24,
		"min":[0.05024741590023041,
		0.06301701068878174],
		"max":[0.32440245151519778,
		0.34690964221954348]
	},
	{
		"bufferView":6,
		"type":"SCALAR",
		"componentType":5123,
		"count":336,
		"byteOffset":0,
		"min":[0],
		"max":[113]
	},
	{
		"bufferView":7,
		"type":"VEC3",
		"componentType":5126,
		"count":114,
		"byteOffset":0,
		"min":[-0.3598984479904175,
		-0.13682228326797486,
		-0.3598984479904175],
		"max":[0.3598984479904175,
		0.13682228326797486,
		0.3598984479904175]
	},
	{
		"bufferView":7,
		"type":"VEC3",
		"componentType":5126,
		"count":114,
		"byteOffset":12,
		"min":[-0.9021689295768738,
		-1.0,
		-0.9021689295768738],
		"max":[0.9021689295768738,
		1.0,
		0.9021689295768738]
	},
	{
		"bufferView":7,
		"type":"VEC2",
		"componentType":5126,
		"count":114,
		"byteOffset":24,
		"min":[0.012982101179659367,
		0.018152594566345216],
		"max":[0.6999743580818176,
		0.9904106855392456]
	},
	{
		"bufferView":8,
		"type":"SCALAR",
		"componentType":5123,
		"count":288,
		"byteOffset":0,
		"min":[0],
		"max":[97]
	},
	{
		"bufferView":9,
		"type":"VEC3",
		"componentType":5126,
		"count":98,
		"byteOffset":0,
		"min":[-0.3598984479904175,
		-0.09769435971975327,
		-0.3598984479904175],
		"max":[0.3598984479904175,
		0.09769435971975327,
		0.3598984479904175]
	},
	{
		"bufferView":9,
		"type":"VEC3",
		"componentType":5126,
		"count":98,
		"byteOffset":12,
		"min":[-0.9238885045051575,
		-1.0,
		-0.9238885045051575],
		"max":[0.9238885045051575,
		1.0,
		0.9238885045051575]
	},
	{
		"bufferView":9,
		"type":"VEC2",
		"componentType":5126,
		"count":98,
		"byteOffset":24,
		"min":[0.00390625,
		0.11277037858963013],
		"max":[0.8825097680091858,
		0.99609375]
	},
	{
		"bufferView":10,
		"type":"SCALAR",
		"componentType":5123,
		"count":528,
		"byteOffset":0,
		"min":[0],
		"max":[188]
	},
	{
		"bufferView":11,
		"type":"VEC3",
		"componentType":5126,
		"count":189,
		"byteOffset":0,
		"min":[-0.3598984479904175,
		-0.06284589320421219,
		-0.3598984479904175],
		"max":[0.3598984479904175,
		0.06284589320421219,
		0.3598984479904175]
	},
	{
		"bufferView":11,
		"type":"VEC3",
		"componentType":5126,
		"count":189,
		"byteOffset":12,
		"min":[-0.9238885045051575,
		-1.0,
		-0.9238885045051575],
		"max":[0.9238885045051575,
		1.0,
		0.9238885045051575]
	},
	{
		"bufferView":11,
		"type":"VEC2",
		"componentType":5126,
		"count":189,
		"byteOffset":24,
		"min":[0.00390625,
		0.06846052408218384],
		"max":[0.9323044419288635,
		0.7366875410079956]
	},
	{
		"bufferView":12,
		"type":"SCALAR",
		"componentType":5123,
		"count":1068,
		"byteOffset":0,
		"min":[0],
		"max":[291]
	},
	{
		"bufferView":13,
		"type":"VEC3",
		"componentType":5126,
		"count":292,
		"byteOffset":0,
		"min":[-0.2507963180541992,
		-0.08809938281774521,
		-0.6998921632766724],
		"max":[0.2507963180541992,
		0.08809938281774521,
		0.6998921632766724]
	},
	{
		"bufferView":13,
		"type":"VEC3",
		"componentType":5126,
		"count":292,
		"byteOffset":12,
		"min":[-0.996133029460907,
		-1.0,
		-0.9984264373779297],
		"max":[0.9988131523132324,
		0.9943391680717468,
		0.9985377788543701]
	},
	{
		"bufferView":13,
		"type":"VEC2",
		"componentType":5126,
		"count":292,
		"byteOffset":24,
		"min":[0.07215242087841034,
		0.24286162853240968],
		"max":[0.7876510620117188,
		0.8810532093048096]
	},
	{
		"bufferView":14,
		"type":"SCALAR",
		"componentType":5123,
		"count":1068,
		"byteOffset":0,
		"min":[0],
		"max":[291]
	},
	{
		"bufferView":15,
		"type":"VEC3",
		"componentType":5126,
		"count":292,
		"byteOffset":0,
		"min":[-0.6980928182601929,
		-0.08809938281774521,
		-0.3760921359062195],
		"max":[0.6980928182601929,
		0.08809938281774521,
		0.3760921359062195]
	},
	{
		"bufferView":15,
		"type":"VEC3",
		"componentType":5126,
		"count":292,
		"byteOffset":12,
		"min":[-0.99786776304245,
		-1.0,
		-0.9421258568763733],
		"max":[0.9999513030052185,
		0.9943416714668274,
		0.9881988167762756]
	},
	{
		"bufferView":15,
		"type":"VEC2",
		"componentType":5126,
		"count":292,
		"byteOffset":24,
		"min":[0.00390625,
		0.212111234664917],
		"max":[0.6993778347969055,
		0.99609375]
	},
	{
		"bufferView":16,
		"type":"SCALAR",
		"componentType":5123,
		"count":1068,
		"byteOffset":0,
		"min":[0],
		"max":[291]
	},
	{
		"bufferView":17,
		"type":"VEC3",
		"componentType":5126,
		"count":292,
		"byteOffset":0,
		"min":[-0.5268704891204834,
		-0.08809938281774521,
		-0.6393495798110962],
		"max":[0.5268704891204834,
		0.08809938281774521,
		0.6393495798110962]
	},
	{
		"bufferView":17,
		"type":"VEC3",
		"componentType":5126,
		"count":292,
		"byteOffset":12,
		"min":[-0.9984990954399109,
		-1.0,
		-0.9995977878570557],
		"max":[0.8837489485740662,
		0.9943417906761169,
		0.9853081107139587]
	},
	{
		"bufferView":17,
		"type":"VEC2",
		"componentType":5126,
		"count":292,
		"byteOffset":24,
		"min":[0.3349001705646515,
		0.16552776098251344],
		"max":[0.9956294894218445,
		0.8997565507888794]
	},
	{
		"bufferView":18,
		"type":"SCALAR",
		"componentType":5123,
		"count":1068,
		"byteOffset":0,
		"min":[0],
		"max":[291]
	},
	{
		"bufferView":19,
		"type":"VEC3",
		"componentType":5126,
		"count":292,
		"byteOffset":0,
		"min":[-0.5268239974975586,
		-0.08809938281774521,
		-0.6394011378288269],
		"max":[0.5268239974975586,
		0.08809938281774521,
		0.6394011378288269]
	},
	{
		"bufferView":19,
		"type":"VEC3",
		"componentType":5126,
		"count":292,
		"byteOffset":12,
		"min":[-0.9372369647026062,
		-1.0,
		-0.9995977878570557],
		"max":[0.9760010242462158,
		0.9943417906761169,
		0.9849199652671814]
	},
	{
		"bufferView":19,
		"type":"VEC2",
		"componentType":5126,
		"count":292,
		"byteOffset":24,
		"min":[0.12674935162067414,
		0.29773861169815066],
		"max":[0.9237012267112732,
		0.99609375]
	},
	{
		"bufferView":20,
		"type":"SCALAR",
		"componentType":5123,
		"count":1068,
		"byteOffset":0,
		"min":[0],
		"max":[291]
	},
	{
		"bufferView":21,
		"type":"VEC3",
		"componentType":5126,
		"count":292,
		"byteOffset":0,
		"min":[-0.6980884671211243,
		-0.08809938281774521,
		-0.37603750824928286],
		"max":[0.6980884671211243,
		0.08809938281774521,
		0.37603750824928286]
	},
	{
		"bufferView":21,
		"type":"VEC3",
		"componentType":5126,
		"count":292,
		"byteOffset":12,
		"min":[-0.9998933672904968,
		-1.0,
		-0.9610303640365601],
		"max":[0.99786776304245,
		0.9943416714668274,
		0.9948811531066895]
	},
	{
		"bufferView":21,
		"type":"VEC2",
		"componentType":5126,
		"count":292,
		"byteOffset":24,
		"min":[0.1881709098815918,
		0.29911983013153078],
		"max":[0.9546817541122437,
		0.8858548402786255]
	},
	{
		"bufferView":22,
		"type":"SCALAR",
		"componentType":5123,
		"count":720,
		"byteOffset":0,
		"min":[0],
		"max":[217]
	},
	{
		"bufferView":23,
		"type":"VEC3",
		"componentType":5126,
		"count":218,
		"byteOffset":0,
		"min":[-0.3075203001499176,
		-0.10679245740175247,
		-0.3075203001499176],
		"max":[0.3075203001499176,
		0.10679245740175247,
		0.3075203001499176]
	},
	{
		"bufferView":23,
		"type":"VEC3",
		"componentType":5126,
		"count":218,
		"byteOffset":12,
		"min":[-0.9238885045051575,
		-1.0,
		-0.9238885045051575],
		"max":[0.9238885045051575,
		1.0,
		0.9238885045051575]
	},
	{
		"bufferView":23,
		"type":"VEC2",
		"componentType":5126,
		"count":218,
		"byteOffset":24,
		"min":[0.08921396732330322,
		0.017477750778198243],
		"max":[0.9176955223083496,
		0.99609375]
	}],
	"bufferViews":[{
		"buffer":0,
		"byteOffset":0,
		"byteLength":1344,
		"target":34963
	},
	{
		"buffer":0,
		"byteOffset":1344,
		"byteLength":7104,
		"target":34962,
		"byteStride":32
	},
	{
		"buffer":1,
		"byteOffset":0,
		"byteLength":576,
		"target":34963
	},
	{
		"buffer":1,
		"byteOffset":576,
		"byteLength":3712,
		"target":34962,
		"byteStride":32
	},
	{
		"buffer":2,
		"byteOffset":0,
		"byteLength":9936,
		"target":34963
	},
	{
		"buffer":2,
		"byteOffset":9936,
		"byteLength":43328,
		"target":34962,
		"byteStride":32
	},
	{
		"buffer":3,
		"byteOffset":0,
		"byteLength":672,
		"target":34963
	},
	{
		"buffer":3,
		"byteOffset":672,
		"byteLength":3648,
		"target":34962,
		"byteStride":32
	},
	{
		"buffer":4,
		"byteOffset":0,
		"byteLength":576,
		"target":34963
	},
	{
		"buffer":4,
		"byteOffset":576,
		"byteLength":3136,
		"target":34962,
		"byteStride":32
	},
	{
		"buffer":5,
		"byteOffset":0,
		"byteLength":1056,
		"target":34963
	},
	{
		"buffer":5,
		"byteOffset":1056,
		"byteLength":6048,
		"target":34962,
		"byteStride":32
	},
	{
		"buffer":6,
		"byteOffset":0,
		"byteLength":2136,
		"target":34963
	},
	{
		"buffer":6,
		"byteOffset":2136,
		"byteLength":9344,
		"target":34962,
		"byteStride":32
	},
	{
		"buffer":7,
		"byteOffset":0,
		"byteLength":2136,
		"target":34963
	},
	{
		"buffer":7,
		"byteOffset":2136,
		"byteLength":9344,
		"target":34962,
		"byteStride":32
	},
	{
		"buffer":8,
		"byteOffset":0,
		"byteLength":2136,
		"target":34963
	},
	{
		"buffer":8,
		"byteOffset":2136,
		"byteLength":9344,
		"target":34962,
		"byteStride":32
	},
	{
		"buffer":9,
		"byteOffset":0,
		"byteLength":2136,
		"target":34963
	},
	{
		"buffer":9,
		"byteOffset":2136,
		"byteLength":9344,
		"target":34962,
		"byteStride":32
	},
	{
		"buffer":10,
		"byteOffset":0,
		"byteLength":2136,
		"target":34963
	},
	{
		"buffer":10,
		"byteOffset":2136,
		"byteLength":9344,
		"target":34962,
		"byteStride":32
	},
	{
		"buffer":11,
		"byteOffset":0,
		"byteLength":1440,
		"target":34963
	},
	{
		"buffer":11,
		"byteOffset":1440,
		"byteLength":6976,
		"target":34962,
		"byteStride":32
	}],
	"buffers":[{
		"uri":"data:application/octet-stream;base64,",
		"byteLength":8448
	},
	{
		"uri":"data:application/octet-stream;base64,",
		"byteLength":4288
	},
	{
		"uri":"data:application/octet-stream;base64,",
		"byteLength":53264
	},
	{
		"uri":"data:application/octet-stream;base64,",
		"byteLength":4320
	},
	{
		"uri":"data:application/octet-stream;base64,",
		"byteLength":3712
	},
	{
		"uri":"data:application/octet-stream;base64,",
		"byteLength":7104
	},
	{
		"uri":"data:application/octet-stream;base64,",
		"byteLength":11480
	},
	{
		"uri":"data:application/octet-stream;base64,",
		"byteLength":11480
	},
	{
		"uri":"data:application/octet-stream;base64,",
		"byteLength":11480
	},
	{
		"uri":"data:application/octet-stream;base64,",
		"byteLength":11480
	},
	{
		"uri":"data:application/octet-stream;base64,",
		"byteLength":11480
	},
	{
		"uri":"data:application/octet-stream;base64,",
		"byteLength":8416
	}]
}