{
	"accessors":[{
		"bufferView":0,
		"type":"SCALAR",
		"componentType":5126,
		"count":49,
		"byteOffset":0,
		"min":[0.0],
		"max":[2.0]
	},
	{
		"bufferView":0,
		"type":"VEC4",
		"componentType":5126,
		"count":49,
		"byteOffset":196,
		"min":[-0.034557756036520007,
		-0.05297137424349785,
		-0.00028523182845674455,
		-0.9987236857414246],
		"max":[0.026478851214051248,
		0.04237748309969902,
		0.06401202827692032,
		0.9992802739143372]
	},
	{
		"bufferView":1,
		"type":"SCALAR",
		"componentType":5123,
		"count":228,
		"byteOffset":0,
		"min":[0],
		"max":[101]
	},
	{
		"bufferView":2,
		"type":"VEC3",
		"componentType":5126,
		"count":102,
		"byteOffset":0,
		"min":[-0.0016666668234393,
		-0.0016666667070239783,
		-0.0016666667070239783],
		"max":[0.0016666668234393,
		0.0046000005677342419,
		0.0016666667070239783]
	},
	{
		"bufferView":2,
		"type":"VEC3",
		"componentType":5126,
		"count":102,
		"byteOffset":12,
		"min":[-0.9996851086616516,
		-1.0,
		-1.0],
		"max":[0.9996851086616516,
		1.0,
		1.0]
	},
	{
		"bufferView":2,
		"type":"VEC2",
		"componentType":5126,
		"count":102,
		"byteOffset":24,
		"min":[0.125,
		0.0],
		"max":[0.875,
		1.0]
	},
	{
		"bufferView":3,
		"type":"SCALAR",
		"componentType":5123,
		"count":3792,
		"byteOffset":0,
		"min":[0],
		"max":[706]
	},
	{
		"bufferView":4,
		"type":"VEC3",
		"componentType":5126,
		"count":707,
		"byteOffset":0,
		"min":[-0.0011984437005594373,
		-0.001182899926789105,
		-0.0004828560340683907],
		"max":[0.0011984437005594373,
		0.001182899926789105,
		0.0004828560340683907]
	},
	{
		"bufferView":4,
		"type":"VEC3",
		"componentType":5126,
		"count":707,
		"byteOffset":12,
		"min":[-0.9957532286643982,
		-0.9998616576194763,
		-0.9999713897705078],
		"max":[0.9957532286643982,
		1.0,
		0.999970555305481]
	},
	{
		"bufferView":4,
		"type":"VEC2",
		"componentType":5126,
		"count":707,
		"byteOffset":24,
		"min":[0.125,
		0.25444626808166506],
		"max":[0.875,
		0.9955536127090454]
	},
	{
		"bufferView":5,
		"type":"SCALAR",
		"componentType":5126,
		"count":49,
		"byteOffset":0,
		"min":[0.0],
		"max":[2.0]
	},
	{
		"bufferView":5,
		"type":"VEC3",
		"componentType":5126,
		"count":49,
		"byteOffset":196,
		"min":[0.9001843929290772,
		0.9001843929290772,
		0.9001843929290772],
		"max":[0.9998156428337097,
		0.9998156428337097,
		0.9998156428337097]
	},
	{
		"bufferView":6,
		"type":"SCALAR",
		"componentType":5123,
		"count":3792,
		"byteOffset":0,
		"min":[0],
		"max":[706]
	},
	{
		"bufferView":7,
		"type":"VEC3",
		"componentType":5126,
		"count":707,
		"byteOffset":0,
		"min":[-0.0011984437005594373,
		-0.001182899926789105,
		-0.0004828560340683907],
		"max":[0.0011984437005594373,
		0.001182899926789105,
		0.0004828560340683907]
	},
	{
		"bufferView":7,
		"type":"VEC3",
		"componentType":5126,
		"count":707,
		"byteOffset":12,
		"min":[-0.9957532286643982,
		-0.9998616576194763,
		-0.9999713897705078],
		"max":[0.9957532286643982,
		1.0,
		0.999970555305481]
	},
	{
		"bufferView":7,
		"type":"VEC2",
		"componentType":5126,
		"count":707,
		"byteOffset":24,
		"min":[0.125,
		0.25444626808166506],
		"max":[0.875,
		0.9955536127090454]
	},
	{
		"bufferView":8,
		"type":"SCALAR",
		"componentType":5126,
		"count":49,
		"byteOffset":0,
		"min":[0.0],
		"max":[2.0]
	},
	{
		"bufferView":8,
		"type":"VEC3",
		"componentType":5126,
		"count":49,
		"byteOffset":196,
		"min":[0.9301156997680664,
		0.9301156997680664,
		0.9301156997680664],
		"max":[1.0702844858169556,
		1.0702844858169556,
		1.0702844858169556]
	},
	{
		"bufferView":9,
		"type":"SCALAR",
		"componentType":5123,
		"count":3792,
		"byteOffset":0,
		"min":[0],
		"max":[706]
	},
	{
		"bufferView":10,
		"type":"VEC3",
		"componentType":5126,
		"count":707,
		"byteOffset":0,
		"min":[-0.0011984437005594373,
		-0.001182899926789105,
		-0.0004828560340683907],
		"max":[0.0011984437005594373,
		0.001182899926789105,
		0.0004828560340683907]
	},
	{
		"bufferView":10,
		"type":"VEC3",
		"componentType":5126,
		"count":707,
		"byteOffset":12,
		"min":[-0.9957532286643982,
		-0.9998616576194763,
		-0.9999713897705078],
		"max":[0.9957532286643982,
		1.0,
		0.999970555305481]
	},
	{
		"bufferView":10,
		"type":"VEC2",
		"componentType":5126,
		"count":707,
		"byteOffset":24,
		"min":[0.125,
		0.25444626808166506],
		"max":[0.875,
		0.9955536127090454]
	},
	{
		"bufferView":11,
		"type":"SCALAR",
		"componentType":5126,
		"count":49,
		"byteOffset":0,
		"min":[0.0],
		"max":[2.0]
	},
	{
		"bufferView":11,
		"type":"VEC3",
		"componentType":5126,
		"count":49,
		"byteOffset":196,
		"min":[0.580451250076294,
		0.580451250076294,
		0.580451250076294],
		"max":[0.6417888402938843,
		0.6417888402938843,
		0.6417888402938843]
	},
	{
		"bufferView":12,
		"type":"SCALAR",
		"componentType":5123,
		"count":1908,
		"byteOffset":0,
		"min":[0],
		"max":[401]
	},
	{
		"bufferView":13,
		"type":"VEC3",
		"componentType":5126,
		"count":402,
		"byteOffset":0,
		"min":[-0.004250571131706238,
		-0.008830132894217968,
		-0.000978653086349368],
		"max":[0.004250567872077227,
		-0.0003289933956693858,
		0.000978653086349368]
	},
	{
		"bufferView":13,
		"type":"VEC3",
		"componentType":5126,
		"count":402,
		"byteOffset":12,
		"min":[-0.9455585479736328,
		-0.9455585479736328,
		-0.9998927712440491],
		"max":[0.9455585479736328,
		0.9455585479736328,
		1.0]
	},
	{
		"bufferView":13,
		"type":"VEC2",
		"componentType":5126,
		"count":402,
		"byteOffset":24,
		"min":[0.3437499403953552,
		0.0],
		"max":[0.65625,
		1.0]
	},
	{
		"bufferView":14,
		"type":"SCALAR",
		"componentType":5123,
		"count":120,
		"byteOffset":0,
		"min":[0],
		"max":[43]
	},
	{
		"bufferView":15,
		"type":"VEC3",
		"componentType":5126,
		"count":44,
		"byteOffset":0,
		"min":[-0.0012894818792119623,
		-0.005877306684851646,
		0.0004501279618125409],
		"max":[0.0012894821120426059,
		-0.0035947414580732586,
		0.0004501280200202018]
	},
	{
		"bufferView":15,
		"type":"VEC3",
		"componentType":5126,
		"count":44,
		"byteOffset":12,
		"min":[0.0,
		0.0,
		1.0],
		"max":[0.0,
		0.0,
		1.0]
	},
	{
		"bufferView":15,
		"type":"VEC2",
		"componentType":5126,
		"count":44,
		"byteOffset":24,
		"min":[0.34375,
		0.007647395133972168],
		"max":[0.65625,
		0.30485260486602785]
	},
	{
		"bufferView":16,
		"type":"SCALAR",
		"componentType":5123,
		"count":1908,
		"byteOffset":0,
		"min":[0],
		"max":[401]
	},
	{
		"bufferView":17,
		"type":"VEC3",
		"componentType":5126,
		"count":402,
		"byteOffset":0,
		"min":[-0.004250571131706238,
		-0.008830132894217968,
		-0.000978653086349368],
		"max":[0.004250567872077227,
		-0.0003289933956693858,
		0.000978653086349368]
	},
	{
		"bufferView":17,
		"type":"VEC3",
		"componentType":5126,
		"count":402,
		"byteOffset":12,
		"min":[-0.9455585479736328,
		-0.9455585479736328,
		-0.9998927712440491],
		"max":[0.9455585479736328,
		0.9455585479736328,
		1.0]
	},
	{
		"bufferView":17,
		"type":"VEC2",
		"componentType":5126,
		"count":402,
		"byteOffset":24,
		"min":[0.3437499403953552,
		0.0],
		"max":[0.65625,
		1.0]
	},
	{
		"bufferView":18,
		"type":"SCALAR",
		"componentType":5123,
		"count":120,
		"byteOffset":0,
		"min":[0],
		"max":[43]
	},
	{
		"bufferView":19,
		"type":"VEC3",
		"componentType":5126,
		"count":44,
		"byteOffset":0,
		"min":[-0.0012894818792119623,
		-0.005877306684851646,
		0.0004501279618125409],
		"max":[0.0012894821120426059,
		-0.0035947414580732586,
		0.0004501280200202018]
	},
	{
		"bufferView":19,
		"type":"VEC3",
		"componentType":5126,
		"count":44,
		"byteOffset":12,
		"min":[0.0,
		0.0,
		1.0],
		"max":[0.0,
		0.0,
		1.0]
	},
	{
		"bufferView":19,
		"type":"VEC2",
		"componentType":5126,
		"count":44,
		"byteOffset":24,
		"min":[0.34375,
		0.007647395133972168],
		"max":[0.65625,
		0.30485260486602785]
	},
	{
		"bufferView":20,
		"type":"SCALAR",
		"componentType":5123,
		"count":1908,
		"byteOffset":0,
		"min":[0],
		"max":[401]
	},
	{
		"bufferView":21,
		"type":"VEC3",
		"componentType":5126,
		"count":402,
		"byteOffset":0,
		"min":[-0.004250571131706238,
		-0.008830132894217968,
		-0.000978653086349368],
		"max":[0.004250567872077227,
		-0.0003289933956693858,
		0.000978653086349368]
	},
	{
		"bufferView":21,
		"type":"VEC3",
		"componentType":5126,
		"count":402,
		"byteOffset":12,
		"min":[-0.9455585479736328,
		-0.9455585479736328,
		-0.9998927712440491],
		"max":[0.9455585479736328,
		0.9455585479736328,
		1.0]
	},
	{
		"bufferView":21,
		"type":"VEC2",
		"componentType":5126,
		"count":402,
		"byteOffset":24,
		"min":[0.3437499403953552,
		0.0],
		"max":[0.65625,
		1.0]
	},
	{
		"bufferView":22,
		"type":"SCALAR",
		"componentType":5123,
		"count":120,
		"byteOffset":0,
		"min":[0],
		"max":[43]
	},
	{
		"bufferView":23,
		"type":"VEC3",
		"componentType":5126,
		"count":44,
		"byteOffset":0,
		"min":[-0.0012894818792119623,
		-0.005877306684851646,
		0.0004501279618125409],
		"max":[0.0012894821120426059,
		-0.0035947414580732586,
		0.0004501280200202018]
	},
	{
		"bufferView":23,
		"type":"VEC3",
		"componentType":5126,
		"count":44,
		"byteOffset":12,
		"min":[0.0,
		0.0,
		1.0],
		"max":[0.0,
		0.0,
		1.0]
	},
	{
		"bufferView":23,
		"type":"VEC2",
		"componentType":5126,
		"count":44,
		"byteOffset":24,
		"min":[0.34375,
		0.007647395133972168],
		"max":[0.65625,
		0.30485260486602785]
	}],
	"asset":{
		"version":"2.0",
		"generator":"Autodesk Maya 2023"
	},
	"scenes":[{
		"nodes":[0,
		1]
	}],
	"nodes":[{
		"name":"crownGRP",
		"translation":[0.0,
		0.009787377901375294,
		0.0],
		"rotation":[0.0,
		0.0,
		0.06401202827692032,
		0.9979491233825684],
		"scale":[1.0,
		1.0,
		1.0],
		"children":[2,
		3,
		4,
		5]
	},
	{
		"name":"Null",
		"translation":[0.0010312455706298352,
		0.009981110692024231,
		-0.0005858598742634058],
		"rotation":[0.0,
		-0.3826834261417389,
		0.0,
		0.9238795042037964],
		"scale":[1.0,
		1.0,
		1.0],
		"children":[6,
		7,
		8]
	},
	{
		"name":"crownGeo",
		"mesh":0,
		"translation":[-3.7007435050284217e-19,
		-0.0005702672642655671,
		0.0],
		"rotation":[0.0,
		0.0,
		0.0,
		-1.0],
		"scale":[3.0288889408111574,
		1.0,
		0.14669303596019746]
	},
	{
		"name":"button2",
		"translation":[-0.003587918123230338,
		0.0010304285679012538,
		0.0002969091583508998],
		"rotation":[0.0,
		0.0,
		0.0,
		-1.0],
		"scale":[0.2539730668067932,
		0.2539730668067932,
		0.2539730668067932],
		"children":[9,
		10]
	},
	{
		"name":"button3",
		"translation":[-0.00002464101453369949,
		0.0010304285679012538,
		0.0002969091583508998],
		"rotation":[0.0,
		0.0,
		0.0,
		-1.0],
		"scale":[0.2539730668067932,
		0.2539730668067932,
		0.2539730668067932],
		"children":[11,
		12]
	},
	{
		"name":"button4",
		"translation":[0.0036689997650682928,
		0.0010304285679012538,
		0.0002969091583508998],
		"rotation":[0.0,
		0.0,
		0.0,
		-1.0],
		"scale":[0.2539730668067932,
		0.2539730668067932,
		0.2539730668067932],
		"children":[13,
		14]
	},
	{
		"name":"heart",
		"mesh":1,
		"translation":[0.0016106596449390054,
		0.005688103847205639,
		-0.0048834895715117458],
		"rotation":[0.0,
		-0.3826834261417389,
		0.0,
		-0.9238795042037964],
		"scale":[0.9647999405860901,
		0.9647999405860901,
		0.9647999405860901]
	},
	{
		"name":"heart_2",
		"mesh":2,
		"translation":[-0.006266546901315451,
		0.0044931452721357349,
		0.006518923677504063],
		"rotation":[0.0,
		-0.3826834261417389,
		0.0,
		-0.9238795042037964],
		"scale":[0.9546273350715637,
		0.9546273350715637,
		0.9546273350715637]
	},
	{
		"name":"heart_3",
		"mesh":3,
		"translation":[0.005168544594198465,
		-0.0034542479552328588,
		-0.0021480913273990156],
		"rotation":[0.0,
		-0.3826834261417389,
		0.0,
		-0.9238795042037964],
		"scale":[0.5864729881286621,
		0.5864729881286621,
		0.5864729881286621]
	},
	{
		"name":"button",
		"mesh":4
	},
	{
		"name":"holes",
		"mesh":5
	},
	{
		"name":"button_2",
		"mesh":6
	},
	{
		"name":"holes_2",
		"mesh":7
	},
	{
		"name":"button_3",
		"mesh":8
	},
	{
		"name":"holes_3",
		"mesh":9
	}],
	"meshes":[{
		"name":"crownGeo",
		"primitives":[{
			"attributes":{
				"POSITION":3,
				"NORMAL":4,
				"TEXCOORD_0":5
			},
			"indices":2,
			"material":0
		}]
	},
	{
		"name":"heart",
		"primitives":[{
			"attributes":{
				"POSITION":7,
				"NORMAL":8,
				"TEXCOORD_0":9
			},
			"indices":6,
			"material":1
		}]
	},
	{
		"name":"heart_2",
		"primitives":[{
			"attributes":{
				"POSITION":13,
				"NORMAL":14,
				"TEXCOORD_0":15
			},
			"indices":12,
			"material":1
		}]
	},
	{
		"name":"heart_3",
		"primitives":[{
			"attributes":{
				"POSITION":19,
				"NORMAL":20,
				"TEXCOORD_0":21
			},
			"indices":18,
			"material":1
		}]
	},
	{
		"name":"button",
		"primitives":[{
			"attributes":{
				"POSITION":25,
				"NORMAL":26,
				"TEXCOORD_0":27
			},
			"indices":24,
			"material":2
		}]
	},
	{
		"name":"holes",
		"primitives":[{
			"attributes":{
				"POSITION":29,
				"NORMAL":30,
				"TEXCOORD_0":31
			},
			"indices":28,
			"material":3
		}]
	},
	{
		"name":"button_2",
		"primitives":[{
			"attributes":{
				"POSITION":33,
				"NORMAL":34,
				"TEXCOORD_0":35
			},
			"indices":32,
			"material":4
		}]
	},
	{
		"name":"holes_2",
		"primitives":[{
			"attributes":{
				"POSITION":37,
				"NORMAL":38,
				"TEXCOORD_0":39
			},
			"indices":36,
			"material":5
		}]
	},
	{
		"name":"button_3",
		"primitives":[{
			"attributes":{
				"POSITION":41,
				"NORMAL":42,
				"TEXCOORD_0":43
			},
			"indices":40,
			"material":6
		}]
	},
	{
		"name":"holes_3",
		"primitives":[{
			"attributes":{
				"POSITION":45,
				"NORMAL":46,
				"TEXCOORD_0":47
			},
			"indices":44,
			"material":7
		}]
	}],
	"bufferViews":[{
		"buffer":0,
		"byteOffset":0,
		"byteLength":980
	},
	{
		"buffer":1,
		"byteOffset":0,
		"byteLength":456,
		"target":34963
	},
	{
		"buffer":1,
		"byteOffset":456,
		"byteLength":3264,
		"target":34962,
		"byteStride":32
	},
	{
		"buffer":2,
		"byteOffset":0,
		"byteLength":7584,
		"target":34963
	},
	{
		"buffer":2,
		"byteOffset":7584,
		"byteLength":22624,
		"target":34962,
		"byteStride":32
	},
	{
		"buffer":3,
		"byteOffset":0,
		"byteLength":784
	},
	{
		"buffer":4,
		"byteOffset":0,
		"byteLength":7584,
		"target":34963
	},
	{
		"buffer":4,
		"byteOffset":7584,
		"byteLength":22624,
		"target":34962,
		"byteStride":32
	},
	{
		"buffer":5,
		"byteOffset":0,
		"byteLength":784
	},
	{
		"buffer":6,
		"byteOffset":0,
		"byteLength":7584,
		"target":34963
	},
	{
		"buffer":6,
		"byteOffset":7584,
		"byteLength":22624,
		"target":34962,
		"byteStride":32
	},
	{
		"buffer":7,
		"byteOffset":0,
		"byteLength":784
	},
	{
		"buffer":8,
		"byteOffset":0,
		"byteLength":3816,
		"target":34963
	},
	{
		"buffer":8,
		"byteOffset":3816,
		"byteLength":12864,
		"target":34962,
		"byteStride":32
	},
	{
		"buffer":9,
		"byteOffset":0,
		"byteLength":240,
		"target":34963
	},
	{
		"buffer":9,
		"byteOffset":240,
		"byteLength":1408,
		"target":34962,
		"byteStride":32
	},
	{
		"buffer":10,
		"byteOffset":0,
		"byteLength":3816,
		"target":34963
	},
	{
		"buffer":10,
		"byteOffset":3816,
		"byteLength":12864,
		"target":34962,
		"byteStride":32
	},
	{
		"buffer":11,
		"byteOffset":0,
		"byteLength":240,
		"target":34963
	},
	{
		"buffer":11,
		"byteOffset":240,
		"byteLength":1408,
		"target":34962,
		"byteStride":32
	},
	{
		"buffer":12,
		"byteOffset":0,
		"byteLength":3816,
		"target":34963
	},
	{
		"buffer":12,
		"byteOffset":3816,
		"byteLength":12864,
		"target":34962,
		"byteStride":32
	},
	{
		"buffer":13,
		"byteOffset":0,
		"byteLength":240,
		"target":34963
	},
	{
		"buffer":13,
		"byteOffset":240,
		"byteLength":1408,
		"target":34962,
		"byteStride":32
	}],
	"buffers":[{
		"uri":"data:application/octet-stream;base64,",
		"byteLength":980
	},
	{
		"uri":"data:application/octet-stream;base64,",
		"byteLength":3720
	},
	{
		"uri":"data:application/octet-stream;base64,",
		"byteLength":30208
	},
	{
		"uri":"data:application/octet-stream;base64,",
		"byteLength":784
	},
	{
		"uri":"data:application/octet-stream;base64,",
		"byteLength":30208
	},
	{
		"uri":"data:application/octet-stream;base64,",
		"byteLength":784
	},
	{
		"uri":"data:application/octet-stream;base64,",
		"byteLength":30208
	},
	{
		"uri":"data:application/octet-stream;base64,",
		"byteLength":784
	},
	{
		"uri":"data:application/octet-stream;base64,",
		"byteLength":16680
	},
	{
		"uri":"data:application/octet-stream;base64,",
		"byteLength":1648
	},
	{
		"uri":"data:application/octet-stream;base64,",
		"byteLength":16680
	},
	{
		"uri":"data:application/octet-stream;base64,",
		"byteLength":1648
	},
	{
		"uri":"data:application/octet-stream;base64,",
		"byteLength":16680
	},
	{
		"uri":"data:application/octet-stream;base64,",
		"byteLength":1648
	}],
	"materials":[{
		"pbrMetallicRoughness":{
			"baseColorFactor":[0.8470588235294118,
			0.6509803921568628,
			0.15294117647058826,
			1.0],
			"metallicFactor":0.0,
			"roughnessFactor":0.5
		},
		"name":"crownMTL",
		"emissiveFactor":[0.0,
		0.0,
		0.0],
		"alphaMode":"OPAQUE",
		"doubleSided":false
	},
	{
		"pbrMetallicRoughness":{
			"baseColorFactor":[0.9490196078431372,
			0.4666666666666667,
			0.44313725490196079,
			1.0],
			"metallicFactor":0.0,
			"roughnessFactor":0.5
		},
		"name":"heartMTL",
		"emissiveFactor":[0.0,
		0.0,
		0.0],
		"alphaMode":"OPAQUE",
		"doubleSided":false
	},
	{
		"pbrMetallicRoughness":{
			"baseColorFactor":[0.2374809160305344,
			0.3212977099236642,
			0.61,
			1.0],
			"metallicFactor":0.0,
			"roughnessFactor":0.5
		},
		"name":"blueMTL",
		"emissiveFactor":[0.0,
		0.0,
		0.0],
		"alphaMode":"OPAQUE",
		"doubleSided":false
	},
	{
		"pbrMetallicRoughness":{
			"baseColorFactor":[0.12156862745098042,
			0.15686274509803928,
			0.39215686274509806,
			1.0],
			"metallicFactor":0.0,
			"roughnessFactor":0.5
		},
		"name":"darkNavyMTL",
		"emissiveFactor":[0.0,
		0.0,
		0.0],
		"alphaMode":"OPAQUE",
		"doubleSided":false
	},
	{
		"pbrMetallicRoughness":{
			"baseColorFactor":[0.9372549019607843,
			0.48627450980392158,
			0.5098039215686273,
			1.0],
			"metallicFactor":0.0,
			"roughnessFactor":0.5
		},
		"name":"pigMTL",
		"emissiveFactor":[0.0,
		0.0,
		0.0],
		"alphaMode":"OPAQUE",
		"doubleSided":false
	},
	{
		"pbrMetallicRoughness":{
			"baseColorFactor":[0.9058823529411765,
			0.21568627450980397,
			0.2784313725490196,
			1.0],
			"metallicFactor":0.0,
			"roughnessFactor":0.5
		},
		"name":"PinkMTL",
		"emissiveFactor":[0.0,
		0.0,
		0.0],
		"alphaMode":"OPAQUE",
		"doubleSided":false
	},
	{
		"pbrMetallicRoughness":{
			"baseColorFactor":[0.003921568627451001,
			0.6196078431372549,
			0.3333333333333333,
			1.0],
			"metallicFactor":0.0,
			"roughnessFactor":0.5
		},
		"name":"greenMTL",
		"emissiveFactor":[0.0,
		0.0,
		0.0],
		"alphaMode":"OPAQUE",
		"doubleSided":false
	},
	{
		"pbrMetallicRoughness":{
			"baseColorFactor":[0.003921568627450963,
			0.38823529411764709,
			0.2588235294117648,
			1.0],
			"metallicFactor":0.0,
			"roughnessFactor":0.5
		},
		"name":"darkNavyMTL.1",
		"emissiveFactor":[0.0,
		0.0,
		0.0],
		"alphaMode":"OPAQUE",
		"doubleSided":false
	}],
	"animations":[{
		"samplers":[{
			"input":0,
			"interpolation":"LINEAR",
			"output":1
		},
		{
			"input":10,
			"interpolation":"LINEAR",
			"output":11
		},
		{
			"input":16,
			"interpolation":"LINEAR",
			"output":17
		},
		{
			"input":22,
			"interpolation":"LINEAR",
			"output":23
		}],
		"channels":[{
			"sampler":0,
			"target":{
				"node":0,
				"path":"rotation"
			}
		},
		{
			"sampler":1,
			"target":{
				"node":6,
				"path":"scale"
			}
		},
		{
			"sampler":2,
			"target":{
				"node":7,
				"path":"scale"
			}
		},
		{
			"sampler":3,
			"target":{
				"node":8,
				"path":"scale"
			}
		}]
	}]
}