{
	"accessors":[{
		"bufferView":0,
		"type":"SCALAR",
		"componentType":5126,
		"count":73,
		"byteOffset":0,
		"min":[0.0],
		"max":[3.0]
	},
	{
		"bufferView":0,
		"type":"VEC3",
		"componentType":5126,
		"count":73,
		"byteOffset":292,
		"min":[0.3400000035762787,
		1.0,
		1.0],
		"max":[1.0,
		1.0,
		1.0]
	},
	{
		"bufferView":1,
		"type":"SCALAR",
		"componentType":5126,
		"count":73,
		"byteOffset":0,
		"min":[0.0],
		"max":[3.0]
	},
	{
		"bufferView":1,
		"type":"VEC3",
		"componentType":5126,
		"count":73,
		"byteOffset":292,
		"min":[0.0,
		-0.00010263900185236707,
		0.0],
		"max":[0.004325071815401316,
		0.0,
		0.0]
	},
	{
		"bufferView":2,
		"type":"SCALAR",
		"componentType":5126,
		"count":73,
		"byteOffset":0,
		"min":[0.0],
		"max":[3.0]
	},
	{
		"bufferView":2,
		"type":"VEC4",
		"componentType":5126,
		"count":73,
		"byteOffset":292,
		"min":[0.0,
		0.0,
		0.0,
		-1.0],
		"max":[0.0,
		0.0,
		0.9999999403953552,
		0.2164396196603775]
	},
	{
		"bufferView":3,
		"type":"SCALAR",
		"componentType":5123,
		"count":72,
		"byteOffset":0,
		"min":[0],
		"max":[29]
	},
	{
		"bufferView":4,
		"type":"VEC3",
		"componentType":5126,
		"count":30,
		"byteOffset":0,
		"min":[0.0001664949959376827,
		-0.0017590959323570133,
		-0.0003395648382138461],
		"max":[0.0058971187099814419,
		-0.0015641103964298964,
		-0.00014946796000003815]
	},
	{
		"bufferView":4,
		"type":"VEC3",
		"componentType":5126,
		"count":30,
		"byteOffset":12,
		"min":[-1.0,
		-0.9978750348091126,
		-0.9583502411842346],
		"max":[1.0,
		0.9978750348091126,
		0.9873635172843933]
	},
	{
		"bufferView":4,
		"type":"VEC2",
		"componentType":5126,
		"count":30,
		"byteOffset":24,
		"min":[0.0,
		0.0],
		"max":[1.0,
		1.0]
	},
	{
		"bufferView":5,
		"type":"SCALAR",
		"componentType":5123,
		"count":672,
		"byteOffset":0,
		"min":[0],
		"max":[150]
	},
	{
		"bufferView":6,
		"type":"VEC3",
		"componentType":5126,
		"count":151,
		"byteOffset":0,
		"min":[-0.0013333333190530539,
		-0.0013333333190530539,
		-0.0013333333190530539],
		"max":[0.0013333333190530539,
		0.0013333333190530539,
		0.0013333333190530539]
	},
	{
		"bufferView":6,
		"type":"VEC3",
		"componentType":5126,
		"count":151,
		"byteOffset":12,
		"min":[-1.0,
		-1.0,
		-1.0],
		"max":[1.0,
		1.0,
		1.0]
	},
	{
		"bufferView":6,
		"type":"VEC2",
		"componentType":5126,
		"count":151,
		"byteOffset":24,
		"min":[0.0,
		0.0],
		"max":[1.0,
		1.0]
	},
	{
		"bufferView":7,
		"type":"SCALAR",
		"componentType":5123,
		"count":18930,
		"byteOffset":0,
		"min":[0],
		"max":[3621]
	},
	{
		"bufferView":8,
		"type":"VEC3",
		"componentType":5126,
		"count":3622,
		"byteOffset":0,
		"min":[-0.0016135778278112412,
		-0.00170575687661767,
		-0.0015638472978025675],
		"max":[0.0016985913971439005,
		-0.00030989275546744466,
		0.0016792397946119309]
	},
	{
		"bufferView":8,
		"type":"VEC3",
		"componentType":5126,
		"count":3622,
		"byteOffset":12,
		"min":[-0.998924732208252,
		-0.9999853372573853,
		-0.9992372393608093],
		"max":[0.9996513724327087,
		0.9913656115531921,
		0.9988183379173279]
	},
	{
		"bufferView":8,
		"type":"VEC2",
		"componentType":5126,
		"count":3622,
		"byteOffset":24,
		"min":[0.0,
		0.0],
		"max":[1.0,
		1.0]
	},
	{
		"bufferView":9,
		"type":"SCALAR",
		"componentType":5123,
		"count":18930,
		"byteOffset":0,
		"min":[0],
		"max":[3621]
	},
	{
		"bufferView":10,
		"type":"VEC3",
		"componentType":5126,
		"count":3622,
		"byteOffset":0,
		"min":[-0.0017519628163427115,
		-0.0014892298495396972,
		-0.0017589591443538666],
		"max":[0.0017551000928506256,
		0.0015449428465217352,
		0.00175309251062572]
	},
	{
		"bufferView":10,
		"type":"VEC3",
		"componentType":5126,
		"count":3622,
		"byteOffset":12,
		"min":[-0.9999391436576843,
		-0.9999896287918091,
		-0.9981460571289063],
		"max":[0.9962483048439026,
		0.9949833750724793,
		0.9981036186218262]
	},
	{
		"bufferView":10,
		"type":"VEC2",
		"componentType":5126,
		"count":3622,
		"byteOffset":24,
		"min":[0.0,
		0.0],
		"max":[1.0,
		1.0]
	},
	{
		"bufferView":11,
		"type":"SCALAR",
		"componentType":5123,
		"count":18930,
		"byteOffset":0,
		"min":[0],
		"max":[3621]
	},
	{
		"bufferView":12,
		"type":"VEC3",
		"componentType":5126,
		"count":3622,
		"byteOffset":0,
		"min":[-0.001756221754476428,
		-0.0017000868683680893,
		-0.0017614731332287193],
		"max":[0.0017480634851381183,
		0.0016992388991639019,
		0.0017581330612301827]
	},
	{
		"bufferView":12,
		"type":"VEC3",
		"componentType":5126,
		"count":3622,
		"byteOffset":12,
		"min":[-0.9991565942764282,
		-0.9993036389350891,
		-0.9996166229248047],
		"max":[0.9994829297065735,
		0.9999860525131226,
		0.9995608329772949]
	},
	{
		"bufferView":12,
		"type":"VEC2",
		"componentType":5126,
		"count":3622,
		"byteOffset":24,
		"min":[0.0,
		0.0],
		"max":[1.0,
		1.0]
	},
	{
		"bufferView":13,
		"type":"SCALAR",
		"componentType":5123,
		"count":18930,
		"byteOffset":0,
		"min":[0],
		"max":[3621]
	},
	{
		"bufferView":14,
		"type":"VEC3",
		"componentType":5126,
		"count":3622,
		"byteOffset":0,
		"min":[-0.001652789767831564,
		0.00022039479517843574,
		-0.001689828117378056],
		"max":[0.0017325181979686022,
		0.0016730420757085085,
		0.001605343190021813]
	},
	{
		"bufferView":14,
		"type":"VEC3",
		"componentType":5126,
		"count":3622,
		"byteOffset":12,
		"min":[-0.9954548478126526,
		-0.9999902248382568,
		-0.9960238337516785],
		"max":[0.9948282837867737,
		0.9831097722053528,
		0.9978691935539246]
	},
	{
		"bufferView":14,
		"type":"VEC2",
		"componentType":5126,
		"count":3622,
		"byteOffset":24,
		"min":[0.0,
		0.0],
		"max":[1.0,
		1.0]
	},
	{
		"bufferView":15,
		"type":"SCALAR",
		"componentType":5123,
		"count":18930,
		"byteOffset":0,
		"min":[0],
		"max":[3621]
	},
	{
		"bufferView":16,
		"type":"VEC3",
		"componentType":5126,
		"count":3622,
		"byteOffset":0,
		"min":[-0.001742444816045463,
		-0.0014431654708459974,
		-0.0017590810311958194],
		"max":[0.001758551225066185,
		0.0015136784641072155,
		0.0017506869044154883]
	},
	{
		"bufferView":16,
		"type":"VEC3",
		"componentType":5126,
		"count":3622,
		"byteOffset":12,
		"min":[-0.9982938766479492,
		-0.999916136264801,
		-0.9984658360481262],
		"max":[0.9989120960235596,
		0.9999544024467468,
		0.9997355341911316]
	},
	{
		"bufferView":16,
		"type":"VEC2",
		"componentType":5126,
		"count":3622,
		"byteOffset":24,
		"min":[0.0,
		0.0],
		"max":[1.0,
		1.0]
	},
	{
		"bufferView":17,
		"type":"SCALAR",
		"componentType":5123,
		"count":18930,
		"byteOffset":0,
		"min":[0],
		"max":[3621]
	},
	{
		"bufferView":18,
		"type":"VEC3",
		"componentType":5126,
		"count":3622,
		"byteOffset":0,
		"min":[-0.0016138171777129174,
		-0.001704181544482708,
		-0.001565044978633523],
		"max":[0.0016969824209809304,
		-0.0003028141218237579,
		0.0016798473661765457]
	},
	{
		"bufferView":18,
		"type":"VEC3",
		"componentType":5126,
		"count":3622,
		"byteOffset":12,
		"min":[-0.9991685152053833,
		-0.9999819993972778,
		-0.9993487596511841],
		"max":[0.9996219873428345,
		0.9924643635749817,
		0.9988322854042053]
	},
	{
		"bufferView":18,
		"type":"VEC2",
		"componentType":5126,
		"count":3622,
		"byteOffset":24,
		"min":[0.0,
		0.0],
		"max":[1.0,
		1.0]
	}],
	"asset":{
		"version":"2.0",
		"generator":"Autodesk Maya 2023"
	},
	"scenes":[{
		"nodes":[0]
	}],
	"nodes":[{
		"name":"Null",
		"translation":[-0.002234384650364518,
		0.0,
		0.0],
		"rotation":[0.0,
		0.0,
		0.0,
		-1.0],
		"scale":[1.0,
		1.0,
		1.0],
		"children":[1,
		2]
	},
	{
		"name":"Sweep_2",
		"translation":[0.0059061371721327309,
		0.0,
		0.00021382764680311084],
		"rotation":[0.0,
		0.0,
		0.0,
		-1.0],
		"scale":[1.0,
		1.0,
		1.0],
		"children":[3]
	},
	{
		"name":"Null_2",
		"translation":[0.0,
		0.0,
		0.0],
		"rotation":[0.0,
		0.0,
		0.0,
		-1.0],
		"scale":[1.0,
		1.0,
		1.0],
		"children":[4,
		5]
	},
	{
		"name":"Sweep_2_2",
		"mesh":0,
		"translation":[-0.0059061371721327309,
		0.0,
		0.0],
		"rotation":[0.0,
		0.0,
		0.0,
		-1.0],
		"scale":[1.0,
		1.0,
		1.0]
	},
	{
		"name":"Sphere",
		"mesh":1
	},
	{
		"name":"Cloner",
		"translation":[0.0,
		0.0,
		0.0],
		"rotation":[0.24215593934059144,
		0.7391030788421631,
		-0.20385386049747468,
		0.5945845246315002],
		"scale":[1.0,
		1.0,
		1.0],
		"children":[6,
		7,
		8,
		9,
		10,
		11]
	},
	{
		"name":"Sweep_2_0",
		"mesh":2,
		"translation":[9.109119700587079e-20,
		4.878561003234305e-21,
		6.339729107179129e-21],
		"rotation":[0.002871811157092452,
		-0.0007000331534072757,
		0.23682467639446259,
		0.9715479016304016],
		"scale":[1.0,
		1.0,
		1.0]
	},
	{
		"name":"Sweep_4_1",
		"mesh":3,
		"translation":[9.109119700587079e-20,
		4.878561003234305e-21,
		6.339729107179129e-21],
		"rotation":[-0.00011478340456960723,
		-0.000020322660930105486,
		0.17434076964855195,
		-0.9846853613853455],
		"scale":[0.9600000381469727,
		0.9600000381469727,
		0.9600000381469727]
	},
	{
		"name":"Sweep_3_2",
		"mesh":4,
		"translation":[9.109119700587079e-20,
		4.878561003234305e-21,
		6.339729107179129e-21],
		"rotation":[-0.008067937567830086,
		-0.002352270996198058,
		0.2798938751220703,
		-0.9599941372871399],
		"scale":[0.919999897480011,
		0.919999897480011,
		0.919999897480011]
	},
	{
		"name":"Sweep_1_3",
		"mesh":5,
		"translation":[9.109119700587079e-20,
		4.878561003234305e-21,
		6.339729107179129e-21],
		"rotation":[0.00837452057749033,
		-0.0010679175611585379,
		0.126490980386734,
		0.9919318556785584],
		"scale":[0.8800000548362732,
		0.8800000548362732,
		0.8800000548362732]
	},
	{
		"name":"Sweep_4",
		"mesh":6,
		"translation":[9.109119700587079e-20,
		4.878561003234305e-21,
		6.339729107179129e-21],
		"rotation":[-0.001060038572177291,
		-0.00022125044779386371,
		0.204316183924675,
		-0.9789043664932251],
		"scale":[0.8399999737739563,
		0.8399999737739563,
		0.8399999737739563]
	},
	{
		"name":"Sweep_2_5",
		"mesh":7,
		"translation":[9.109119700587079e-20,
		4.878561003234305e-21,
		6.339729107179129e-21],
		"rotation":[-0.0071305702440440659,
		-0.00015363063721451908,
		0.021539803594350816,
		-0.9997425675392151],
		"scale":[0.800000011920929,
		0.800000011920929,
		0.800000011920929]
	}],
	"meshes":[{
		"name":"Sweep_2_2",
		"primitives":[{
			"attributes":{
				"POSITION":7,
				"NORMAL":8,
				"TEXCOORD_0":9
			},
			"indices":6,
			"material":0
		}]
	},
	{
		"name":"Sphere",
		"primitives":[{
			"attributes":{
				"POSITION":11,
				"NORMAL":12,
				"TEXCOORD_0":13
			},
			"indices":10,
			"material":0
		}]
	},
	{
		"name":"Sweep_2_0",
		"primitives":[{
			"attributes":{
				"POSITION":15,
				"NORMAL":16,
				"TEXCOORD_0":17
			},
			"indices":14,
			"material":0
		}]
	},
	{
		"name":"Sweep_4_1",
		"primitives":[{
			"attributes":{
				"POSITION":19,
				"NORMAL":20,
				"TEXCOORD_0":21
			},
			"indices":18,
			"material":0
		}]
	},
	{
		"name":"Sweep_3_2",
		"primitives":[{
			"attributes":{
				"POSITION":23,
				"NORMAL":24,
				"TEXCOORD_0":25
			},
			"indices":22,
			"material":0
		}]
	},
	{
		"name":"Sweep_1_3",
		"primitives":[{
			"attributes":{
				"POSITION":27,
				"NORMAL":28,
				"TEXCOORD_0":29
			},
			"indices":26,
			"material":0
		}]
	},
	{
		"name":"Sweep_4",
		"primitives":[{
			"attributes":{
				"POSITION":31,
				"NORMAL":32,
				"TEXCOORD_0":33
			},
			"indices":30,
			"material":0
		}]
	},
	{
		"name":"Sweep_2_5",
		"primitives":[{
			"attributes":{
				"POSITION":35,
				"NORMAL":36,
				"TEXCOORD_0":37
			},
			"indices":34,
			"material":0
		}]
	}],
	"bufferViews":[{
		"buffer":0,
		"byteOffset":0,
		"byteLength":1168
	},
	{
		"buffer":1,
		"byteOffset":0,
		"byteLength":1168
	},
	{
		"buffer":1,
		"byteOffset":1168,
		"byteLength":1460
	},
	{
		"buffer":2,
		"byteOffset":0,
		"byteLength":144,
		"target":34963
	},
	{
		"buffer":2,
		"byteOffset":144,
		"byteLength":960,
		"target":34962,
		"byteStride":32
	},
	{
		"buffer":3,
		"byteOffset":0,
		"byteLength":1344,
		"target":34963
	},
	{
		"buffer":3,
		"byteOffset":1344,
		"byteLength":4832,
		"target":34962,
		"byteStride":32
	},
	{
		"buffer":4,
		"byteOffset":0,
		"byteLength":37860,
		"target":34963
	},
	{
		"buffer":4,
		"byteOffset":37860,
		"byteLength":115904,
		"target":34962,
		"byteStride":32
	},
	{
		"buffer":5,
		"byteOffset":0,
		"byteLength":37860,
		"target":34963
	},
	{
		"buffer":5,
		"byteOffset":37860,
		"byteLength":115904,
		"target":34962,
		"byteStride":32
	},
	{
		"buffer":6,
		"byteOffset":0,
		"byteLength":37860,
		"target":34963
	},
	{
		"buffer":6,
		"byteOffset":37860,
		"byteLength":115904,
		"target":34962,
		"byteStride":32
	},
	{
		"buffer":7,
		"byteOffset":0,
		"byteLength":37860,
		"target":34963
	},
	{
		"buffer":7,
		"byteOffset":37860,
		"byteLength":115904,
		"target":34962,
		"byteStride":32
	},
	{
		"buffer":8,
		"byteOffset":0,
		"byteLength":37860,
		"target":34963
	},
	{
		"buffer":8,
		"byteOffset":37860,
		"byteLength":115904,
		"target":34962,
		"byteStride":32
	},
	{
		"buffer":9,
		"byteOffset":0,
		"byteLength":37860,
		"target":34963
	},
	{
		"buffer":9,
		"byteOffset":37860,
		"byteLength":115904,
		"target":34962,
		"byteStride":32
	}],
	"buffers":[{
		"uri":"data:application/octet-stream;base64,",
		"byteLength":1168
	},
	{
		"uri":"data:application/octet-stream;base64,",
		"byteLength":2628
	},
	{
		"uri":"data:application/octet-stream;base64,",
		"byteLength":1104
	},
	{
		"uri":"data:application/octet-stream;base64,",
		"byteLength":6176
	},
	{
		"uri":"data:application/octet-stream;base64,",
		"byteLength":153764
	},
	{
		"uri":"data:application/octet-stream;base64,",
		"byteLength":153764
	},
	{
		"uri":"data:application/octet-stream;base64,",
		"byteLength":153764
	},
	{
		"uri":"data:application/octet-stream;base64,",
		"byteLength":153764
	},
	{
		"uri":"data:application/octet-stream;base64,",
		"byteLength":153764
	},
	{
		"uri":"data:application/octet-stream;base64,",
		"byteLength":153764
	}],
	"materials":[{
		"pbrMetallicRoughness":{
			"baseColorFactor":[0.28140000000000006,
			0.37283529411764679,
			0.67,
			1.0],
			"metallicFactor":0.0,
			"roughnessFactor":0.5
		},
		"name":"blueMTL",
		"emissiveFactor":[0.0,
		0.0,
		0.0],
		"alphaMode":"OPAQUE",
		"doubleSided":false
	}],
	"animations":[{
		"samplers":[{
			"input":0,
			"interpolation":"LINEAR",
			"output":1
		},
		{
			"input":2,
			"interpolation":"LINEAR",
			"output":3
		},
		{
			"input":4,
			"interpolation":"LINEAR",
			"output":5
		}],
		"channels":[{
			"sampler":0,
			"target":{
				"node":1,
				"path":"scale"
			}
		},
		{
			"sampler":1,
			"target":{
				"node":2,
				"path":"translation"
			}
		},
		{
			"sampler":2,
			"target":{
				"node":2,
				"path":"rotation"
			}
		}]
	}]
}