{
	"buffers":[{
		"uri":"data:application/octet-stream;base64,",
		"byteLength":6260
	},
	{
		"uri":"data:application/octet-stream;base64,",
		"byteLength":6260
	},
	{
		"uri":"data:application/octet-stream;base64,",
		"byteLength":6260
	},
	{
		"uri":"data:application/octet-stream;base64,",
		"byteLength":23328
	},
	{
		"uri":"data:application/octet-stream;base64,",
		"byteLength":18720
	},
	{
		"uri":"data:application/octet-stream;base64,",
		"byteLength":8536
	},
	{
		"uri":"data:application/octet-stream;base64,",
		"byteLength":1584
	},
	{
		"uri":"data:application/octet-stream;base64,",
		"byteLength":21440
	},
	{
		"uri":"data:application/octet-stream;base64,",
		"byteLength":6080
	},
	{
		"uri":"data:application/octet-stream;base64,",
		"byteLength":23008
	},
	{
		"uri":"data:application/octet-stream;base64,",
		"byteLength":23008
	},
	{
		"uri":"data:application/octet-stream;base64,",
		"byteLength":8336
	},
	{
		"uri":"data:application/octet-stream;base64,",
		"byteLength":4992
	},
	{
		"uri":"data:application/octet-stream;base64,",
		"byteLength":26576
	}],
	"asset":{
		"version":"2.0",
		"generator":"Autodesk Maya 2023"
	},
	"scenes":[{
		"nodes":[0]
	}],
	"bufferViews":[{
		"buffer":0,
		"byteOffset":0,
		"byteLength":1428,
		"target":34963
	},
	{
		"buffer":0,
		"byteOffset":1428,
		"byteLength":4832,
		"target":34962,
		"byteStride":32
	},
	{
		"buffer":1,
		"byteOffset":0,
		"byteLength":1428,
		"target":34963
	},
	{
		"buffer":1,
		"byteOffset":1428,
		"byteLength":4832,
		"target":34962,
		"byteStride":32
	},
	{
		"buffer":2,
		"byteOffset":0,
		"byteLength":1428,
		"target":34963
	},
	{
		"buffer":2,
		"byteOffset":1428,
		"byteLength":4832,
		"target":34962,
		"byteStride":32
	},
	{
		"buffer":3,
		"byteOffset":0,
		"byteLength":7632,
		"target":34963
	},
	{
		"buffer":3,
		"byteOffset":7632,
		"byteLength":15696,
		"target":34962,
		"byteStride":24
	},
	{
		"buffer":4,
		"byteOffset":0,
		"byteLength":4608,
		"target":34963
	},
	{
		"buffer":4,
		"byteOffset":4608,
		"byteLength":14112,
		"target":34962,
		"byteStride":32
	},
	{
		"buffer":5,
		"byteOffset":0,
		"byteLength":2136,
		"target":34963
	},
	{
		"buffer":5,
		"byteOffset":2136,
		"byteLength":6400,
		"target":34962,
		"byteStride":32
	},
	{
		"buffer":6,
		"byteOffset":0,
		"byteLength":240,
		"target":34963
	},
	{
		"buffer":6,
		"byteOffset":240,
		"byteLength":1344,
		"target":34962,
		"byteStride":32
	},
	{
		"buffer":7,
		"byteOffset":0,
		"byteLength":4224,
		"target":34963
	},
	{
		"buffer":7,
		"byteOffset":4224,
		"byteLength":17216,
		"target":34962,
		"byteStride":32
	},
	{
		"buffer":8,
		"byteOffset":0,
		"byteLength":1152,
		"target":34963
	},
	{
		"buffer":8,
		"byteOffset":1152,
		"byteLength":4928,
		"target":34962,
		"byteStride":32
	},
	{
		"buffer":9,
		"byteOffset":0,
		"byteLength":2304,
		"target":34963
	},
	{
		"buffer":9,
		"byteOffset":2304,
		"byteLength":20704,
		"target":34962,
		"byteStride":32
	},
	{
		"buffer":10,
		"byteOffset":0,
		"byteLength":2304,
		"target":34963
	},
	{
		"buffer":10,
		"byteOffset":2304,
		"byteLength":20704,
		"target":34962,
		"byteStride":32
	},
	{
		"buffer":11,
		"byteOffset":0,
		"byteLength":1680,
		"target":34963
	},
	{
		"buffer":11,
		"byteOffset":1680,
		"byteLength":6656,
		"target":34962,
		"byteStride":32
	},
	{
		"buffer":12,
		"byteOffset":0,
		"byteLength":960,
		"target":34963
	},
	{
		"buffer":12,
		"byteOffset":960,
		"byteLength":4032,
		"target":34962,
		"byteStride":32
	},
	{
		"buffer":13,
		"byteOffset":0,
		"byteLength":6480,
		"target":34963
	},
	{
		"buffer":13,
		"byteOffset":6480,
		"byteLength":20096,
		"target":34962,
		"byteStride":32
	}],
	"nodes":[{
		"name":"Null",
		"translation":[0.0006187473773024976,
		0.0041682301089167599,
		-0.003428260562941432],
		"rotation":[0.0,
		-0.7071067690849304,
		0.0,
		0.7071067690849304],
		"scale":[1.0,
		1.0,
		1.0],
		"children":[1,
		2,
		3,
		4,
		5]
	},
	{
		"name":"pinkCharTris_GRP.1",
		"translation":[-0.0006187473773024976,
		-0.0041682301089167599,
		-0.011955463327467442],
		"rotation":[0.0,
		0.0,
		0.0,
		-1.0],
		"scale":[1.0,
		1.0,
		1.0],
		"children":[6,
		7]
	},
	{
		"mesh":0,
		"name":"star.2",
		"translation":[-0.0001470909483032301,
		0.00465079490095377,
		0.00012915981642436236],
		"rotation":[0.0,
		-0.3826834261417389,
		0.0,
		-0.9238795042037964],
		"scale":[1.0704001188278199,
		1.0704001188278199,
		1.0704001188278199]
	},
	{
		"mesh":1,
		"name":"star.1",
		"translation":[-0.002176390029489994,
		0.003552323440089822,
		0.005683665629476309],
		"rotation":[0.0,
		-0.3826834261417389,
		0.0,
		-0.9238795042037964],
		"scale":[1.0,
		1.0,
		1.0]
	},
	{
		"mesh":2,
		"name":"star",
		"translation":[0.0035609756596386434,
		0.0001333418331341818,
		0.0027143768966197969],
		"rotation":[2.8512137095759728e-9,
		-0.3826834261417389,
		6.883438707916412e-9,
		-0.9238795042037964],
		"scale":[1.1792000532150269,
		1.1792000532150269,
		1.1792000532150269]
	},
	{
		"name":"crayon",
		"translation":[-0.0006187473773024976,
		-0.0041682301089167599,
		0.003428260562941432],
		"rotation":[0.0,
		0.0,
		0.0,
		-1.0],
		"scale":[1.0,
		1.0,
		1.0],
		"children":[8]
	},
	{
		"name":"orangeLegs",
		"children":[9]
	},
	{
		"name":"pCube4",
		"translation":[0.0,
		0.00803948100656271,
		0.0],
		"rotation":[0.11903299391269684,
		0.024761056527495385,
		0.002969424705952406,
		0.992577075958252],
		"scale":[1.0,
		1.0,
		1.0],
		"children":[10,
		11,
		12,
		13,
		14,
		15]
	},
	{
		"name":"crayon",
		"translation":[0.0,
		0.0009317365474998951,
		0.0],
		"rotation":[-0.7071067690849304,
		0.0,
		0.0,
		-0.7071067690849304],
		"scale":[1.0,
		1.0,
		1.0],
		"children":[16,
		17]
	},
	{
		"mesh":3,
		"name":"orangeLegs"
	},
	{
		"mesh":4,
		"name":"pCube4"
	},
	{
		"name":"pCylinder3",
		"translation":[0.0,
		-0.00803948100656271,
		0.0],
		"rotation":[0.0,
		0.0,
		0.0,
		-1.0],
		"scale":[1.0,
		1.0,
		1.0],
		"children":[18]
	},
	{
		"name":"eyes",
		"translation":[0.0,
		-0.00803948100656271,
		0.0],
		"rotation":[0.0,
		0.0,
		0.0,
		-1.0],
		"scale":[1.0,
		1.0,
		1.0],
		"children":[19,
		20,
		21]
	},
	{
		"name":"pCylinder2",
		"translation":[0.0,
		-0.00803948100656271,
		0.0],
		"rotation":[0.0,
		0.0,
		0.0,
		-1.0],
		"scale":[1.0,
		1.0,
		1.0],
		"children":[22]
	},
	{
		"name":"r arm",
		"translation":[-0.004670263733714819,
		0.003930582199245691,
		0.0],
		"rotation":[0.0,
		0.0,
		0.0,
		-1.0],
		"scale":[1.0,
		1.0,
		1.0],
		"children":[23]
	},
	{
		"name":"l arm",
		"translation":[0.005385613534599543,
		0.003930582199245691,
		0.0],
		"rotation":[0.0,
		0.0,
		0.31451982259750368,
		-0.9492509365081787],
		"scale":[1.0,
		1.0,
		1.0],
		"children":[24]
	},
	{
		"mesh":5,
		"name":"crayon-Blue.1"
	},
	{
		"mesh":6,
		"name":"crayon-Blue.1"
	},
	{
		"mesh":7,
		"name":"pCylinder3"
	},
	{
		"name":"eyes-blackMTL",
		"children":[25]
	},
	{
		"name":"eyes-blueMTL",
		"children":[26]
	},
	{
		"name":"eyes-whiteMTL",
		"children":[27]
	},
	{
		"mesh":8,
		"name":"pCylinder2"
	},
	{
		"mesh":9,
		"name":"r arm"
	},
	{
		"mesh":10,
		"name":"l arm"
	},
	{
		"mesh":11,
		"name":"eyes-blackMTL"
	},
	{
		"mesh":12,
		"name":"eyes-blueMTL"
	},
	{
		"mesh":13,
		"name":"eyes-whiteMTL"
	}],
	"meshes":[{
		"name":"star.2",
		"primitives":[{
			"attributes":{
				"POSITION":1,
				"NORMAL":2,
				"TEXCOORD_0":3
			},
			"indices":0,
			"material":0
		}]
	},
	{
		"name":"star.1",
		"primitives":[{
			"attributes":{
				"POSITION":5,
				"NORMAL":6,
				"TEXCOORD_0":7
			},
			"indices":4,
			"material":0
		}]
	},
	{
		"name":"star",
		"primitives":[{
			"attributes":{
				"POSITION":9,
				"NORMAL":10,
				"TEXCOORD_0":11
			},
			"indices":8,
			"material":0
		}]
	},
	{
		"name":"orangeLegs",
		"primitives":[{
			"attributes":{
				"POSITION":13,
				"NORMAL":14
			},
			"indices":12,
			"material":1
		}]
	},
	{
		"name":"pCube4",
		"primitives":[{
			"attributes":{
				"POSITION":16,
				"NORMAL":17,
				"TEXCOORD_0":18
			},
			"indices":15,
			"material":1
		}]
	},
	{
		"name":"crayon-Blue.1",
		"primitives":[{
			"attributes":{
				"POSITION":20,
				"NORMAL":21,
				"TEXCOORD_0":22
			},
			"indices":19,
			"material":2
		}]
	},
	{
		"name":"crayon-Blue.1",
		"primitives":[{
			"attributes":{
				"POSITION":24,
				"NORMAL":25,
				"TEXCOORD_0":26
			},
			"indices":23,
			"material":3
		}]
	},
	{
		"name":"pCylinder3",
		"primitives":[{
			"attributes":{
				"POSITION":28,
				"NORMAL":29,
				"TEXCOORD_0":30
			},
			"indices":27,
			"material":4
		}]
	},
	{
		"name":"pCylinder2",
		"primitives":[{
			"attributes":{
				"POSITION":32,
				"NORMAL":33,
				"TEXCOORD_0":34
			},
			"indices":31,
			"material":5
		}]
	},
	{
		"name":"r arm",
		"primitives":[{
			"attributes":{
				"POSITION":36,
				"NORMAL":37,
				"TEXCOORD_0":38
			},
			"indices":35,
			"material":1
		}]
	},
	{
		"name":"l arm",
		"primitives":[{
			"attributes":{
				"POSITION":40,
				"NORMAL":41,
				"TEXCOORD_0":42
			},
			"indices":39,
			"material":1
		}]
	},
	{
		"name":"eyes-blackMTL",
		"primitives":[{
			"attributes":{
				"POSITION":44,
				"NORMAL":45,
				"TEXCOORD_0":46
			},
			"indices":43,
			"material":5
		}]
	},
	{
		"name":"eyes-blueMTL",
		"primitives":[{
			"attributes":{
				"POSITION":48,
				"NORMAL":49,
				"TEXCOORD_0":50
			},
			"indices":47,
			"material":6
		}]
	},
	{
		"name":"eyes-whiteMTL",
		"primitives":[{
			"attributes":{
				"POSITION":52,
				"NORMAL":53,
				"TEXCOORD_0":54
			},
			"indices":51,
			"material":7
		}]
	}],
	"accessors":[{
		"bufferView":0,
		"type":"SCALAR",
		"componentType":5123,
		"count":714,
		"byteOffset":0,
		"min":[0],
		"max":[150]
	},
	{
		"bufferView":1,
		"type":"VEC3",
		"componentType":5126,
		"count":151,
		"byteOffset":0,
		"min":[-0.000969895045273006,
		-0.0008739284821785986,
		-0.00003202885272912681],
		"max":[0.0009441566653549671,
		0.0009902252350002528,
		0.00003132695928798057]
	},
	{
		"bufferView":1,
		"type":"VEC3",
		"componentType":5126,
		"count":151,
		"byteOffset":12,
		"min":[-0.9785629510879517,
		-0.9500176310539246,
		-1.0],
		"max":[0.8915450572967529,
		0.9580300450325012,
		1.0]
	},
	{
		"bufferView":1,
		"type":"VEC2",
		"componentType":5126,
		"count":151,
		"byteOffset":24,
		"min":[0.125,
		0.0],
		"max":[0.875,
		1.0]
	},
	{
		"bufferView":2,
		"type":"SCALAR",
		"componentType":5123,
		"count":714,
		"byteOffset":0,
		"min":[0],
		"max":[150]
	},
	{
		"bufferView":3,
		"type":"VEC3",
		"componentType":5126,
		"count":151,
		"byteOffset":0,
		"min":[-0.001406347844749689,
		-0.0012671962613239885,
		-0.00004644183718482964],
		"max":[0.0013690271880477667,
		0.0014358265325427056,
		0.00004542409078567289]
	},
	{
		"bufferView":3,
		"type":"VEC3",
		"componentType":5126,
		"count":151,
		"byteOffset":12,
		"min":[-0.9785629510879517,
		-0.9500176310539246,
		-1.0],
		"max":[0.8915450572967529,
		0.9580300450325012,
		1.0]
	},
	{
		"bufferView":3,
		"type":"VEC2",
		"componentType":5126,
		"count":151,
		"byteOffset":24,
		"min":[0.125,
		0.0],
		"max":[0.875,
		1.0]
	},
	{
		"bufferView":4,
		"type":"SCALAR",
		"componentType":5123,
		"count":714,
		"byteOffset":0,
		"min":[0],
		"max":[150]
	},
	{
		"bufferView":5,
		"type":"VEC3",
		"componentType":5126,
		"count":151,
		"byteOffset":0,
		"min":[-0.0008952877251431346,
		-0.000806703232228756,
		-0.000029565095246653074],
		"max":[0.0008715292206034064,
		0.0009140540496446192,
		0.00002891719304898288]
	},
	{
		"bufferView":5,
		"type":"VEC3",
		"componentType":5126,
		"count":151,
		"byteOffset":12,
		"min":[-0.9785629510879517,
		-0.9500176310539246,
		-1.0],
		"max":[0.8915450572967529,
		0.9580300450325012,
		1.0]
	},
	{
		"bufferView":5,
		"type":"VEC2",
		"componentType":5126,
		"count":151,
		"byteOffset":24,
		"min":[0.125,
		0.0],
		"max":[0.875,
		1.0]
	},
	{
		"bufferView":6,
		"type":"SCALAR",
		"componentType":5123,
		"count":3816,
		"byteOffset":0,
		"min":[0],
		"max":[653]
	},
	{
		"bufferView":7,
		"type":"VEC3",
		"componentType":5126,
		"count":654,
		"byteOffset":0,
		"min":[-0.003733521094545722,
		0.00006298565131146461,
		-0.0022536322940140964],
		"max":[0.003577615600079298,
		0.009154164232313633,
		0.004996380303055048]
	},
	{
		"bufferView":7,
		"type":"VEC3",
		"componentType":5126,
		"count":654,
		"byteOffset":12,
		"min":[-0.9984780550003052,
		-1.0,
		-0.9946492910385132],
		"max":[0.9996232986450195,
		0.8331455588340759,
		0.9965335130691528]
	},
	{
		"bufferView":8,
		"type":"SCALAR",
		"componentType":5123,
		"count":2304,
		"byteOffset":0,
		"min":[0],
		"max":[440]
	},
	{
		"bufferView":9,
		"type":"VEC3",
		"componentType":5126,
		"count":441,
		"byteOffset":0,
		"min":[-0.006115954834967852,
		0.00011025146523024887,
		-0.0049448199570178989],
		"max":[0.0073927403427660469,
		0.013415062800049782,
		0.008589099161326886]
	},
	{
		"bufferView":9,
		"type":"VEC3",
		"componentType":5126,
		"count":441,
		"byteOffset":12,
		"min":[-0.9985621571540833,
		-0.9962040185928345,
		-0.9995166659355164],
		"max":[0.9986806511878967,
		0.9980913996696472,
		0.9994340538978577]
	},
	{
		"bufferView":9,
		"type":"VEC2",
		"componentType":5126,
		"count":441,
		"byteOffset":24,
		"min":[0.125,
		0.0],
		"max":[0.875,
		1.0]
	},
	{
		"bufferView":10,
		"type":"SCALAR",
		"componentType":5123,
		"count":1068,
		"byteOffset":0,
		"min":[0],
		"max":[199]
	},
	{
		"bufferView":11,
		"type":"VEC3",
		"componentType":5126,
		"count":200,
		"byteOffset":0,
		"min":[-0.000822363537736237,
		-0.00319694890640676,
		-0.0008223641198128462],
		"max":[0.000822368252556771,
		0.004435311537235975,
		0.0008223637705668807]
	},
	{
		"bufferView":11,
		"type":"VEC3",
		"componentType":5126,
		"count":200,
		"byteOffset":12,
		"min":[-0.9986110329627991,
		-0.9946094155311585,
		-0.9986094832420349],
		"max":[0.9986110329627991,
		0.9963412284851074,
		0.9986094832420349]
	},
	{
		"bufferView":11,
		"type":"VEC2",
		"componentType":5126,
		"count":200,
		"byteOffset":24,
		"min":[0.3437499701976776,
		0.0],
		"max":[0.6562500596046448,
		1.0]
	},
	{
		"bufferView":12,
		"type":"SCALAR",
		"componentType":5123,
		"count":120,
		"byteOffset":0,
		"min":[0],
		"max":[41]
	},
	{
		"bufferView":13,
		"type":"VEC3",
		"componentType":5126,
		"count":42,
		"byteOffset":0,
		"min":[-0.000822363537736237,
		-0.0025622094981372358,
		-0.0008223641198128462],
		"max":[0.000822363537736237,
		0.0025622101966291668,
		0.0008223637705668807]
	},
	{
		"bufferView":13,
		"type":"VEC3",
		"componentType":5126,
		"count":42,
		"byteOffset":12,
		"min":[-0.9986094832420349,
		0.0,
		-0.9986094832420349],
		"max":[0.9986094832420349,
		0.0,
		0.9986094832420349]
	},
	{
		"bufferView":13,
		"type":"VEC2",
		"componentType":5126,
		"count":42,
		"byteOffset":24,
		"min":[0.375,
		0.3125],
		"max":[0.6249997615814209,
		0.6875]
	},
	{
		"bufferView":14,
		"type":"SCALAR",
		"componentType":5123,
		"count":2112,
		"byteOffset":0,
		"min":[0],
		"max":[537]
	},
	{
		"bufferView":15,
		"type":"VEC3",
		"componentType":5126,
		"count":538,
		"byteOffset":0,
		"min":[-0.0015577762387692929,
		0.013486255891621113,
		0.0034194563049823047],
		"max":[0.010628164745867253,
		0.0213551577180624,
		0.01109266933053732]
	},
	{
		"bufferView":15,
		"type":"VEC3",
		"componentType":5126,
		"count":538,
		"byteOffset":12,
		"min":[-0.9957433342933655,
		-0.9357859492301941,
		-0.9973182082176209],
		"max":[0.9961665868759155,
		0.9381886720657349,
		0.9973413944244385]
	},
	{
		"bufferView":15,
		"type":"VEC2",
		"componentType":5126,
		"count":538,
		"byteOffset":24,
		"min":[0.3437499701976776,
		0.00005042552947998047],
		"max":[0.65625,
		0.99994957447052]
	},
	{
		"bufferView":16,
		"type":"SCALAR",
		"componentType":5123,
		"count":576,
		"byteOffset":0,
		"min":[0],
		"max":[153]
	},
	{
		"bufferView":17,
		"type":"VEC3",
		"componentType":5126,
		"count":154,
		"byteOffset":0,
		"min":[0.0029793037101626398,
		0.013132036663591862,
		0.006777632981538773],
		"max":[0.004846806172281504,
		0.014392144978046418,
		0.007981839589774609]
	},
	{
		"bufferView":17,
		"type":"VEC3",
		"componentType":5126,
		"count":154,
		"byteOffset":12,
		"min":[-0.9758262038230896,
		-0.9942799806594849,
		-0.7548872232437134],
		"max":[0.995869517326355,
		0.9954729080200195,
		0.9965680837631226]
	},
	{
		"bufferView":17,
		"type":"VEC2",
		"componentType":5126,
		"count":154,
		"byteOffset":24,
		"min":[0.3437499701976776,
		0.15625],
		"max":[0.65625,
		0.8264791965484619]
	},
	{
		"bufferView":18,
		"type":"SCALAR",
		"componentType":5123,
		"count":1152,
		"byteOffset":0,
		"min":[0],
		"max":[646]
	},
	{
		"bufferView":19,
		"type":"VEC3",
		"componentType":5126,
		"count":647,
		"byteOffset":0,
		"min":[-0.0043236627243459229,
		-0.003316845977678895,
		0.0027922263834625484],
		"max":[0.00243751285597682,
		0.0024535260163247587,
		0.012828594073653221]
	},
	{
		"bufferView":19,
		"type":"VEC3",
		"componentType":5126,
		"count":647,
		"byteOffset":12,
		"min":[-0.9826617240905762,
		-0.9965931177139282,
		-0.8586689233779907],
		"max":[0.986795961856842,
		0.9975589513778687,
		0.9889167547225952]
	},
	{
		"bufferView":19,
		"type":"VEC2",
		"componentType":5126,
		"count":647,
		"byteOffset":24,
		"min":[0.0,
		0.0],
		"max":[1.0,
		1.0]
	},
	{
		"bufferView":20,
		"type":"SCALAR",
		"componentType":5123,
		"count":1152,
		"byteOffset":0,
		"min":[0],
		"max":[646]
	},
	{
		"bufferView":21,
		"type":"VEC3",
		"componentType":5126,
		"count":647,
		"byteOffset":0,
		"min":[-0.002246533753350377,
		-0.0055356393568217758,
		-0.0032381401397287847],
		"max":[0.005080626346170902,
		0.0010524174431338907,
		0.0008957342361100018]
	},
	{
		"bufferView":21,
		"type":"VEC3",
		"componentType":5126,
		"count":647,
		"byteOffset":12,
		"min":[-0.8588001132011414,
		-0.9931915402412415,
		-0.9821115732192993],
		"max":[0.9940289258956909,
		0.978753387928009,
		0.9686718583106995]
	},
	{
		"bufferView":21,
		"type":"VEC2",
		"componentType":5126,
		"count":647,
		"byteOffset":24,
		"min":[0.0,
		0.0],
		"max":[1.0,
		1.0]
	},
	{
		"bufferView":22,
		"type":"SCALAR",
		"componentType":5123,
		"count":840,
		"byteOffset":0,
		"min":[0],
		"max":[207]
	},
	{
		"bufferView":23,
		"type":"VEC3",
		"componentType":5126,
		"count":208,
		"byteOffset":0,
		"min":[0.0012358920648694039,
		0.01480576116591692,
		0.005951675120741129],
		"max":[0.008110138587653637,
		0.01817925274372101,
		0.010159548372030259]
	},
	{
		"bufferView":23,
		"type":"VEC3",
		"componentType":5126,
		"count":208,
		"byteOffset":12,
		"min":[-0.05475177988409996,
		-0.5604285001754761,
		0.41510388255119326],
		"max":[0.9063346982002258,
		0.48660147190093996,
		0.9993975162506104]
	},
	{
		"bufferView":23,
		"type":"VEC2",
		"componentType":5126,
		"count":208,
		"byteOffset":24,
		"min":[0.0,
		0.0],
		"max":[1.0000001192092896,
		0.1999998688697815]
	},
	{
		"bufferView":24,
		"type":"SCALAR",
		"componentType":5123,
		"count":480,
		"byteOffset":0,
		"min":[0],
		"max":[125]
	},
	{
		"bufferView":25,
		"type":"VEC3",
		"componentType":5126,
		"count":126,
		"byteOffset":0,
		"min":[0.0005447750445455313,
		0.014320200309157372,
		0.005235862452536821],
		"max":[0.008247343823313713,
		0.018707429990172387,
		0.01013893447816372]
	},
	{
		"bufferView":25,
		"type":"VEC3",
		"componentType":5126,
		"count":126,
		"byteOffset":12,
		"min":[-0.35963213443756106,
		-0.7885255813598633,
		0.11409541219472885],
		"max":[0.9895143508911133,
		0.7302385568618774,
		0.9907851219177246]
	},
	{
		"bufferView":25,
		"type":"VEC2",
		"componentType":5126,
		"count":126,
		"byteOffset":24,
		"min":[0.0,
		0.1999998688697815],
		"max":[1.0000001192092896,
		0.2999998927116394]
	},
	{
		"bufferView":26,
		"type":"SCALAR",
		"componentType":5123,
		"count":3240,
		"byteOffset":0,
		"min":[0],
		"max":[627]
	},
	{
		"bufferView":27,
		"type":"VEC3",
		"componentType":5126,
		"count":628,
		"byteOffset":0,
		"min":[-0.0007627597078680992,
		0.013943925499916077,
		0.002821059664711356],
		"max":[0.008247343823313713,
		0.01919611729681492,
		0.009929381310939789]
	},
	{
		"bufferView":27,
		"type":"VEC3",
		"componentType":5126,
		"count":628,
		"byteOffset":12,
		"min":[-0.9909305572509766,
		-0.9915168285369873,
		-0.9991428852081299],
		"max":[0.9956483840942383,
		0.9913473725318909,
		0.9055288434028626]
	},
	{
		"bufferView":27,
		"type":"VEC2",
		"componentType":5126,
		"count":628,
		"byteOffset":24,
		"min":[0.0,
		0.2999998927116394],
		"max":[1.0000001192092896,
		1.0]
	}],
	"materials":[{
		"pbrMetallicRoughness":{
			"baseColorFactor":[0.8,
			0.6933333333333334,
			0.0,
			1.0],
			"metallicFactor":0.0,
			"roughnessFactor":0.5
		},
		"emissiveFactor":[0.0,
		0.0,
		0.0],
		"alphaMode":"OPAQUE",
		"name":"Blue.1",
		"doubleSided":false
	},
	{
		"pbrMetallicRoughness":{
			"baseColorFactor":[0.9529411764705882,
			0.5411764705882353,
			0.5450980392156862,
			1.0],
			"metallicFactor":0.0,
			"roughnessFactor":0.5
		},
		"emissiveFactor":[0.0,
		0.0,
		0.0],
		"alphaMode":"OPAQUE",
		"name":"pinkMTL",
		"doubleSided":false
	},
	{
		"pbrMetallicRoughness":{
			"baseColorFactor":[0.13329999999999998,
			0.20103499999999989,
			0.31,
			1.0],
			"metallicFactor":0.0,
			"roughnessFactor":0.5
		},
		"emissiveFactor":[0.0,
		0.0,
		0.0],
		"alphaMode":"OPAQUE",
		"name":"Blue.1",
		"doubleSided":false
	},
	{
		"pbrMetallicRoughness":{
			"baseColorFactor":[0.344,
			0.5187999999999997,
			0.8,
			1.0],
			"metallicFactor":0.0,
			"roughnessFactor":0.5
		},
		"emissiveFactor":[0.0,
		0.0,
		0.0],
		"alphaMode":"OPAQUE",
		"name":"Blue.1",
		"doubleSided":false
	},
	{
		"pbrMetallicRoughness":{
			"baseColorFactor":[0.2627450980392157,
			0.3137254901960784,
			0.47843137254901965,
			1.0],
			"metallicFactor":0.0,
			"roughnessFactor":0.5
		},
		"emissiveFactor":[0.0,
		0.0,
		0.0],
		"alphaMode":"OPAQUE",
		"name":"darkBlueMTL",
		"doubleSided":false
	},
	{
		"pbrMetallicRoughness":{
			"baseColorFactor":[0.1,
			0.1,
			0.1,
			1.0],
			"metallicFactor":0.0,
			"roughnessFactor":0.5
		},
		"emissiveFactor":[0.0,
		0.0,
		0.0],
		"alphaMode":"OPAQUE",
		"name":"blackMTL",
		"doubleSided":false
	},
	{
		"pbrMetallicRoughness":{
			"baseColorFactor":[0.5490196078431373,
			0.611764705882353,
			0.8156862745098039,
			1.0],
			"metallicFactor":0.0,
			"roughnessFactor":0.5
		},
		"emissiveFactor":[0.0,
		0.0,
		0.0],
		"alphaMode":"OPAQUE",
		"name":"blueMTL",
		"doubleSided":false
	},
	{
		"pbrMetallicRoughness":{
			"baseColorFactor":[1.0,
			1.0,
			1.0,
			1.0],
			"metallicFactor":0.0,
			"roughnessFactor":0.5
		},
		"emissiveFactor":[0.0,
		0.0,
		0.0],
		"alphaMode":"OPAQUE",
		"name":"whiteMTL",
		"doubleSided":false
	}]
}