{
	"asset":{
		"version":"2.0",
		"generator":""
	},
	"scenes":[{
		"nodes":[0]
	}],
	"nodes":[{
		"name":"bathroom_sink",
		"children":[1,
		2,
		3,
		4,
		5]
	},
	{
		"name":"faucet",
		"mesh":0,
		"translation":[-0.00443063722923398,
		2.2577779293060304,
		-0.4030955135822296],
		"rotation":[0.0,
		-0.7071067690849304,
		0.0,
		0.7071067690849304],
		"scale":[1.0,
		1.0,
		1.0]
	},
	{
		"name":"knob_1",
		"mesh":1,
		"translation":[-0.35289227962493899,
		2.136876106262207,
		-0.5367282032966614],
		"rotation":[0.0,
		-0.7071067690849304,
		0.0,
		0.7071067690849304],
		"scale":[1.0,
		1.0,
		1.0],
		"children":[6]
	},
	{
		"name":"knob_2",
		"mesh":2,
		"translation":[0.37070104479789736,
		2.136876106262207,
		-0.5367282032966614],
		"rotation":[0.0,
		-0.7071067690849304,
		0.0,
		0.7071067690849304],
		"scale":[1.0,
		1.0,
		1.0],
		"children":[7]
	},
	{
		"name":"stopper",
		"mesh":3,
		"translation":[4.5615702059849268e-18,
		1.6519074440002442,
		0.07449609786272049],
		"rotation":[0.0,
		-0.7071067690849304,
		0.0,
		0.7071067690849304],
		"scale":[1.0,
		1.0,
		1.0],
		"children":[8]
	},
	{
		"name":"base",
		"mesh":4,
		"translation":[1.96546654182424e-18,
		0.999718189239502,
		0.03209850192070007],
		"rotation":[2.530034680684545e-18,
		-0.999146044254303,
		-0.04131860285997391,
		-6.118005157965524e-17],
		"scale":[1.0,
		1.0,
		1.0]
	},
	{
		"name":"center",
		"mesh":5,
		"translation":[0.0,
		-0.06537521630525589,
		9.53674295089968e-9],
		"rotation":[0.0,
		0.0,
		0.0,
		-1.0],
		"scale":[1.0,
		1.0,
		1.0]
	},
	{
		"name":"center_2",
		"mesh":6,
		"translation":[0.0,
		-0.06537521630525589,
		-9.53674295089968e-9],
		"rotation":[0.0,
		0.0,
		0.0,
		-1.0],
		"scale":[1.0,
		1.0,
		1.0]
	},
	{
		"name":"center_3",
		"mesh":7,
		"translation":[-2.38418573772492e-9,
		-0.1227748841047287,
		-5.293955802010241e-25],
		"rotation":[0.0,
		0.0,
		0.0,
		-1.0],
		"scale":[1.0,
		1.0,
		1.0]
	}],
	"meshes":[{
		"name":"faucet",
		"primitives":[{
			"attributes":{
				"POSITION":1,
				"NORMAL":2,
				"TEXCOORD_0":3
			},
			"indices":0
		}]
	},
	{
		"name":"knob_1",
		"primitives":[{
			"attributes":{
				"POSITION":5,
				"NORMAL":6,
				"TEXCOORD_0":7
			},
			"indices":4
		}]
	},
	{
		"name":"knob_2",
		"primitives":[{
			"attributes":{
				"POSITION":9,
				"NORMAL":10,
				"TEXCOORD_0":11
			},
			"indices":8
		}]
	},
	{
		"name":"stopper",
		"primitives":[{
			"attributes":{
				"POSITION":13,
				"NORMAL":14,
				"TEXCOORD_0":15
			},
			"indices":12
		}]
	},
	{
		"name":"base",
		"primitives":[{
			"attributes":{
				"POSITION":17,
				"NORMAL":18,
				"TEXCOORD_0":19
			},
			"indices":16
		}]
	},
	{
		"name":"center",
		"primitives":[{
			"attributes":{
				"POSITION":21,
				"NORMAL":22,
				"TEXCOORD_0":23
			},
			"indices":20
		}]
	},
	{
		"name":"center_2",
		"primitives":[{
			"attributes":{
				"POSITION":25,
				"NORMAL":26,
				"TEXCOORD_0":27
			},
			"indices":24
		}]
	},
	{
		"name":"center_3",
		"primitives":[{
			"attributes":{
				"POSITION":29,
				"NORMAL":30,
				"TEXCOORD_0":31
			},
			"indices":28
		}]
	}],
	"accessors":[{
		"bufferView":0,
		"type":"SCALAR",
		"componentType":5123,
		"count":960,
		"byteOffset":0,
		"min":[0],
		"max":[327]
	},
	{
		"bufferView":1,
		"type":"VEC3",
		"componentType":5126,
		"count":328,
		"byteOffset":0,
		"min":[-0.2617374062538147,
		-0.2696169912815094,
		-0.0894007757306099],
		"max":[0.2617374062538147,
		0.2696169912815094,
		0.0894007757306099]
	},
	{
		"bufferView":1,
		"type":"VEC3",
		"componentType":5126,
		"count":328,
		"byteOffset":12,
		"min":[-0.9990388751029968,
		-1.0,
		-0.9329003095626831],
		"max":[0.9952352643013,
		1.0,
		0.9329003095626831]
	},
	{
		"bufferView":1,
		"type":"VEC2",
		"componentType":5126,
		"count":328,
		"byteOffset":24,
		"min":[0.00390625,
		0.610927939414978],
		"max":[0.15240435302257539,
		0.8663984537124634]
	},
	{
		"bufferView":2,
		"type":"SCALAR",
		"componentType":5123,
		"count":1392,
		"byteOffset":0,
		"min":[0],
		"max":[495]
	},
	{
		"bufferView":3,
		"type":"VEC3",
		"componentType":5126,
		"count":496,
		"byteOffset":0,
		"min":[-0.19796767830848695,
		-0.04690902680158615,
		-0.19796769320964814],
		"max":[0.19796767830848695,
		0.04690902680158615,
		0.19796769320964814]
	},
	{
		"bufferView":3,
		"type":"VEC3",
		"componentType":5126,
		"count":496,
		"byteOffset":12,
		"min":[-0.9984375238418579,
		-1.0,
		-0.9984375238418579],
		"max":[0.9984375238418579,
		1.0,
		0.9984375238418579]
	},
	{
		"bufferView":3,
		"type":"VEC2",
		"componentType":5126,
		"count":496,
		"byteOffset":24,
		"min":[0.4106747806072235,
		0.808125376701355],
		"max":[0.9612812399864197,
		0.99609375]
	},
	{
		"bufferView":4,
		"type":"SCALAR",
		"componentType":5123,
		"count":1392,
		"byteOffset":0,
		"min":[0],
		"max":[495]
	},
	{
		"bufferView":5,
		"type":"VEC3",
		"componentType":5126,
		"count":496,
		"byteOffset":0,
		"min":[-0.19796767830848695,
		-0.04690902680158615,
		-0.19796769320964814],
		"max":[0.19796767830848695,
		0.04690902680158615,
		0.19796769320964814]
	},
	{
		"bufferView":5,
		"type":"VEC3",
		"componentType":5126,
		"count":496,
		"byteOffset":12,
		"min":[-0.9984375238418579,
		-1.0,
		-0.9984375238418579],
		"max":[0.9984375238418579,
		1.0,
		0.9984375238418579]
	},
	{
		"bufferView":5,
		"type":"VEC2",
		"componentType":5126,
		"count":496,
		"byteOffset":24,
		"min":[0.17587342858314515,
		0.7926428318023682],
		"max":[0.6462115049362183,
		0.99609375]
	},
	{
		"bufferView":6,
		"type":"SCALAR",
		"componentType":5123,
		"count":336,
		"byteOffset":0,
		"min":[0],
		"max":[81]
	},
	{
		"bufferView":7,
		"type":"VEC3",
		"componentType":5126,
		"count":82,
		"byteOffset":0,
		"min":[-0.08967071771621704,
		-0.014809264801442624,
		-0.08967071771621704],
		"max":[0.08967071771621704,
		0.014809264801442624,
		0.08967071771621704]
	},
	{
		"bufferView":7,
		"type":"VEC3",
		"componentType":5126,
		"count":82,
		"byteOffset":12,
		"min":[-0.8659958243370056,
		-1.0,
		-0.8659958243370056],
		"max":[0.8659958243370056,
		1.0,
		0.8659958243370056]
	},
	{
		"bufferView":7,
		"type":"VEC2",
		"componentType":5126,
		"count":82,
		"byteOffset":24,
		"min":[0.9530327916145325,
		0.8010921478271484],
		"max":[0.9957000613212586,
		0.8792743682861328]
	},
	{
		"bufferView":8,
		"type":"SCALAR",
		"componentType":5123,
		"count":3888,
		"byteOffset":0,
		"min":[0],
		"max":[1008]
	},
	{
		"bufferView":9,
		"type":"VEC3",
		"componentType":5126,
		"count":1009,
		"byteOffset":0,
		"min":[-0.7444319128990173,
		-1.0192952156066895,
		-0.7034648060798645],
		"max":[0.7444319128990173,
		1.0550113916397095,
		0.8564133644104004]
	},
	{
		"bufferView":9,
		"type":"VEC3",
		"componentType":5126,
		"count":1009,
		"byteOffset":12,
		"min":[-1.0,
		-0.9965857863426209,
		-0.9997807741165161],
		"max":[1.0,
		0.9987208843231201,
		0.9995758533477783]
	},
	{
		"bufferView":9,
		"type":"VEC2",
		"componentType":5126,
		"count":1009,
		"byteOffset":24,
		"min":[0.00390625,
		0.004859898239374161],
		"max":[0.9942196607589722,
		0.99609375]
	},
	{
		"bufferView":10,
		"type":"SCALAR",
		"componentType":5123,
		"count":768,
		"byteOffset":0,
		"min":[0],
		"max":[276]
	},
	{
		"bufferView":11,
		"type":"VEC3",
		"componentType":5126,
		"count":277,
		"byteOffset":0,
		"min":[-0.06945449858903885,
		-0.13363830745220185,
		-0.06945449858903885],
		"max":[0.06945449858903885,
		0.13363830745220185,
		0.06945449858903885]
	},
	{
		"bufferView":11,
		"type":"VEC3",
		"componentType":5126,
		"count":277,
		"byteOffset":12,
		"min":[-0.9238885045051575,
		-1.0,
		-0.9238885045051575],
		"max":[0.9238885045051575,
		1.0,
		0.9238885045051575]
	},
	{
		"bufferView":11,
		"type":"VEC2",
		"componentType":5126,
		"count":277,
		"byteOffset":24,
		"min":[0.00390625,
		0.7515252828598023],
		"max":[0.5655746459960938,
		0.99609375]
	},
	{
		"bufferView":12,
		"type":"SCALAR",
		"componentType":5123,
		"count":768,
		"byteOffset":0,
		"min":[0],
		"max":[276]
	},
	{
		"bufferView":13,
		"type":"VEC3",
		"componentType":5126,
		"count":277,
		"byteOffset":0,
		"min":[-0.06945449858903885,
		-0.13363830745220185,
		-0.06945449858903885],
		"max":[0.06945449858903885,
		0.13363830745220185,
		0.06945449858903885]
	},
	{
		"bufferView":13,
		"type":"VEC3",
		"componentType":5126,
		"count":277,
		"byteOffset":12,
		"min":[-0.9238885045051575,
		-1.0,
		-0.9238885045051575],
		"max":[0.9238885045051575,
		1.0,
		0.9238885045051575]
	},
	{
		"bufferView":13,
		"type":"VEC2",
		"componentType":5126,
		"count":277,
		"byteOffset":24,
		"min":[0.06343334913253784,
		0.66208815574646],
		"max":[0.2051050066947937,
		0.99609375]
	},
	{
		"bufferView":14,
		"type":"SCALAR",
		"componentType":5123,
		"count":792,
		"byteOffset":0,
		"min":[0],
		"max":[255]
	},
	{
		"bufferView":15,
		"type":"VEC3",
		"componentType":5126,
		"count":256,
		"byteOffset":0,
		"min":[-0.03401166573166847,
		-0.11578361690044403,
		-0.03371835872530937],
		"max":[0.03401166573166847,
		0.11578361690044403,
		0.03371835872530937]
	},
	{
		"bufferView":15,
		"type":"VEC3",
		"componentType":5126,
		"count":256,
		"byteOffset":12,
		"min":[-1.0,
		-0.6879267692565918,
		-1.0],
		"max":[1.0,
		1.0,
		1.0]
	},
	{
		"bufferView":15,
		"type":"VEC2",
		"componentType":5126,
		"count":256,
		"byteOffset":24,
		"min":[0.12296044826507569,
		0.8776078224182129],
		"max":[0.9874763488769531,
		0.99609375]
	}],
	"bufferViews":[{
		"buffer":0,
		"byteOffset":0,
		"byteLength":1920,
		"target":34963
	},
	{
		"buffer":0,
		"byteOffset":1920,
		"byteLength":10496,
		"target":34962,
		"byteStride":32
	},
	{
		"buffer":1,
		"byteOffset":0,
		"byteLength":2784,
		"target":34963
	},
	{
		"buffer":1,
		"byteOffset":2784,
		"byteLength":15872,
		"target":34962,
		"byteStride":32
	},
	{
		"buffer":2,
		"byteOffset":0,
		"byteLength":2784,
		"target":34963
	},
	{
		"buffer":2,
		"byteOffset":2784,
		"byteLength":15872,
		"target":34962,
		"byteStride":32
	},
	{
		"buffer":3,
		"byteOffset":0,
		"byteLength":672,
		"target":34963
	},
	{
		"buffer":3,
		"byteOffset":672,
		"byteLength":2624,
		"target":34962,
		"byteStride":32
	},
	{
		"buffer":4,
		"byteOffset":0,
		"byteLength":7776,
		"target":34963
	},
	{
		"buffer":4,
		"byteOffset":7776,
		"byteLength":32288,
		"target":34962,
		"byteStride":32
	},
	{
		"buffer":5,
		"byteOffset":0,
		"byteLength":1536,
		"target":34963
	},
	{
		"buffer":5,
		"byteOffset":1536,
		"byteLength":8864,
		"target":34962,
		"byteStride":32
	},
	{
		"buffer":6,
		"byteOffset":0,
		"byteLength":1536,
		"target":34963
	},
	{
		"buffer":6,
		"byteOffset":1536,
		"byteLength":8864,
		"target":34962,
		"byteStride":32
	},
	{
		"buffer":7,
		"byteOffset":0,
		"byteLength":1584,
		"target":34963
	},
	{
		"buffer":7,
		"byteOffset":1584,
		"byteLength":8192,
		"target":34962,
		"byteStride":32
	}],
	"buffers":[{
		"uri":"data:application/octet-stream;base64,",
		"byteLength":12416
	},
	{
		"uri":"data:application/octet-stream;base64,",
		"byteLength":18656
	},
	{
		"uri":"data:application/octet-stream;base64,",
		"byteLength":18656
	},
	{
		"uri":"data:application/octet-stream;base64,",
		"byteLength":3296
	},
	{
		"uri":"data:application/octet-stream;base64,",
		"byteLength":40064
	},
	{
		"uri":"data:application/octet-stream;base64,",
		"byteLength":10400
	},
	{
		"uri":"data:application/octet-stream;base64,",
		"byteLength":10400
	},
	{
		"uri":"data:application/octet-stream;base64,",
		"byteLength":9776
	}]
}