{
	"buffers":[{
		"uri":"data:application/octet-stream;base64,",
		"byteLength":10688
	},
	{
		"uri":"data:application/octet-stream;base64,",
		"byteLength":17024
	},
	{
		"uri":"data:application/octet-stream;base64,",
		"byteLength":4352
	}],
	"asset":{
		"version":"2.0",
		"generator":"Autodesk Maya 2023"
	},
	"scenes":[{
		"nodes":[0]
	}],
	"bufferViews":[{
		"buffer":0,
		"byteOffset":0,
		"byteLength":2784,
		"target":34963
	},
	{
		"buffer":0,
		"byteOffset":2784,
		"byteLength":7904,
		"target":34962,
		"byteStride":32
	},
	{
		"buffer":1,
		"byteOffset":0,
		"byteLength":4512,
		"target":34963
	},
	{
		"buffer":1,
		"byteOffset":4512,
		"byteLength":12512,
		"target":34962,
		"byteStride":32
	},
	{
		"buffer":2,
		"byteOffset":0,
		"byteLength":1056,
		"target":34963
	},
	{
		"buffer":2,
		"byteOffset":1056,
		"byteLength":3296,
		"target":34962,
		"byteStride":32
	}],
	"nodes":[{
		"name":"musicNotes",
		"children":[1,
		2,
		3]
	},
	{
		"mesh":0,
		"name":"musicNote01",
		"translation":[-0.002933523152023554,
		0.00817197747528553,
		-0.00023995725496206433],
		"rotation":[0.0,
		0.0,
		0.0,
		-1.0],
		"scale":[0.2641647160053253,
		0.2641647160053253,
		0.2641647160053253]
	},
	{
		"mesh":1,
		"name":"musicNote04",
		"translation":[0.0018089659279212356,
		0.00466963043436408,
		-0.00006952382682356983],
		"rotation":[0.0,
		0.0,
		0.0,
		-1.0],
		"scale":[0.9995412826538086,
		0.9995412826538086,
		0.9995412826538086]
	},
	{
		"mesh":2,
		"name":"musicNote05",
		"translation":[0.0058119529858231548,
		0.007485747803002596,
		-0.00018555234419181943],
		"rotation":[0.0,
		0.0,
		0.0,
		-1.0],
		"scale":[0.2906872034072876,
		0.2906872034072876,
		0.2906872034072876]
	}],
	"meshes":[{
		"name":"musicNote01",
		"primitives":[{
			"attributes":{
				"POSITION":1,
				"NORMAL":2,
				"TEXCOORD_0":3
			},
			"indices":0,
			"material":0
		}]
	},
	{
		"name":"musicNote04",
		"primitives":[{
			"attributes":{
				"POSITION":5,
				"NORMAL":6,
				"TEXCOORD_0":7
			},
			"indices":4,
			"material":0
		}]
	},
	{
		"name":"musicNote05",
		"primitives":[{
			"attributes":{
				"POSITION":9,
				"NORMAL":10,
				"TEXCOORD_0":11
			},
			"indices":8,
			"material":0
		}]
	}],
	"accessors":[{
		"bufferView":0,
		"type":"SCALAR",
		"componentType":5123,
		"count":1392,
		"byteOffset":0,
		"min":[0],
		"max":[246]
	},
	{
		"bufferView":1,
		"type":"VEC3",
		"componentType":5126,
		"count":247,
		"byteOffset":0,
		"min":[-0.006094927899539471,
		-0.005159465130418539,
		-0.0018657715991139413],
		"max":[0.0038476400077342989,
		0.005159465130418539,
		0.0018657715991139413]
	},
	{
		"bufferView":1,
		"type":"VEC3",
		"componentType":5126,
		"count":247,
		"byteOffset":12,
		"min":[-0.9999921321868897,
		-0.9987019300460815,
		-0.9999760389328003],
		"max":[0.9999984502792358,
		0.9955376982688904,
		0.9999780654907227]
	},
	{
		"bufferView":1,
		"type":"VEC2",
		"componentType":5126,
		"count":247,
		"byteOffset":24,
		"min":[0.125,
		0.0],
		"max":[0.875,
		1.0]
	},
	{
		"bufferView":2,
		"type":"SCALAR",
		"componentType":5123,
		"count":2256,
		"byteOffset":0,
		"min":[0],
		"max":[390]
	},
	{
		"bufferView":3,
		"type":"VEC3",
		"componentType":5126,
		"count":391,
		"byteOffset":0,
		"min":[-0.0028445422649383547,
		-0.0020358425099402668,
		-0.00020610816136468202],
		"max":[0.0019996121991425754,
		0.0012511925306171179,
		0.00020610816136468202]
	},
	{
		"bufferView":3,
		"type":"VEC3",
		"componentType":5126,
		"count":391,
		"byteOffset":12,
		"min":[-0.9999996423721314,
		-0.9984769821166992,
		-0.9999990463256836],
		"max":[0.9999961853027344,
		0.9974554181098938,
		0.9999943971633911]
	},
	{
		"bufferView":3,
		"type":"VEC2",
		"componentType":5126,
		"count":391,
		"byteOffset":24,
		"min":[0.125,
		0.0],
		"max":[0.875,
		1.0]
	},
	{
		"bufferView":4,
		"type":"SCALAR",
		"componentType":5123,
		"count":528,
		"byteOffset":0,
		"min":[0],
		"max":[102]
	},
	{
		"bufferView":5,
		"type":"VEC3",
		"componentType":5126,
		"count":103,
		"byteOffset":0,
		"min":[-0.0033415190409868957,
		-0.003323095617815852,
		-0.0016666667070239783],
		"max":[0.00037931324914097786,
		0.005396481137722731,
		0.0016666667070239783]
	},
	{
		"bufferView":5,
		"type":"VEC3",
		"componentType":5126,
		"count":103,
		"byteOffset":12,
		"min":[-0.9999411702156067,
		-0.9528378248214722,
		-0.9998208284378052],
		"max":[0.9998321533203125,
		1.0,
		0.9968799948692322]
	},
	{
		"bufferView":5,
		"type":"VEC2",
		"componentType":5126,
		"count":103,
		"byteOffset":24,
		"min":[0.125,
		0.0],
		"max":[0.875,
		1.0]
	}],
	"materials":[{
		"pbrMetallicRoughness":{
			"baseColorFactor":[0.0729,
			0.07974,
			0.09,
			1.0],
			"metallicFactor":0.0,
			"roughnessFactor":0.5
		},
		"emissiveFactor":[0.0,
		0.0,
		0.0],
		"alphaMode":"OPAQUE",
		"name":"Blue",
		"doubleSided":false
	}]
}