{
	"asset":{
		"version":"2.0",
		"generator":"Autodesk Maya 2023"
	},
	"scenes":[{
		"nodes":[0]
	}],
	"buffers":[{
		"uri":"data:application/octet-stream;base64,",
		"byteLength":34848
	},
	{
		"uri":"data:application/octet-stream;base64,",
		"byteLength":6080
	},
	{
		"uri":"data:application/octet-stream;base64,",
		"byteLength":5056
	},
	{
		"uri":"data:application/octet-stream;base64,",
		"byteLength":9152
	},
	{
		"uri":"data:application/octet-stream;base64,",
		"byteLength":9152
	},
	{
		"uri":"data:application/octet-stream;base64,",
		"byteLength":29088
	},
	{
		"uri":"data:application/octet-stream;base64,",
		"byteLength":14792
	},
	{
		"uri":"data:application/octet-stream;base64,",
		"byteLength":14792
	}],
	"nodes":[{
		"name":"orangeChar_MTL",
		"children":[1,
		2,
		3,
		4,
		5,
		6,
		7,
		8]
	},
	{
		"name":"eyes",
		"mesh":0
	},
	{
		"name":"mouth",
		"mesh":1
	},
	{
		"name":"ears",
		"mesh":2
	},
	{
		"name":"arm_R",
		"mesh":3
	},
	{
		"name":"arm_L",
		"mesh":4
	},
	{
		"name":"body",
		"mesh":5
	},
	{
		"name":"leg_L",
		"mesh":6
	},
	{
		"name":"leg_R",
		"mesh":7
	}],
	"meshes":[{
		"name":"eyes",
		"primitives":[{
			"attributes":{
				"POSITION":1,
				"NORMAL":2,
				"TEXCOORD_0":3
			},
			"indices":0,
			"material":0
		}]
	},
	{
		"name":"mouth",
		"primitives":[{
			"attributes":{
				"POSITION":5,
				"NORMAL":6,
				"TEXCOORD_0":7
			},
			"indices":4,
			"material":0
		}]
	},
	{
		"name":"ears",
		"primitives":[{
			"attributes":{
				"POSITION":9,
				"NORMAL":10,
				"TEXCOORD_0":11
			},
			"indices":8,
			"material":0
		}]
	},
	{
		"name":"arm_R",
		"primitives":[{
			"attributes":{
				"POSITION":13,
				"NORMAL":14,
				"TEXCOORD_0":15
			},
			"indices":12,
			"material":0
		}]
	},
	{
		"name":"arm_L",
		"primitives":[{
			"attributes":{
				"POSITION":17,
				"NORMAL":18,
				"TEXCOORD_0":19
			},
			"indices":16,
			"material":0
		}]
	},
	{
		"name":"body",
		"primitives":[{
			"attributes":{
				"POSITION":21,
				"NORMAL":22,
				"TEXCOORD_0":23
			},
			"indices":20,
			"material":0
		}]
	},
	{
		"name":"leg_L",
		"primitives":[{
			"attributes":{
				"POSITION":25,
				"NORMAL":26,
				"TEXCOORD_0":27
			},
			"indices":24,
			"material":0
		}]
	},
	{
		"name":"leg_R",
		"primitives":[{
			"attributes":{
				"POSITION":29,
				"NORMAL":30,
				"TEXCOORD_0":31
			},
			"indices":28,
			"material":0
		}]
	}],
	"accessors":[{
		"bufferView":0,
		"type":"SCALAR",
		"componentType":5123,
		"count":4560,
		"byteOffset":0,
		"min":[0],
		"max":[803]
	},
	{
		"bufferView":1,
		"type":"VEC3",
		"componentType":5126,
		"count":804,
		"byteOffset":0,
		"min":[-0.015265720896422863,
		0.10031045973300934,
		0.013564340770244599],
		"max":[0.015265720896422863,
		0.11216472834348679,
		0.025418603792786599]
	},
	{
		"bufferView":1,
		"type":"VEC3",
		"componentType":5126,
		"count":804,
		"byteOffset":12,
		"min":[-1.0,
		-1.0,
		-1.0],
		"max":[1.0,
		1.0,
		1.0]
	},
	{
		"bufferView":1,
		"type":"VEC2",
		"componentType":5126,
		"count":804,
		"byteOffset":24,
		"min":[5.551115123125783e-17,
		0.228091299533844],
		"max":[1.0,
		0.9999997615814209]
	},
	{
		"bufferView":2,
		"type":"SCALAR",
		"componentType":5123,
		"count":576,
		"byteOffset":0,
		"min":[0],
		"max":[153]
	},
	{
		"bufferView":3,
		"type":"VEC3",
		"componentType":5126,
		"count":154,
		"byteOffset":0,
		"min":[-0.004407401662319899,
		0.09338679909706116,
		0.022662144154310228],
		"max":[0.0044259880669415,
		0.09809568524360657,
		0.024626363068819047]
	},
	{
		"bufferView":3,
		"type":"VEC3",
		"componentType":5126,
		"count":154,
		"byteOffset":12,
		"min":[-0.9948816299438477,
		-0.9871702790260315,
		-0.3446343243122101],
		"max":[0.9960320591926575,
		0.996901273727417,
		0.998703122138977]
	},
	{
		"bufferView":3,
		"type":"VEC2",
		"componentType":5126,
		"count":154,
		"byteOffset":24,
		"min":[0.33085015416145327,
		0.9819574356079102],
		"max":[0.36741533875465395,
		0.9999997615814209]
	},
	{
		"bufferView":4,
		"type":"SCALAR",
		"componentType":5123,
		"count":576,
		"byteOffset":0,
		"min":[0],
		"max":[121]
	},
	{
		"bufferView":5,
		"type":"VEC3",
		"componentType":5126,
		"count":122,
		"byteOffset":0,
		"min":[-0.013369143009185791,
		0.11961663514375687,
		-0.003173419274389744],
		"max":[0.013369143009185791,
		0.1272030621767044,
		0.0031734174117445947]
	},
	{
		"bufferView":5,
		"type":"VEC3",
		"componentType":5126,
		"count":122,
		"byteOffset":12,
		"min":[-0.9931514263153076,
		-0.3313809633255005,
		-0.996417760848999],
		"max":[0.9931514263153076,
		0.9998279809951782,
		0.9964185953140259]
	},
	{
		"bufferView":5,
		"type":"VEC2",
		"componentType":5126,
		"count":122,
		"byteOffset":24,
		"min":[0.10674599558115006,
		0.9648711681365967],
		"max":[0.43437448143959048,
		1.0]
	},
	{
		"bufferView":6,
		"type":"SCALAR",
		"componentType":5123,
		"count":1152,
		"byteOffset":0,
		"min":[0],
		"max":[213]
	},
	{
		"bufferView":7,
		"type":"VEC3",
		"componentType":5126,
		"count":214,
		"byteOffset":0,
		"min":[-0.07124516367912293,
		0.07611747086048126,
		-0.00799686461687088],
		"max":[-0.021321477368474008,
		0.09211118519306183,
		0.00799686461687088]
	},
	{
		"bufferView":7,
		"type":"VEC3",
		"componentType":5126,
		"count":214,
		"byteOffset":12,
		"min":[-1.0,
		-0.9999991655349731,
		-0.9999991655349731],
		"max":[0.002187553094699979,
		0.9999991655349731,
		0.9999991655349731]
	},
	{
		"bufferView":7,
		"type":"VEC2",
		"componentType":5126,
		"count":214,
		"byteOffset":24,
		"min":[0.8436679244041443,
		0.6963759660720825],
		"max":[0.9999948143959045,
		0.8654301166534424]
	},
	{
		"bufferView":8,
		"type":"SCALAR",
		"componentType":5123,
		"count":1152,
		"byteOffset":0,
		"min":[0],
		"max":[213]
	},
	{
		"bufferView":9,
		"type":"VEC3",
		"componentType":5126,
		"count":214,
		"byteOffset":0,
		"min":[0.021321477368474008,
		0.07611747086048126,
		-0.00799686461687088],
		"max":[0.07124516367912293,
		0.09211118519306183,
		0.00799686461687088]
	},
	{
		"bufferView":9,
		"type":"VEC3",
		"componentType":5126,
		"count":214,
		"byteOffset":12,
		"min":[-0.002187553094699979,
		-0.9999991655349731,
		-0.9999991655349731],
		"max":[1.0,
		0.9999991655349731,
		0.9999991655349731]
	},
	{
		"bufferView":9,
		"type":"VEC2",
		"componentType":5126,
		"count":214,
		"byteOffset":24,
		"min":[0.7818676233291626,
		0.8309459686279297],
		"max":[0.9381951689720154,
		0.9999998807907105]
	},
	{
		"bufferView":10,
		"type":"SCALAR",
		"componentType":5123,
		"count":3840,
		"byteOffset":0,
		"min":[0],
		"max":[668]
	},
	{
		"bufferView":11,
		"type":"VEC3",
		"componentType":5126,
		"count":669,
		"byteOffset":0,
		"min":[-0.030549485236406328,
		0.029082035645842553,
		-0.030008528381586076],
		"max":[0.030549488961696626,
		0.12415216118097305,
		0.03000853955745697]
	},
	{
		"bufferView":11,
		"type":"VEC3",
		"componentType":5126,
		"count":669,
		"byteOffset":12,
		"min":[-0.9997783899307251,
		-1.0,
		-0.9995061755180359],
		"max":[0.9997783899307251,
		1.0,
		0.9995061755180359]
	},
	{
		"bufferView":11,
		"type":"VEC2",
		"componentType":5126,
		"count":669,
		"byteOffset":24,
		"min":[0.01997585967183113,
		0.11545717716217041],
		"max":[0.5059391856193543,
		0.48039698600769045]
	},
	{
		"bufferView":12,
		"type":"SCALAR",
		"componentType":5123,
		"count":1908,
		"byteOffset":0,
		"min":[0],
		"max":[342]
	},
	{
		"bufferView":13,
		"type":"VEC3",
		"componentType":5126,
		"count":343,
		"byteOffset":0,
		"min":[0.003427308751270175,
		0.0000625583779765293,
		-0.013268500566482544],
		"max":[0.02996225655078888,
		0.06110452488064766,
		0.018142271786928178]
	},
	{
		"bufferView":13,
		"type":"VEC3",
		"componentType":5126,
		"count":343,
		"byteOffset":12,
		"min":[-0.9977572560310364,
		-1.0,
		-0.9976978898048401],
		"max":[0.9990257620811462,
		0.867099404335022,
		0.9987902045249939]
	},
	{
		"bufferView":13,
		"type":"VEC2",
		"componentType":5126,
		"count":343,
		"byteOffset":24,
		"min":[0.5128177404403687,
		0.7891579866409302],
		"max":[0.7933344841003418,
		0.9999998807907105]
	},
	{
		"bufferView":14,
		"type":"SCALAR",
		"componentType":5123,
		"count":1908,
		"byteOffset":0,
		"min":[0],
		"max":[342]
	},
	{
		"bufferView":15,
		"type":"VEC3",
		"componentType":5126,
		"count":343,
		"byteOffset":0,
		"min":[-0.02996225655078888,
		0.0000625583779765293,
		-0.013268500566482544],
		"max":[-0.003427308751270175,
		0.06110452488064766,
		0.018142271786928178]
	},
	{
		"bufferView":15,
		"type":"VEC3",
		"componentType":5126,
		"count":343,
		"byteOffset":12,
		"min":[-0.9990257620811462,
		-1.0,
		-0.9976978898048401],
		"max":[0.9977572560310364,
		0.867099404335022,
		0.9987902045249939]
	},
	{
		"bufferView":15,
		"type":"VEC2",
		"componentType":5126,
		"count":343,
		"byteOffset":24,
		"min":[0.4257355034351349,
		0.04818516969680786],
		"max":[0.7062548995018005,
		0.25901347398757937]
	}],
	"bufferViews":[{
		"buffer":0,
		"byteOffset":0,
		"byteLength":9120,
		"target":34963
	},
	{
		"buffer":0,
		"byteOffset":9120,
		"byteLength":25728,
		"target":34962,
		"byteStride":32
	},
	{
		"buffer":1,
		"byteOffset":0,
		"byteLength":1152,
		"target":34963
	},
	{
		"buffer":1,
		"byteOffset":1152,
		"byteLength":4928,
		"target":34962,
		"byteStride":32
	},
	{
		"buffer":2,
		"byteOffset":0,
		"byteLength":1152,
		"target":34963
	},
	{
		"buffer":2,
		"byteOffset":1152,
		"byteLength":3904,
		"target":34962,
		"byteStride":32
	},
	{
		"buffer":3,
		"byteOffset":0,
		"byteLength":2304,
		"target":34963
	},
	{
		"buffer":3,
		"byteOffset":2304,
		"byteLength":6848,
		"target":34962,
		"byteStride":32
	},
	{
		"buffer":4,
		"byteOffset":0,
		"byteLength":2304,
		"target":34963
	},
	{
		"buffer":4,
		"byteOffset":2304,
		"byteLength":6848,
		"target":34962,
		"byteStride":32
	},
	{
		"buffer":5,
		"byteOffset":0,
		"byteLength":7680,
		"target":34963
	},
	{
		"buffer":5,
		"byteOffset":7680,
		"byteLength":21408,
		"target":34962,
		"byteStride":32
	},
	{
		"buffer":6,
		"byteOffset":0,
		"byteLength":3816,
		"target":34963
	},
	{
		"buffer":6,
		"byteOffset":3816,
		"byteLength":10976,
		"target":34962,
		"byteStride":32
	},
	{
		"buffer":7,
		"byteOffset":0,
		"byteLength":3816,
		"target":34963
	},
	{
		"buffer":7,
		"byteOffset":3816,
		"byteLength":10976,
		"target":34962,
		"byteStride":32
	}],
	"images":[{
		"uri":"data:image/png;base64,"
	}],
	"samplers":[{
		"magFilter":9729,
		"minFilter":9729,
		"wrapS":10497,
		"wrapT":10497
	}],
	"textures":[{
		"sampler":0,
		"source":0
	}],
	"materials":[{
		"pbrMetallicRoughness":{
			"baseColorTexture":{
				"index":0
			},
			"baseColorFactor":[1.0,
			1.0,
			1.0,
			1.0],
			"metallicFactor":0.0,
			"roughnessFactor":0.5
		},
		"emissiveFactor":[0.0,
		0.0,
		0.0],
		"alphaMode":"OPAQUE",
		"doubleSided":false,
		"name":"aiStandardSurface6"
	}]
}