{
	"asset":{
		"version":"2.0",
		"generator":""
	},
	"scenes":[{
		"nodes":[0]
	}],
	"nodes":[{
		"name":"bed",
		"children":[1,
		2,
		3,
		4,
		5,
		6,
		7,
		8,
		9,
		10,
		11,
		12]
	},
	{
		"name":"covers",
		"mesh":0,
		"translation":[1.9188371712827376e-17,
		0.5954170227050781,
		0.31336989998817446],
		"rotation":[0.0,
		-0.7071067690849304,
		0.0,
		0.7071067690849304],
		"scale":[1.0,
		1.0,
		1.0]
	},
	{
		"name":"pillow_1",
		"mesh":1,
		"translation":[0.458217591047287,
		0.9422221183776856,
		-0.9785763621330261],
		"rotation":[0.0,
		-0.7071067690849304,
		0.0,
		0.7071067690849304],
		"scale":[1.0,
		1.0,
		1.0]
	},
	{
		"name":"pillow_2",
		"mesh":2,
		"translation":[-0.4599113166332245,
		0.9422221183776856,
		-0.9785763621330261],
		"rotation":[0.0,
		-0.7071067690849304,
		0.0,
		0.7071067690849304],
		"scale":[1.0,
		1.0,
		1.0]
	},
	{
		"name":"leg_1",
		"mesh":3,
		"translation":[-0.8591794967651367,
		0.14595848321914674,
		-1.1797575950622559],
		"rotation":[0.0,
		-0.7071067690849304,
		0.0,
		0.7071067690849304],
		"scale":[1.0,
		1.0,
		1.0]
	},
	{
		"name":"leg_2",
		"mesh":4,
		"translation":[-0.8591511249542236,
		0.14595848321914674,
		1.0989885330200196],
		"rotation":[0.0,
		-0.7071067690849304,
		0.0,
		0.7071067690849304],
		"scale":[1.0,
		1.0,
		1.0]
	},
	{
		"name":"leg_3",
		"mesh":5,
		"translation":[0.8591795563697815,
		0.14595848321914674,
		-1.1797575950622559],
		"rotation":[0.0,
		-0.7071067690849304,
		0.0,
		0.7071067690849304],
		"scale":[1.0,
		1.0,
		1.0]
	},
	{
		"name":"leg_4",
		"mesh":6,
		"translation":[0.8591511249542236,
		0.14595848321914674,
		1.0989885330200196],
		"rotation":[0.0,
		-0.7071067690849304,
		0.0,
		0.7071067690849304],
		"scale":[1.0,
		1.0,
		1.0]
	},
	{
		"name":"base",
		"mesh":7,
		"translation":[-2.6730333222844965e-18,
		0.30533236265182497,
		-0.0436539463698864],
		"rotation":[0.0,
		-0.7071067690849304,
		0.0,
		0.7071067690849304],
		"scale":[1.0,
		1.0,
		1.0]
	},
	{
		"name":"backboard",
		"mesh":8,
		"translation":[-7.525114818790089e-17,
		0.9279554486274719,
		-1.2289445400238038],
		"rotation":[0.0,
		-0.7071067690849304,
		0.0,
		0.7071067690849304],
		"scale":[1.0,
		1.0,
		1.0]
	},
	{
		"name":"mattress_cover",
		"mesh":9,
		"translation":[1.8361947492321042e-20,
		0.5302969813346863,
		0.0002998733543790877],
		"rotation":[0.0,
		-0.7071067690849304,
		0.0,
		0.7071067690849304],
		"scale":[1.0,
		1.0,
		1.0]
	},
	{
		"name":"edging",
		"mesh":10,
		"translation":[0.0,
		0.5214037299156189,
		0.0],
		"rotation":[0.0,
		-0.7071067690849304,
		0.0,
		0.7071067690849304],
		"scale":[1.0,
		1.0,
		1.0]
	},
	{
		"name":"mattress",
		"mesh":11,
		"translation":[0.0,
		0.5203893780708313,
		0.0],
		"rotation":[0.0,
		-0.7071067690849304,
		0.0,
		0.7071067690849304],
		"scale":[1.0,
		1.0,
		1.0]
	}],
	"meshes":[{
		"name":"covers",
		"primitives":[{
			"attributes":{
				"POSITION":1,
				"NORMAL":2,
				"TEXCOORD_0":3
			},
			"indices":0
		}]
	},
	{
		"name":"pillow_1",
		"primitives":[{
			"attributes":{
				"POSITION":5,
				"NORMAL":6,
				"TEXCOORD_0":7
			},
			"indices":4
		}]
	},
	{
		"name":"pillow_2",
		"primitives":[{
			"attributes":{
				"POSITION":9,
				"NORMAL":10,
				"TEXCOORD_0":11
			},
			"indices":8
		}]
	},
	{
		"name":"leg_1",
		"primitives":[{
			"attributes":{
				"POSITION":13,
				"NORMAL":14,
				"TEXCOORD_0":15
			},
			"indices":12
		}]
	},
	{
		"name":"leg_2",
		"primitives":[{
			"attributes":{
				"POSITION":17,
				"NORMAL":18,
				"TEXCOORD_0":19
			},
			"indices":16
		}]
	},
	{
		"name":"leg_3",
		"primitives":[{
			"attributes":{
				"POSITION":21,
				"NORMAL":22,
				"TEXCOORD_0":23
			},
			"indices":20
		}]
	},
	{
		"name":"leg_4",
		"primitives":[{
			"attributes":{
				"POSITION":25,
				"NORMAL":26,
				"TEXCOORD_0":27
			},
			"indices":24
		}]
	},
	{
		"name":"base",
		"primitives":[{
			"attributes":{
				"POSITION":29,
				"NORMAL":30,
				"TEXCOORD_0":31
			},
			"indices":28
		}]
	},
	{
		"name":"backboard",
		"primitives":[{
			"attributes":{
				"POSITION":33,
				"NORMAL":34,
				"TEXCOORD_0":35
			},
			"indices":32
		}]
	},
	{
		"name":"mattress_cover",
		"primitives":[{
			"attributes":{
				"POSITION":37,
				"NORMAL":38,
				"TEXCOORD_0":39
			},
			"indices":36
		}]
	},
	{
		"name":"edging",
		"primitives":[{
			"attributes":{
				"POSITION":41,
				"NORMAL":42,
				"TEXCOORD_0":43
			},
			"indices":40
		}]
	},
	{
		"name":"mattress",
		"primitives":[{
			"attributes":{
				"POSITION":45,
				"NORMAL":46,
				"TEXCOORD_0":47
			},
			"indices":44
		}]
	}],
	"accessors":[{
		"bufferView":0,
		"type":"SCALAR",
		"componentType":5123,
		"count":1980,
		"byteOffset":0,
		"min":[0],
		"max":[487]
	},
	{
		"bufferView":1,
		"type":"VEC3",
		"componentType":5126,
		"count":488,
		"byteOffset":0,
		"min":[-1.0764423608779908,
		-0.3813909888267517,
		-1.1145416498184205],
		"max":[1.0764423608779908,
		0.3813909888267517,
		1.1145416498184205]
	},
	{
		"bufferView":1,
		"type":"VEC3",
		"componentType":5126,
		"count":488,
		"byteOffset":12,
		"min":[-1.0,
		-1.0,
		-0.9984272718429565],
		"max":[0.9992013573646545,
		1.0,
		0.998691201210022]
	},
	{
		"bufferView":1,
		"type":"VEC2",
		"componentType":5126,
		"count":488,
		"byteOffset":24,
		"min":[0.00390625,
		0.5822147130966187],
		"max":[0.9675387740135193,
		0.99609375]
	},
	{
		"bufferView":2,
		"type":"SCALAR",
		"componentType":5123,
		"count":1296,
		"byteOffset":0,
		"min":[0],
		"max":[291]
	},
	{
		"bufferView":3,
		"type":"VEC3",
		"componentType":5126,
		"count":292,
		"byteOffset":0,
		"min":[-0.201274573802948,
		-0.20816971361637116,
		-0.4480939209461212],
		"max":[0.201274573802948,
		0.20816971361637116,
		0.4480939209461212]
	},
	{
		"bufferView":3,
		"type":"VEC3",
		"componentType":5126,
		"count":292,
		"byteOffset":12,
		"min":[-0.9999125599861145,
		-0.9977487325668335,
		-0.9961358904838562],
		"max":[0.9999817609786987,
		0.9995077252388,
		0.9961358904838562]
	},
	{
		"bufferView":3,
		"type":"VEC2",
		"componentType":5126,
		"count":292,
		"byteOffset":24,
		"min":[0.4436752498149872,
		0.14319097995758058],
		"max":[0.8772256970405579,
		0.36970311403274538]
	},
	{
		"bufferView":4,
		"type":"SCALAR",
		"componentType":5123,
		"count":1296,
		"byteOffset":0,
		"min":[0],
		"max":[291]
	},
	{
		"bufferView":5,
		"type":"VEC3",
		"componentType":5126,
		"count":292,
		"byteOffset":0,
		"min":[-0.201274573802948,
		-0.20816971361637116,
		-0.44809389114379885],
		"max":[0.201274573802948,
		0.20816971361637116,
		0.44809389114379885]
	},
	{
		"bufferView":5,
		"type":"VEC3",
		"componentType":5126,
		"count":292,
		"byteOffset":12,
		"min":[-0.9999125599861145,
		-0.9977487325668335,
		-0.9961358904838562],
		"max":[0.9999817609786987,
		0.9995077252388,
		0.9961358904838562]
	},
	{
		"bufferView":5,
		"type":"VEC2",
		"componentType":5126,
		"count":292,
		"byteOffset":24,
		"min":[0.32130473852157595,
		0.14461243152618409],
		"max":[0.6692163944244385,
		0.2479822039604187]
	},
	{
		"bufferView":6,
		"type":"SCALAR",
		"componentType":5123,
		"count":336,
		"byteOffset":0,
		"min":[0],
		"max":[105]
	},
	{
		"bufferView":7,
		"type":"VEC3",
		"componentType":5126,
		"count":106,
		"byteOffset":0,
		"min":[-0.09955494105815888,
		-0.14514271914958955,
		-0.09875263273715973],
		"max":[0.09955494105815888,
		0.14514271914958955,
		0.09875263273715973]
	},
	{
		"bufferView":7,
		"type":"VEC3",
		"componentType":5126,
		"count":106,
		"byteOffset":12,
		"min":[-0.9140110015869141,
		-1.0,
		-0.9166324734687805],
		"max":[0.8654537200927734,
		1.0,
		0.9482640027999878]
	},
	{
		"bufferView":7,
		"type":"VEC2",
		"componentType":5126,
		"count":106,
		"byteOffset":24,
		"min":[0.703712522983551,
		0.5397406816482544],
		"max":[0.7556762099266052,
		0.5971065759658814]
	},
	{
		"bufferView":8,
		"type":"SCALAR",
		"componentType":5123,
		"count":336,
		"byteOffset":0,
		"min":[0],
		"max":[105]
	},
	{
		"bufferView":9,
		"type":"VEC3",
		"componentType":5126,
		"count":106,
		"byteOffset":0,
		"min":[-0.10265800356864929,
		-0.14514271914958955,
		-0.09580795466899872],
		"max":[0.10265800356864929,
		0.14514271914958955,
		0.09580795466899872]
	},
	{
		"bufferView":9,
		"type":"VEC3",
		"componentType":5126,
		"count":106,
		"byteOffset":12,
		"min":[-0.8879483938217163,
		-1.0,
		-0.9014252424240112],
		"max":[0.9185889959335327,
		1.0,
		0.9229608178138733]
	},
	{
		"bufferView":9,
		"type":"VEC2",
		"componentType":5126,
		"count":106,
		"byteOffset":24,
		"min":[0.8834442496299744,
		0.3115501403808594],
		"max":[0.9354078769683838,
		0.36891597509384158]
	},
	{
		"bufferView":10,
		"type":"SCALAR",
		"componentType":5123,
		"count":336,
		"byteOffset":0,
		"min":[0],
		"max":[105]
	},
	{
		"bufferView":11,
		"type":"VEC3",
		"componentType":5126,
		"count":106,
		"byteOffset":0,
		"min":[-0.0995548665523529,
		-0.14514271914958955,
		-0.09875263273715973],
		"max":[0.0995548665523529,
		0.14514271914958955,
		0.09875263273715973]
	},
	{
		"bufferView":11,
		"type":"VEC3",
		"componentType":5126,
		"count":106,
		"byteOffset":12,
		"min":[-0.9140110015869141,
		-1.0,
		-0.9482640027999878],
		"max":[0.8654478192329407,
		1.0,
		0.9166324734687805]
	},
	{
		"bufferView":11,
		"type":"VEC2",
		"componentType":5126,
		"count":106,
		"byteOffset":24,
		"min":[0.6769440174102783,
		0.580788254737854],
		"max":[0.7267686128616333,
		0.6421619653701782]
	},
	{
		"bufferView":12,
		"type":"SCALAR",
		"componentType":5123,
		"count":336,
		"byteOffset":0,
		"min":[0],
		"max":[105]
	},
	{
		"bufferView":13,
		"type":"VEC3",
		"componentType":5126,
		"count":106,
		"byteOffset":0,
		"min":[-0.10265800356864929,
		-0.14514271914958955,
		-0.09580795466899872],
		"max":[0.10265800356864929,
		0.14514271914958955,
		0.09580795466899872]
	},
	{
		"bufferView":13,
		"type":"VEC3",
		"componentType":5126,
		"count":106,
		"byteOffset":12,
		"min":[-0.8879483938217163,
		-1.0,
		-0.9229608178138733],
		"max":[0.9185889959335327,
		1.0,
		0.9014252424240112]
	},
	{
		"bufferView":13,
		"type":"VEC2",
		"componentType":5126,
		"count":106,
		"byteOffset":24,
		"min":[0.27923986315727236,
		0.9347199201583862],
		"max":[0.3290644586086273,
		0.99609375]
	},
	{
		"bufferView":14,
		"type":"SCALAR",
		"componentType":5123,
		"count":324,
		"byteOffset":0,
		"min":[0],
		"max":[95]
	},
	{
		"bufferView":15,
		"type":"VEC3",
		"componentType":5126,
		"count":96,
		"byteOffset":0,
		"min":[-1.222834825515747,
		-0.037390805780887607,
		-0.9315709471702576],
		"max":[1.222834825515747,
		0.037390805780887607,
		0.9315709471702576]
	},
	{
		"bufferView":15,
		"type":"VEC3",
		"componentType":5126,
		"count":96,
		"byteOffset":12,
		"min":[-1.0,
		-1.0,
		-1.0],
		"max":[1.0,
		1.0,
		1.0]
	},
	{
		"bufferView":15,
		"type":"VEC2",
		"componentType":5126,
		"count":96,
		"byteOffset":24,
		"min":[0.3595455288887024,
		0.5322951078414917],
		"max":[0.6701786518096924,
		0.99609375]
	},
	{
		"bufferView":16,
		"type":"SCALAR",
		"componentType":5123,
		"count":540,
		"byteOffset":0,
		"min":[0],
		"max":[143]
	},
	{
		"bufferView":17,
		"type":"VEC3",
		"componentType":5126,
		"count":144,
		"byteOffset":0,
		"min":[-0.037390824407339099,
		-0.5896507501602173,
		-0.9315709471702576],
		"max":[0.037390824407339099,
		0.5896507501602173,
		0.9315709471702576]
	},
	{
		"bufferView":17,
		"type":"VEC3",
		"componentType":5126,
		"count":144,
		"byteOffset":12,
		"min":[-1.0,
		-1.0,
		-1.0],
		"max":[1.0,
		1.0,
		1.0]
	},
	{
		"bufferView":17,
		"type":"VEC2",
		"componentType":5126,
		"count":144,
		"byteOffset":24,
		"min":[0.01669703982770443,
		0.014072529971599579],
		"max":[0.25826403498649599,
		0.3123605251312256]
	},
	{
		"bufferView":18,
		"type":"SCALAR",
		"componentType":5123,
		"count":1152,
		"byteOffset":0,
		"min":[0],
		"max":[314]
	},
	{
		"bufferView":19,
		"type":"VEC3",
		"componentType":5126,
		"count":315,
		"byteOffset":0,
		"min":[-1.1903358697891236,
		-0.21698155999183656,
		-0.9448932409286499],
		"max":[1.1903358697891236,
		0.21698155999183656,
		0.9448932409286499]
	},
	{
		"bufferView":19,
		"type":"VEC3",
		"componentType":5126,
		"count":315,
		"byteOffset":12,
		"min":[-0.9986308217048645,
		-1.0,
		-1.0],
		"max":[0.9988383054733276,
		1.0,
		1.0]
	},
	{
		"bufferView":19,
		"type":"VEC2",
		"componentType":5126,
		"count":315,
		"byteOffset":24,
		"min":[0.00390625,
		0.24648213386535645],
		"max":[0.39911648631095889,
		0.5807399749755859]
	},
	{
		"bufferView":20,
		"type":"SCALAR",
		"componentType":5123,
		"count":3456,
		"byteOffset":0,
		"min":[0],
		"max":[1247]
	},
	{
		"bufferView":21,
		"type":"VEC3",
		"componentType":5126,
		"count":1248,
		"byteOffset":0,
		"min":[-1.1284841299057007,
		-0.14655420184135438,
		-0.8949854969978333],
		"max":[1.1284841299057007,
		0.14655420184135438,
		0.8949854969978333]
	},
	{
		"bufferView":21,
		"type":"VEC3",
		"componentType":5126,
		"count":1248,
		"byteOffset":12,
		"min":[-0.9241458177566528,
		-0.9330493807792664,
		-0.9241458177566528],
		"max":[0.9241458177566528,
		0.9330493807792664,
		0.9241458177566528]
	},
	{
		"bufferView":21,
		"type":"VEC2",
		"componentType":5126,
		"count":1248,
		"byteOffset":24,
		"min":[0.3060084283351898,
		0.10506099462509155],
		"max":[0.9934730529785156,
		0.24014252424240113]
	},
	{
		"bufferView":22,
		"type":"SCALAR",
		"componentType":5123,
		"count":5808,
		"byteOffset":0,
		"min":[0],
		"max":[1495]
	},
	{
		"bufferView":23,
		"type":"VEC3",
		"componentType":5126,
		"count":1496,
		"byteOffset":0,
		"min":[-1.1349445581436158,
		-0.23592084646224976,
		-0.8973525762557983],
		"max":[1.1349445581436158,
		0.23592084646224976,
		0.8973525762557983]
	},
	{
		"bufferView":23,
		"type":"VEC3",
		"componentType":5126,
		"count":1496,
		"byteOffset":12,
		"min":[-1.0,
		-1.0,
		-1.0],
		"max":[1.0,
		1.0,
		1.0]
	},
	{
		"bufferView":23,
		"type":"VEC2",
		"componentType":5126,
		"count":1496,
		"byteOffset":24,
		"min":[0.4054344594478607,
		0.23316484689712525],
		"max":[0.9776856899261475,
		0.644161581993103]
	}],
	"bufferViews":[{
		"buffer":0,
		"byteOffset":0,
		"byteLength":3960,
		"target":34963
	},
	{
		"buffer":0,
		"byteOffset":3960,
		"byteLength":15616,
		"target":34962,
		"byteStride":32
	},
	{
		"buffer":1,
		"byteOffset":0,
		"byteLength":2592,
		"target":34963
	},
	{
		"buffer":1,
		"byteOffset":2592,
		"byteLength":9344,
		"target":34962,
		"byteStride":32
	},
	{
		"buffer":2,
		"byteOffset":0,
		"byteLength":2592,
		"target":34963
	},
	{
		"buffer":2,
		"byteOffset":2592,
		"byteLength":9344,
		"target":34962,
		"byteStride":32
	},
	{
		"buffer":3,
		"byteOffset":0,
		"byteLength":672,
		"target":34963
	},
	{
		"buffer":3,
		"byteOffset":672,
		"byteLength":3392,
		"target":34962,
		"byteStride":32
	},
	{
		"buffer":4,
		"byteOffset":0,
		"byteLength":672,
		"target":34963
	},
	{
		"buffer":4,
		"byteOffset":672,
		"byteLength":3392,
		"target":34962,
		"byteStride":32
	},
	{
		"buffer":5,
		"byteOffset":0,
		"byteLength":672,
		"target":34963
	},
	{
		"buffer":5,
		"byteOffset":672,
		"byteLength":3392,
		"target":34962,
		"byteStride":32
	},
	{
		"buffer":6,
		"byteOffset":0,
		"byteLength":672,
		"target":34963
	},
	{
		"buffer":6,
		"byteOffset":672,
		"byteLength":3392,
		"target":34962,
		"byteStride":32
	},
	{
		"buffer":7,
		"byteOffset":0,
		"byteLength":648,
		"target":34963
	},
	{
		"buffer":7,
		"byteOffset":648,
		"byteLength":3072,
		"target":34962,
		"byteStride":32
	},
	{
		"buffer":8,
		"byteOffset":0,
		"byteLength":1080,
		"target":34963
	},
	{
		"buffer":8,
		"byteOffset":1080,
		"byteLength":4608,
		"target":34962,
		"byteStride":32
	},
	{
		"buffer":9,
		"byteOffset":0,
		"byteLength":2304,
		"target":34963
	},
	{
		"buffer":9,
		"byteOffset":2304,
		"byteLength":10080,
		"target":34962,
		"byteStride":32
	},
	{
		"buffer":10,
		"byteOffset":0,
		"byteLength":6912,
		"target":34963
	},
	{
		"buffer":10,
		"byteOffset":6912,
		"byteLength":39936,
		"target":34962,
		"byteStride":32
	},
	{
		"buffer":11,
		"byteOffset":0,
		"byteLength":11616,
		"target":34963
	},
	{
		"buffer":11,
		"byteOffset":11616,
		"byteLength":47872,
		"target":34962,
		"byteStride":32
	}],
	"buffers":[{
		"uri":"data:application/octet-stream;base64,",
		"byteLength":19576
	},
	{
		"uri":"data:application/octet-stream;base64,",
		"byteLength":11936
	},
	{
		"uri":"data:application/octet-stream;base64,",
		"byteLength":11936
	},
	{
		"uri":"data:application/octet-stream;base64,",
		"byteLength":4064
	},
	{
		"uri":"data:application/octet-stream;base64,",
		"byteLength":4064
	},
	{
		"uri":"data:application/octet-stream;base64,",
		"byteLength":4064
	},
	{
		"uri":"data:application/octet-stream;base64,",
		"byteLength":4064
	},
	{
		"uri":"data:application/octet-stream;base64,",
		"byteLength":3720
	},
	{
		"uri":"data:application/octet-stream;base64,",
		"byteLength":5688
	},
	{
		"uri":"data:application/octet-stream;base64,",
		"byteLength":12384
	},
	{
		"uri":"data:application/octet-stream;base64,",
		"byteLength":46848
	},
	{
		"uri":"data:application/octet-stream;base64,",
		"byteLength":59488
	}]
}