{
	"buffers":[{
		"uri":"data:application/octet-stream;base64,",
		"byteLength":4768
	},
	{
		"uri":"data:application/octet-stream;base64,",
		"byteLength":2136
	},
	{
		"uri":"data:application/octet-stream;base64,",
		"byteLength":2136
	},
	{
		"uri":"data:application/octet-stream;base64,",
		"byteLength":2136
	},
	{
		"uri":"data:application/octet-stream;base64,",
		"byteLength":2136
	},
	{
		"uri":"data:application/octet-stream;base64,",
		"byteLength":2136
	},
	{
		"uri":"data:application/octet-stream;base64,",
		"byteLength":2136
	},
	{
		"uri":"data:application/octet-stream;base64,",
		"byteLength":2136
	},
	{
		"uri":"data:application/octet-stream;base64,",
		"byteLength":2136
	},
	{
		"uri":"data:application/octet-stream;base64,",
		"byteLength":2136
	},
	{
		"uri":"data:application/octet-stream;base64,",
		"byteLength":73280
	},
	{
		"uri":"data:application/octet-stream;base64,",
		"byteLength":73280
	},
	{
		"uri":"data:application/octet-stream;base64,",
		"byteLength":73280
	},
	{
		"uri":"data:application/octet-stream;base64,",
		"byteLength":72512
	}],
	"asset":{
		"version":"2.0",
		"generator":"Maxon Cinema 4D 2023.2.2 (#200000219)"
	},
	"scenes":[{
		"nodes":[0,
		1]
	}],
	"bufferViews":[{
		"buffer":0,
		"byteOffset":0,
		"byteLength":960,
		"target":34963
	},
	{
		"buffer":0,
		"byteOffset":960,
		"byteLength":3808,
		"target":34962,
		"byteStride":32
	},
	{
		"buffer":1,
		"byteOffset":0,
		"byteLength":216,
		"target":34963
	},
	{
		"buffer":1,
		"byteOffset":216,
		"byteLength":1920,
		"target":34962,
		"byteStride":32
	},
	{
		"buffer":2,
		"byteOffset":0,
		"byteLength":216,
		"target":34963
	},
	{
		"buffer":2,
		"byteOffset":216,
		"byteLength":1920,
		"target":34962,
		"byteStride":32
	},
	{
		"buffer":3,
		"byteOffset":0,
		"byteLength":216,
		"target":34963
	},
	{
		"buffer":3,
		"byteOffset":216,
		"byteLength":1920,
		"target":34962,
		"byteStride":32
	},
	{
		"buffer":4,
		"byteOffset":0,
		"byteLength":216,
		"target":34963
	},
	{
		"buffer":4,
		"byteOffset":216,
		"byteLength":1920,
		"target":34962,
		"byteStride":32
	},
	{
		"buffer":5,
		"byteOffset":0,
		"byteLength":216,
		"target":34963
	},
	{
		"buffer":5,
		"byteOffset":216,
		"byteLength":1920,
		"target":34962,
		"byteStride":32
	},
	{
		"buffer":6,
		"byteOffset":0,
		"byteLength":216,
		"target":34963
	},
	{
		"buffer":6,
		"byteOffset":216,
		"byteLength":1920,
		"target":34962,
		"byteStride":32
	},
	{
		"buffer":7,
		"byteOffset":0,
		"byteLength":216,
		"target":34963
	},
	{
		"buffer":7,
		"byteOffset":216,
		"byteLength":1920,
		"target":34962,
		"byteStride":32
	},
	{
		"buffer":8,
		"byteOffset":0,
		"byteLength":216,
		"target":34963
	},
	{
		"buffer":8,
		"byteOffset":216,
		"byteLength":1920,
		"target":34962,
		"byteStride":32
	},
	{
		"buffer":9,
		"byteOffset":0,
		"byteLength":216,
		"target":34963
	},
	{
		"buffer":9,
		"byteOffset":216,
		"byteLength":1920,
		"target":34962,
		"byteStride":32
	},
	{
		"buffer":10,
		"byteOffset":0,
		"byteLength":16896,
		"target":34963
	},
	{
		"buffer":10,
		"byteOffset":16896,
		"byteLength":56384,
		"target":34962,
		"byteStride":32
	},
	{
		"buffer":11,
		"byteOffset":0,
		"byteLength":16896,
		"target":34963
	},
	{
		"buffer":11,
		"byteOffset":16896,
		"byteLength":56384,
		"target":34962,
		"byteStride":32
	},
	{
		"buffer":12,
		"byteOffset":0,
		"byteLength":16896,
		"target":34963
	},
	{
		"buffer":12,
		"byteOffset":16896,
		"byteLength":56384,
		"target":34962,
		"byteStride":32
	},
	{
		"buffer":13,
		"byteOffset":0,
		"byteLength":16896,
		"target":34963
	},
	{
		"buffer":13,
		"byteOffset":16896,
		"byteLength":55616,
		"target":34962,
		"byteStride":32
	}],
	"nodes":[{
		"name":"Artichoke new",
		"translation":[0.0,
		-0.0031034518033266069,
		0.0],
		"rotation":[0.0,
		0.0,
		0.0,
		-1.0],
		"scale":[4.0,
		4.0,
		4.0],
		"children":[2,
		3]
	},
	{
		"name":"Cloner",
		"translation":[0.0,
		0.004251578822731972,
		0.0],
		"rotation":[0.0,
		0.0,
		0.0,
		-1.0],
		"scale":[1.0,
		1.0,
		1.0],
		"children":[4,
		5,
		6,
		7,
		8,
		9,
		10,
		11,
		12]
	},
	{
		"mesh":0,
		"name":"Cylinder"
	},
	{
		"name":"Cloner",
		"children":[13,
		14,
		15,
		16]
	},
	{
		"mesh":1,
		"name":"star02.4 0",
		"translation":[0.0,
		0.0,
		-0.009999999776482582],
		"rotation":[0.0,
		0.0,
		0.0,
		-1.0],
		"scale":[1.0,
		1.0,
		1.0]
	},
	{
		"mesh":2,
		"name":"star02.3 1",
		"translation":[0.0064278761856257919,
		0.0,
		-0.007660444360226393],
		"rotation":[0.0,
		-0.3420201539993286,
		0.0,
		0.9396926164627075],
		"scale":[1.0,
		1.0,
		1.0]
	},
	{
		"mesh":3,
		"name":"star02.2 2",
		"translation":[0.009848077781498433,
		0.0,
		-0.0017364817904308439],
		"rotation":[0.0,
		-0.6427876353263855,
		0.0,
		0.7660444378852844],
		"scale":[1.0,
		1.0,
		1.0]
	},
	{
		"mesh":4,
		"name":"star02.1 3",
		"translation":[0.008660254068672657,
		0.0,
		0.004999999888241291],
		"rotation":[0.0,
		-0.8660253882408142,
		0.0,
		0.5],
		"scale":[1.0,
		1.0,
		1.0]
	},
	{
		"mesh":5,
		"name":"star02.4 4",
		"translation":[0.003420201363041997,
		0.0,
		0.009396926499903202],
		"rotation":[0.0,
		-0.9848077297210693,
		0.0,
		0.1736481785774231],
		"scale":[1.0,
		1.0,
		1.0]
	},
	{
		"mesh":6,
		"name":"star02.3 5",
		"translation":[-0.003420201363041997,
		0.0,
		0.009396926499903202],
		"rotation":[7.337389362760405e-9,
		-0.9848077297210693,
		1.2937797500001125e-9,
		-0.1736481785774231],
		"scale":[1.0,
		1.0,
		1.0]
	},
	{
		"mesh":7,
		"name":"star02.2 6",
		"translation":[-0.008660254068672657,
		0.0,
		0.004999999888241291],
		"rotation":[0.0,
		-0.8660253882408142,
		0.0,
		-0.5],
		"scale":[1.0,
		1.0,
		1.0]
	},
	{
		"mesh":8,
		"name":"star02.1 7",
		"translation":[-0.009848077781498433,
		0.0,
		-0.0017364817904308439],
		"rotation":[0.0,
		-0.6427876353263855,
		0.0,
		-0.7660444378852844],
		"scale":[1.0,
		1.0,
		1.0]
	},
	{
		"mesh":9,
		"name":"star02.4 8",
		"translation":[-0.0064278761856257919,
		0.0,
		-0.007660444360226393],
		"rotation":[0.0,
		-0.3420201539993286,
		0.0,
		-0.9396926164627075],
		"scale":[1.0,
		1.0,
		1.0]
	},
	{
		"name":"Cloth Surface Instance.3 0",
		"children":[17]
	},
	{
		"name":"Cloth Surface Instance.2 1",
		"translation":[0.0,
		0.00033333332976326346,
		0.0],
		"rotation":[1.357759460418606e-9,
		-0.18223538994789124,
		7.325819950665391e-9,
		-0.9832549095153809],
		"scale":[0.8666667342185974,
		1.116666555404663,
		0.8666667342185974],
		"children":[18]
	},
	{
		"name":"Cloth Surface Instance.1 2",
		"translation":[0.0,
		0.0006666666595265269,
		0.0],
		"rotation":[0.0,
		-0.35836806893348696,
		0.0,
		-0.9335803985595703],
		"scale":[0.7333332300186157,
		1.2333334684371949,
		0.7333332300186157],
		"children":[19]
	},
	{
		"name":"Null 3",
		"translation":[0.0,
		0.0010000000474974514,
		0.0],
		"rotation":[0.0,
		-0.5224985480308533,
		0.0,
		-0.8526401519775391],
		"scale":[0.6000000238418579,
		1.350000023841858,
		0.6000000238418579],
		"children":[20]
	},
	{
		"mesh":10,
		"name":"Disc",
		"translation":[0.0,
		-0.0032339473254978658,
		0.0],
		"rotation":[0.0,
		0.0,
		0.0,
		-1.0],
		"scale":[1.0,
		1.0,
		1.0]
	},
	{
		"mesh":11,
		"name":"Disc",
		"translation":[0.0,
		-0.0032339473254978658,
		0.0],
		"rotation":[0.0,
		0.0,
		0.0,
		-1.0],
		"scale":[1.0,
		1.0,
		1.0]
	},
	{
		"mesh":12,
		"name":"Disc",
		"translation":[0.0,
		-0.0032339473254978658,
		0.0],
		"rotation":[0.0,
		0.0,
		0.0,
		-1.0],
		"scale":[1.0,
		1.0,
		1.0]
	},
	{
		"name":"Cloth Surface Instance",
		"translation":[0.0,
		0.00033333332976326346,
		0.0],
		"rotation":[0.0,
		-0.30901700258255007,
		0.0,
		-0.9510565400123596],
		"scale":[1.0,
		0.9300000071525574,
		1.0],
		"children":[21]
	},
	{
		"mesh":13,
		"name":"Disc",
		"translation":[0.0,
		-0.0032339473254978658,
		0.0],
		"rotation":[0.0,
		0.0,
		0.0,
		-1.0],
		"scale":[1.0,
		1.0,
		1.0]
	}],
	"meshes":[{
		"name":"Cylinder",
		"primitives":[{
			"attributes":{
				"POSITION":1,
				"NORMAL":2,
				"TEXCOORD_0":3
			},
			"indices":0,
			"material":0
		}]
	},
	{
		"name":"star02.4 0",
		"primitives":[{
			"attributes":{
				"POSITION":5,
				"NORMAL":6,
				"TEXCOORD_0":7
			},
			"indices":4,
			"material":1
		}]
	},
	{
		"name":"star02.3 1",
		"primitives":[{
			"attributes":{
				"POSITION":9,
				"NORMAL":10,
				"TEXCOORD_0":11
			},
			"indices":8,
			"material":1
		}]
	},
	{
		"name":"star02.2 2",
		"primitives":[{
			"attributes":{
				"POSITION":13,
				"NORMAL":14,
				"TEXCOORD_0":15
			},
			"indices":12,
			"material":1
		}]
	},
	{
		"name":"star02.1 3",
		"primitives":[{
			"attributes":{
				"POSITION":17,
				"NORMAL":18,
				"TEXCOORD_0":19
			},
			"indices":16,
			"material":1
		}]
	},
	{
		"name":"star02.4 4",
		"primitives":[{
			"attributes":{
				"POSITION":21,
				"NORMAL":22,
				"TEXCOORD_0":23
			},
			"indices":20,
			"material":1
		}]
	},
	{
		"name":"star02.3 5",
		"primitives":[{
			"attributes":{
				"POSITION":25,
				"NORMAL":26,
				"TEXCOORD_0":27
			},
			"indices":24,
			"material":1
		}]
	},
	{
		"name":"star02.2 6",
		"primitives":[{
			"attributes":{
				"POSITION":29,
				"NORMAL":30,
				"TEXCOORD_0":31
			},
			"indices":28,
			"material":1
		}]
	},
	{
		"name":"star02.1 7",
		"primitives":[{
			"attributes":{
				"POSITION":33,
				"NORMAL":34,
				"TEXCOORD_0":35
			},
			"indices":32,
			"material":1
		}]
	},
	{
		"name":"star02.4 8",
		"primitives":[{
			"attributes":{
				"POSITION":37,
				"NORMAL":38,
				"TEXCOORD_0":39
			},
			"indices":36,
			"material":1
		}]
	},
	{
		"name":"Disc",
		"primitives":[{
			"attributes":{
				"POSITION":41,
				"NORMAL":42,
				"TEXCOORD_0":43
			},
			"indices":40,
			"material":0
		}]
	},
	{
		"name":"Disc",
		"primitives":[{
			"attributes":{
				"POSITION":45,
				"NORMAL":46,
				"TEXCOORD_0":47
			},
			"indices":44,
			"material":2
		}]
	},
	{
		"name":"Disc",
		"primitives":[{
			"attributes":{
				"POSITION":49,
				"NORMAL":50,
				"TEXCOORD_0":51
			},
			"indices":48,
			"material":3
		}]
	},
	{
		"name":"Disc",
		"primitives":[{
			"attributes":{
				"POSITION":53,
				"NORMAL":54,
				"TEXCOORD_0":55
			},
			"indices":52,
			"material":4
		}]
	}],
	"accessors":[{
		"bufferView":0,
		"type":"SCALAR",
		"componentType":5123,
		"count":480,
		"byteOffset":0,
		"min":[0],
		"max":[118]
	},
	{
		"bufferView":1,
		"type":"VEC3",
		"componentType":5126,
		"count":119,
		"byteOffset":0,
		"min":[-0.00033333332976326346,
		-0.00033333332976326346,
		-0.00033333332976326346],
		"max":[0.00033333332976326346,
		0.00033333332976326346,
		0.00033333332976326346]
	},
	{
		"bufferView":1,
		"type":"VEC3",
		"componentType":5126,
		"count":119,
		"byteOffset":12,
		"min":[-1.0,
		-1.0,
		-1.0],
		"max":[1.0,
		1.0,
		1.0]
	},
	{
		"bufferView":1,
		"type":"VEC2",
		"componentType":5126,
		"count":119,
		"byteOffset":24,
		"min":[0.0,
		0.0],
		"max":[1.0,
		1.0]
	},
	{
		"bufferView":2,
		"type":"SCALAR",
		"componentType":5123,
		"count":108,
		"byteOffset":0,
		"min":[0],
		"max":[59]
	},
	{
		"bufferView":3,
		"type":"VEC3",
		"componentType":5126,
		"count":60,
		"byteOffset":0,
		"min":[-0.0010671993950381876,
		-0.0010005864314734936,
		-0.00008588430500822142],
		"max":[0.0010671993950381876,
		0.0010005864314734936,
		0.00008588430500822142]
	},
	{
		"bufferView":3,
		"type":"VEC3",
		"componentType":5126,
		"count":60,
		"byteOffset":12,
		"min":[-0.9600945711135864,
		-0.9109541177749634,
		-0.9999852180480957],
		"max":[0.9544443488121033,
		0.9995776414871216,
		0.9999852180480957]
	},
	{
		"bufferView":3,
		"type":"VEC2",
		"componentType":5126,
		"count":60,
		"byteOffset":24,
		"min":[0.3080698847770691,
		0.30408674478530886],
		"max":[0.5,
		0.6959131956100464]
	},
	{
		"bufferView":4,
		"type":"SCALAR",
		"componentType":5123,
		"count":108,
		"byteOffset":0,
		"min":[0],
		"max":[59]
	},
	{
		"bufferView":5,
		"type":"VEC3",
		"componentType":5126,
		"count":60,
		"byteOffset":0,
		"min":[-0.0010671993950381876,
		-0.0010005864314734936,
		-0.00008588430500822142],
		"max":[0.0010671993950381876,
		0.0010005864314734936,
		0.00008588430500822142]
	},
	{
		"bufferView":5,
		"type":"VEC3",
		"componentType":5126,
		"count":60,
		"byteOffset":12,
		"min":[-0.9600945711135864,
		-0.9109541177749634,
		-0.9999852180480957],
		"max":[0.9544443488121033,
		0.9995776414871216,
		0.9999852180480957]
	},
	{
		"bufferView":5,
		"type":"VEC2",
		"componentType":5126,
		"count":60,
		"byteOffset":24,
		"min":[0.3080698847770691,
		0.30408674478530886],
		"max":[0.5,
		0.6959131956100464]
	},
	{
		"bufferView":6,
		"type":"SCALAR",
		"componentType":5123,
		"count":108,
		"byteOffset":0,
		"min":[0],
		"max":[59]
	},
	{
		"bufferView":7,
		"type":"VEC3",
		"componentType":5126,
		"count":60,
		"byteOffset":0,
		"min":[-0.0010671993950381876,
		-0.0010005864314734936,
		-0.00008588430500822142],
		"max":[0.0010671993950381876,
		0.0010005864314734936,
		0.00008588430500822142]
	},
	{
		"bufferView":7,
		"type":"VEC3",
		"componentType":5126,
		"count":60,
		"byteOffset":12,
		"min":[-0.9600945711135864,
		-0.9109541177749634,
		-0.9999852180480957],
		"max":[0.9544443488121033,
		0.9995776414871216,
		0.9999852180480957]
	},
	{
		"bufferView":7,
		"type":"VEC2",
		"componentType":5126,
		"count":60,
		"byteOffset":24,
		"min":[0.3080698847770691,
		0.30408674478530886],
		"max":[0.5,
		0.6959131956100464]
	},
	{
		"bufferView":8,
		"type":"SCALAR",
		"componentType":5123,
		"count":108,
		"byteOffset":0,
		"min":[0],
		"max":[59]
	},
	{
		"bufferView":9,
		"type":"VEC3",
		"componentType":5126,
		"count":60,
		"byteOffset":0,
		"min":[-0.0010671993950381876,
		-0.0010005864314734936,
		-0.00008588430500822142],
		"max":[0.0010671993950381876,
		0.0010005864314734936,
		0.00008588430500822142]
	},
	{
		"bufferView":9,
		"type":"VEC3",
		"componentType":5126,
		"count":60,
		"byteOffset":12,
		"min":[-0.9600945711135864,
		-0.9109541177749634,
		-0.9999852180480957],
		"max":[0.9544443488121033,
		0.9995776414871216,
		0.9999852180480957]
	},
	{
		"bufferView":9,
		"type":"VEC2",
		"componentType":5126,
		"count":60,
		"byteOffset":24,
		"min":[0.3080698847770691,
		0.30408674478530886],
		"max":[0.5,
		0.6959131956100464]
	},
	{
		"bufferView":10,
		"type":"SCALAR",
		"componentType":5123,
		"count":108,
		"byteOffset":0,
		"min":[0],
		"max":[59]
	},
	{
		"bufferView":11,
		"type":"VEC3",
		"componentType":5126,
		"count":60,
		"byteOffset":0,
		"min":[-0.0010671993950381876,
		-0.0010005864314734936,
		-0.00008588430500822142],
		"max":[0.0010671993950381876,
		0.0010005864314734936,
		0.00008588430500822142]
	},
	{
		"bufferView":11,
		"type":"VEC3",
		"componentType":5126,
		"count":60,
		"byteOffset":12,
		"min":[-0.9600945711135864,
		-0.9109541177749634,
		-0.9999852180480957],
		"max":[0.9544443488121033,
		0.9995776414871216,
		0.9999852180480957]
	},
	{
		"bufferView":11,
		"type":"VEC2",
		"componentType":5126,
		"count":60,
		"byteOffset":24,
		"min":[0.3080698847770691,
		0.30408674478530886],
		"max":[0.5,
		0.6959131956100464]
	},
	{
		"bufferView":12,
		"type":"SCALAR",
		"componentType":5123,
		"count":108,
		"byteOffset":0,
		"min":[0],
		"max":[59]
	},
	{
		"bufferView":13,
		"type":"VEC3",
		"componentType":5126,
		"count":60,
		"byteOffset":0,
		"min":[-0.0010671993950381876,
		-0.0010005864314734936,
		-0.00008588430500822142],
		"max":[0.0010671993950381876,
		0.0010005864314734936,
		0.00008588430500822142]
	},
	{
		"bufferView":13,
		"type":"VEC3",
		"componentType":5126,
		"count":60,
		"byteOffset":12,
		"min":[-0.9600945711135864,
		-0.9109541177749634,
		-0.9999852180480957],
		"max":[0.9544443488121033,
		0.9995776414871216,
		0.9999852180480957]
	},
	{
		"bufferView":13,
		"type":"VEC2",
		"componentType":5126,
		"count":60,
		"byteOffset":24,
		"min":[0.3080698847770691,
		0.30408674478530886],
		"max":[0.5,
		0.6959131956100464]
	},
	{
		"bufferView":14,
		"type":"SCALAR",
		"componentType":5123,
		"count":108,
		"byteOffset":0,
		"min":[0],
		"max":[59]
	},
	{
		"bufferView":15,
		"type":"VEC3",
		"componentType":5126,
		"count":60,
		"byteOffset":0,
		"min":[-0.0010671993950381876,
		-0.0010005864314734936,
		-0.00008588430500822142],
		"max":[0.0010671993950381876,
		0.0010005864314734936,
		0.00008588430500822142]
	},
	{
		"bufferView":15,
		"type":"VEC3",
		"componentType":5126,
		"count":60,
		"byteOffset":12,
		"min":[-0.9600945711135864,
		-0.9109541177749634,
		-0.9999852180480957],
		"max":[0.9544443488121033,
		0.9995776414871216,
		0.9999852180480957]
	},
	{
		"bufferView":15,
		"type":"VEC2",
		"componentType":5126,
		"count":60,
		"byteOffset":24,
		"min":[0.3080698847770691,
		0.30408674478530886],
		"max":[0.5,
		0.6959131956100464]
	},
	{
		"bufferView":16,
		"type":"SCALAR",
		"componentType":5123,
		"count":108,
		"byteOffset":0,
		"min":[0],
		"max":[59]
	},
	{
		"bufferView":17,
		"type":"VEC3",
		"componentType":5126,
		"count":60,
		"byteOffset":0,
		"min":[-0.0010671993950381876,
		-0.0010005864314734936,
		-0.00008588430500822142],
		"max":[0.0010671993950381876,
		0.0010005864314734936,
		0.00008588430500822142]
	},
	{
		"bufferView":17,
		"type":"VEC3",
		"componentType":5126,
		"count":60,
		"byteOffset":12,
		"min":[-0.9600945711135864,
		-0.9109541177749634,
		-0.9999852180480957],
		"max":[0.9544443488121033,
		0.9995776414871216,
		0.9999852180480957]
	},
	{
		"bufferView":17,
		"type":"VEC2",
		"componentType":5126,
		"count":60,
		"byteOffset":24,
		"min":[0.3080698847770691,
		0.30408674478530886],
		"max":[0.5,
		0.6959131956100464]
	},
	{
		"bufferView":18,
		"type":"SCALAR",
		"componentType":5123,
		"count":108,
		"byteOffset":0,
		"min":[0],
		"max":[59]
	},
	{
		"bufferView":19,
		"type":"VEC3",
		"componentType":5126,
		"count":60,
		"byteOffset":0,
		"min":[-0.0010671993950381876,
		-0.0010005864314734936,
		-0.00008588430500822142],
		"max":[0.0010671993950381876,
		0.0010005864314734936,
		0.00008588430500822142]
	},
	{
		"bufferView":19,
		"type":"VEC3",
		"componentType":5126,
		"count":60,
		"byteOffset":12,
		"min":[-0.9600945711135864,
		-0.9109541177749634,
		-0.9999852180480957],
		"max":[0.9544443488121033,
		0.9995776414871216,
		0.9999852180480957]
	},
	{
		"bufferView":19,
		"type":"VEC2",
		"componentType":5126,
		"count":60,
		"byteOffset":24,
		"min":[0.3080698847770691,
		0.30408674478530886],
		"max":[0.5,
		0.6959131956100464]
	},
	{
		"bufferView":20,
		"type":"SCALAR",
		"componentType":5123,
		"count":8448,
		"byteOffset":0,
		"min":[0],
		"max":[1761]
	},
	{
		"bufferView":21,
		"type":"VEC3",
		"componentType":5126,
		"count":1762,
		"byteOffset":0,
		"min":[-0.002051701070740819,
		0.0033688037656247617,
		-0.002051701070740819],
		"max":[0.002051701070740819,
		0.005593649577349424,
		0.002051701070740819]
	},
	{
		"bufferView":21,
		"type":"VEC3",
		"componentType":5126,
		"count":1762,
		"byteOffset":12,
		"min":[-0.9981659054756165,
		-1.0,
		-0.9981659054756165],
		"max":[0.9981659054756165,
		1.0,
		0.9981659054756165]
	},
	{
		"bufferView":21,
		"type":"VEC2",
		"componentType":5126,
		"count":1762,
		"byteOffset":24,
		"min":[0.0,
		0.0],
		"max":[1.0,
		1.0]
	},
	{
		"bufferView":22,
		"type":"SCALAR",
		"componentType":5123,
		"count":8448,
		"byteOffset":0,
		"min":[0],
		"max":[1761]
	},
	{
		"bufferView":23,
		"type":"VEC3",
		"componentType":5126,
		"count":1762,
		"byteOffset":0,
		"min":[-0.002051701070740819,
		0.0033688037656247617,
		-0.002051701070740819],
		"max":[0.002051701070740819,
		0.005593649577349424,
		0.002051701070740819]
	},
	{
		"bufferView":23,
		"type":"VEC3",
		"componentType":5126,
		"count":1762,
		"byteOffset":12,
		"min":[-0.9981659054756165,
		-1.0,
		-0.9981659054756165],
		"max":[0.9981659054756165,
		1.0,
		0.9981659054756165]
	},
	{
		"bufferView":23,
		"type":"VEC2",
		"componentType":5126,
		"count":1762,
		"byteOffset":24,
		"min":[0.0,
		0.0],
		"max":[1.0,
		1.0]
	},
	{
		"bufferView":24,
		"type":"SCALAR",
		"componentType":5123,
		"count":8448,
		"byteOffset":0,
		"min":[0],
		"max":[1761]
	},
	{
		"bufferView":25,
		"type":"VEC3",
		"componentType":5126,
		"count":1762,
		"byteOffset":0,
		"min":[-0.002051701070740819,
		0.0033688037656247617,
		-0.002051701070740819],
		"max":[0.002051701070740819,
		0.005593649577349424,
		0.002051701070740819]
	},
	{
		"bufferView":25,
		"type":"VEC3",
		"componentType":5126,
		"count":1762,
		"byteOffset":12,
		"min":[-0.9981659054756165,
		-1.0,
		-0.9981659054756165],
		"max":[0.9981659054756165,
		1.0,
		0.9981659054756165]
	},
	{
		"bufferView":25,
		"type":"VEC2",
		"componentType":5126,
		"count":1762,
		"byteOffset":24,
		"min":[0.0,
		0.0],
		"max":[1.0,
		1.0]
	},
	{
		"bufferView":26,
		"type":"SCALAR",
		"componentType":5123,
		"count":8448,
		"byteOffset":0,
		"min":[0],
		"max":[1737]
	},
	{
		"bufferView":27,
		"type":"VEC3",
		"componentType":5126,
		"count":1738,
		"byteOffset":0,
		"min":[-0.001683118287473917,
		0.0033688037656247617,
		-0.001683118287473917],
		"max":[0.001683118287473917,
		0.005593649577349424,
		0.001683118287473917]
	},
	{
		"bufferView":27,
		"type":"VEC3",
		"componentType":5126,
		"count":1738,
		"byteOffset":12,
		"min":[-0.9994778037071228,
		-1.0,
		-0.9994778037071228],
		"max":[0.9994778037071228,
		1.0,
		0.9994778037071228]
	},
	{
		"bufferView":27,
		"type":"VEC2",
		"componentType":5126,
		"count":1738,
		"byteOffset":24,
		"min":[0.0,
		0.0],
		"max":[1.0,
		1.0]
	}],
	"materials":[{
		"pbrMetallicRoughness":{
			"baseColorFactor":[0.26226666666666678,
			0.56,
			0.23520000000000006,
			1.0],
			"metallicFactor":0.0,
			"roughnessFactor":0.5
		},
		"emissiveFactor":[0.0,
		0.0,
		0.0],
		"alphaMode":"OPAQUE",
		"name":"Blue.1",
		"doubleSided":false
	},
	{
		"pbrMetallicRoughness":{
			"baseColorFactor":[0.9450980392156863,
			0.7372549019607844,
			0.0941176470588235,
			1.0],
			"metallicFactor":0.0,
			"roughnessFactor":0.5
		},
		"emissiveFactor":[0.0,
		0.0,
		0.0],
		"alphaMode":"OPAQUE",
		"name":"yellowMTL",
		"doubleSided":false
	},
	{
		"pbrMetallicRoughness":{
			"baseColorFactor":[0.3907666666666665,
			0.76,
			0.35719999999999998,
			1.0],
			"metallicFactor":0.0,
			"roughnessFactor":0.5
		},
		"emissiveFactor":[0.0,
		0.0,
		0.0],
		"alphaMode":"OPAQUE",
		"name":"Blue.1",
		"doubleSided":false
	},
	{
		"pbrMetallicRoughness":{
			"baseColorFactor":[0.6470333333333335,
			0.9400000000000001,
			0.6204,
			1.0],
			"metallicFactor":0.0,
			"roughnessFactor":0.5
		},
		"emissiveFactor":[0.0,
		0.0,
		0.0],
		"alphaMode":"OPAQUE",
		"name":"Blue.1",
		"doubleSided":false
	},
	{
		"pbrMetallicRoughness":{
			"baseColorFactor":[0.7616666666666666,
			1.0,
			0.74,
			1.0],
			"metallicFactor":0.0,
			"roughnessFactor":0.5
		},
		"emissiveFactor":[0.0,
		0.0,
		0.0],
		"alphaMode":"OPAQUE",
		"name":"Blue.1",
		"doubleSided":false
	}]
}