{
	"buffers":[{
		"uri":"data:application/octet-stream;base64,",
		"byteLength":6336
	},
	{
		"uri":"data:application/octet-stream;base64,",
		"byteLength":29696
	},
	{
		"uri":"data:application/octet-stream;base64,",
		"byteLength":65120
	},
	{
		"uri":"data:application/octet-stream;base64,",
		"byteLength":75648
	},
	{
		"uri":"data:application/octet-stream;base64,",
		"byteLength":4192
	},
	{
		"uri":"data:application/octet-stream;base64,",
		"byteLength":11432
	},
	{
		"uri":"data:application/octet-stream;base64,",
		"byteLength":10184
	},
	{
		"uri":"data:application/octet-stream;base64,",
		"byteLength":58304
	},
	{
		"uri":"data:application/octet-stream;base64,",
		"byteLength":7760
	},
	{
		"uri":"data:application/octet-stream;base64,",
		"byteLength":11936
	},
	{
		"uri":"data:application/octet-stream;base64,",
		"byteLength":824
	},
	{
		"uri":"data:application/octet-stream;base64,",
		"byteLength":2860
	},
	{
		"uri":"data:application/octet-stream;base64,",
		"byteLength":4612
	}],
	"asset":{
		"version":"2.0",
		"generator":"Autodesk Maya 2023"
	},
	"scenes":[{
		"nodes":[0]
	}],
	"bufferViews":[{
		"buffer":0,
		"byteOffset":0,
		"byteLength":960,
		"target":34963
	},
	{
		"buffer":0,
		"byteOffset":960,
		"byteLength":5376,
		"target":34962,
		"byteStride":32
	},
	{
		"buffer":1,
		"byteOffset":0,
		"byteLength":3840,
		"target":34963
	},
	{
		"buffer":1,
		"byteOffset":3840,
		"byteLength":25856,
		"target":34962,
		"byteStride":32
	},
	{
		"buffer":2,
		"byteOffset":0,
		"byteLength":16224,
		"target":34963
	},
	{
		"buffer":2,
		"byteOffset":16224,
		"byteLength":48896,
		"target":34962,
		"byteStride":32
	},
	{
		"buffer":3,
		"byteOffset":0,
		"byteLength":19200,
		"target":34963
	},
	{
		"buffer":3,
		"byteOffset":19200,
		"byteLength":56448,
		"target":34962,
		"byteStride":32
	},
	{
		"buffer":4,
		"byteOffset":0,
		"byteLength":480,
		"target":34963
	},
	{
		"buffer":4,
		"byteOffset":480,
		"byteLength":3712,
		"target":34962,
		"byteStride":32
	},
	{
		"buffer":5,
		"byteOffset":0,
		"byteLength":1704,
		"target":34963
	},
	{
		"buffer":5,
		"byteOffset":1704,
		"byteLength":9728,
		"target":34962,
		"byteStride":32
	},
	{
		"buffer":6,
		"byteOffset":0,
		"byteLength":2184,
		"target":34963
	},
	{
		"buffer":6,
		"byteOffset":2184,
		"byteLength":8000,
		"target":34962,
		"byteStride":32
	},
	{
		"buffer":7,
		"byteOffset":0,
		"byteLength":11712,
		"target":34963
	},
	{
		"buffer":7,
		"byteOffset":11712,
		"byteLength":46592,
		"target":34962,
		"byteStride":32
	},
	{
		"buffer":8,
		"byteOffset":0,
		"byteLength":1104,
		"target":34963
	},
	{
		"buffer":8,
		"byteOffset":1104,
		"byteLength":6656,
		"target":34962,
		"byteStride":32
	},
	{
		"buffer":9,
		"byteOffset":0,
		"byteLength":1824,
		"target":34963
	},
	{
		"buffer":9,
		"byteOffset":1824,
		"byteLength":10112,
		"target":34962,
		"byteStride":32
	},
	{
		"buffer":10,
		"byteOffset":0,
		"byteLength":120,
		"target":34963
	},
	{
		"buffer":10,
		"byteOffset":120,
		"byteLength":704,
		"target":34962,
		"byteStride":32
	},
	{
		"buffer":11,
		"byteOffset":0,
		"byteLength":300,
		"target":34963
	},
	{
		"buffer":11,
		"byteOffset":300,
		"byteLength":2560,
		"target":34962,
		"byteStride":32
	},
	{
		"buffer":12,
		"byteOffset":0,
		"byteLength":612,
		"target":34963
	},
	{
		"buffer":12,
		"byteOffset":612,
		"byteLength":4000,
		"target":34962,
		"byteStride":32
	}],
	"nodes":[{
		"name":"carGRP",
		"children":[1,
		2]
	},
	{
		"name":"carWheels",
		"children":[3,
		4,
		5,
		6]
	},
	{
		"name":"Car",
		"translation":[0.0,
		-0.00012392450298648328,
		0.0],
		"rotation":[0.0,
		0.0,
		0.0,
		-1.0],
		"scale":[1.0,
		1.0,
		1.0],
		"children":[7,
		8,
		9,
		10,
		11]
	},
	{
		"mesh":0,
		"name":"carWheels-DarkBrown.3"
	},
	{
		"mesh":1,
		"name":"carWheels-DarkBrown.2"
	},
	{
		"mesh":2,
		"name":"carWheels-DarkBrown.1"
	},
	{
		"mesh":3,
		"name":"carWheels-DarkBrown.1"
	},
	{
		"name":"caseBase_02",
		"children":[12,
		13,
		14]
	},
	{
		"mesh":4,
		"name":"insideStat"
	},
	{
		"mesh":5,
		"name":"chair"
	},
	{
		"name":"steeringWheel",
		"children":[15,
		16]
	},
	{
		"name":"window",
		"children":[17,
		18]
	},
	{
		"mesh":6,
		"name":"caseBase_02-DarkBrown.1"
	},
	{
		"mesh":7,
		"name":"caseBase_02-DarkBrown"
	},
	{
		"mesh":8,
		"name":"caseBase_02-Brown"
	},
	{
		"mesh":9,
		"name":"steeringWheel-DarkBrown.1"
	},
	{
		"mesh":10,
		"name":"steeringWheel-DarkBrown.1"
	},
	{
		"mesh":11,
		"name":"window-DarkBrown.2"
	},
	{
		"mesh":12,
		"name":"window-DarkBrown.1"
	}],
	"meshes":[{
		"name":"carWheels-DarkBrown.3",
		"primitives":[{
			"attributes":{
				"POSITION":1,
				"NORMAL":2,
				"TEXCOORD_0":3
			},
			"indices":0,
			"material":0
		}]
	},
	{
		"name":"carWheels-DarkBrown.2",
		"primitives":[{
			"attributes":{
				"POSITION":5,
				"NORMAL":6,
				"TEXCOORD_0":7
			},
			"indices":4,
			"material":1
		}]
	},
	{
		"name":"carWheels-DarkBrown.1",
		"primitives":[{
			"attributes":{
				"POSITION":9,
				"NORMAL":10,
				"TEXCOORD_0":11
			},
			"indices":8,
			"material":2
		}]
	},
	{
		"name":"carWheels-DarkBrown.1",
		"primitives":[{
			"attributes":{
				"POSITION":13,
				"NORMAL":14,
				"TEXCOORD_0":15
			},
			"indices":12,
			"material":3
		}]
	},
	{
		"name":"insideStat",
		"primitives":[{
			"attributes":{
				"POSITION":17,
				"NORMAL":18,
				"TEXCOORD_0":19
			},
			"indices":16,
			"material":2
		}]
	},
	{
		"name":"chair",
		"primitives":[{
			"attributes":{
				"POSITION":21,
				"NORMAL":22,
				"TEXCOORD_0":23
			},
			"indices":20,
			"material":3
		}]
	},
	{
		"name":"caseBase_02-DarkBrown.1",
		"primitives":[{
			"attributes":{
				"POSITION":25,
				"NORMAL":26,
				"TEXCOORD_0":27
			},
			"indices":24,
			"material":4
		}]
	},
	{
		"name":"caseBase_02-DarkBrown",
		"primitives":[{
			"attributes":{
				"POSITION":29,
				"NORMAL":30,
				"TEXCOORD_0":31
			},
			"indices":28,
			"material":5
		}]
	},
	{
		"name":"caseBase_02-Brown",
		"primitives":[{
			"attributes":{
				"POSITION":33,
				"NORMAL":34,
				"TEXCOORD_0":35
			},
			"indices":32,
			"material":6
		}]
	},
	{
		"name":"steeringWheel-DarkBrown.1",
		"primitives":[{
			"attributes":{
				"POSITION":37,
				"NORMAL":38,
				"TEXCOORD_0":39
			},
			"indices":36,
			"material":3
		}]
	},
	{
		"name":"steeringWheel-DarkBrown.1",
		"primitives":[{
			"attributes":{
				"POSITION":41,
				"NORMAL":42,
				"TEXCOORD_0":43
			},
			"indices":40,
			"material":2
		}]
	},
	{
		"name":"window-DarkBrown.2",
		"primitives":[{
			"attributes":{
				"POSITION":45,
				"NORMAL":46,
				"TEXCOORD_0":47
			},
			"indices":44,
			"material":7
		}]
	},
	{
		"name":"window-DarkBrown.1",
		"primitives":[{
			"attributes":{
				"POSITION":49,
				"NORMAL":50,
				"TEXCOORD_0":51
			},
			"indices":48,
			"material":2
		}]
	}],
	"accessors":[{
		"bufferView":0,
		"type":"SCALAR",
		"componentType":5123,
		"count":480,
		"byteOffset":0,
		"min":[0],
		"max":[167]
	},
	{
		"bufferView":1,
		"type":"VEC3",
		"componentType":5126,
		"count":168,
		"byteOffset":0,
		"min":[-0.013323131017386914,
		0.0025571961887180807,
		-0.005792926996946335],
		"max":[0.012429970316588879,
		0.007229534909129143,
		0.005792926996946335]
	},
	{
		"bufferView":1,
		"type":"VEC3",
		"componentType":5126,
		"count":168,
		"byteOffset":12,
		"min":[-0.9983292818069458,
		-0.9942756295204163,
		0.0],
		"max":[0.9983292818069458,
		0.9942756295204163,
		0.0]
	},
	{
		"bufferView":1,
		"type":"VEC2",
		"componentType":5126,
		"count":168,
		"byteOffset":24,
		"min":[0.3750000298023224,
		0.3261330723762512],
		"max":[0.6249997615814209,
		0.6738671064376831]
	},
	{
		"bufferView":2,
		"type":"SCALAR",
		"componentType":5123,
		"count":1920,
		"byteOffset":0,
		"min":[0],
		"max":[807]
	},
	{
		"bufferView":3,
		"type":"VEC3",
		"componentType":5126,
		"count":808,
		"byteOffset":0,
		"min":[-0.013323131017386914,
		0.0025571961887180807,
		-0.005829900503158569],
		"max":[0.012429970316588879,
		0.007229534909129143,
		0.005829900503158569]
	},
	{
		"bufferView":3,
		"type":"VEC3",
		"componentType":5126,
		"count":808,
		"byteOffset":12,
		"min":[-0.7042657732963562,
		-0.6953917145729065,
		-1.0],
		"max":[0.7042657732963562,
		0.6954233646392822,
		1.0]
	},
	{
		"bufferView":3,
		"type":"VEC2",
		"componentType":5126,
		"count":808,
		"byteOffset":24,
		"min":[0.3437499701976776,
		0.0],
		"max":[0.65625,
		1.0]
	},
	{
		"bufferView":4,
		"type":"SCALAR",
		"componentType":5123,
		"count":8112,
		"byteOffset":0,
		"min":[0],
		"max":[1527]
	},
	{
		"bufferView":5,
		"type":"VEC3",
		"componentType":5126,
		"count":1528,
		"byteOffset":0,
		"min":[-0.012930823490023613,
		0.0031426593195647,
		-0.005829900503158569],
		"max":[0.012037659995257855,
		0.006644074805080891,
		0.005829900503158569]
	},
	{
		"bufferView":5,
		"type":"VEC3",
		"componentType":5126,
		"count":1528,
		"byteOffset":12,
		"min":[-0.9918878674507141,
		-0.9898442625999451,
		-1.0],
		"max":[0.9919442534446716,
		0.9935215711593628,
		1.0]
	},
	{
		"bufferView":5,
		"type":"VEC2",
		"componentType":5126,
		"count":1528,
		"byteOffset":24,
		"min":[0.3437499701976776,
		0.0],
		"max":[0.65625,
		1.0]
	},
	{
		"bufferView":6,
		"type":"SCALAR",
		"componentType":5123,
		"count":9600,
		"byteOffset":0,
		"min":[0],
		"max":[1763]
	},
	{
		"bufferView":7,
		"type":"VEC3",
		"componentType":5126,
		"count":1764,
		"byteOffset":0,
		"min":[-0.014874901622533799,
		0.00042150935041718185,
		-0.006153386551886797],
		"max":[0.013981739990413189,
		0.009365218691527844,
		0.006153386551886797]
	},
	{
		"bufferView":7,
		"type":"VEC3",
		"componentType":5126,
		"count":1764,
		"byteOffset":12,
		"min":[-0.996571958065033,
		-0.9865095615386963,
		-0.9999856948852539],
		"max":[0.996571958065033,
		0.9865095615386963,
		0.9999856948852539]
	},
	{
		"bufferView":7,
		"type":"VEC2",
		"componentType":5126,
		"count":1764,
		"byteOffset":24,
		"min":[0.0,
		0.0],
		"max":[1.0000001192092896,
		1.0]
	},
	{
		"bufferView":8,
		"type":"SCALAR",
		"componentType":5123,
		"count":240,
		"byteOffset":0,
		"min":[0],
		"max":[115]
	},
	{
		"bufferView":9,
		"type":"VEC3",
		"componentType":5126,
		"count":116,
		"byteOffset":0,
		"min":[0.00662315683439374,
		0.0061552319675683979,
		-0.0049002887681126598],
		"max":[0.010228333063423634,
		0.017443807795643808,
		0.0049002887681126598]
	},
	{
		"bufferView":9,
		"type":"VEC3",
		"componentType":5126,
		"count":116,
		"byteOffset":12,
		"min":[-1.0,
		-0.358940452337265,
		-0.4877639412879944],
		"max":[-0.4864565134048462,
		0.8735966682434082,
		0.49323639273643496]
	},
	{
		"bufferView":9,
		"type":"VEC2",
		"componentType":5126,
		"count":116,
		"byteOffset":24,
		"min":[0.0,
		-0.43960344791412356],
		"max":[1.0000001192092896,
		1.0]
	},
	{
		"bufferView":10,
		"type":"SCALAR",
		"componentType":5123,
		"count":852,
		"byteOffset":0,
		"min":[0],
		"max":[303]
	},
	{
		"bufferView":11,
		"type":"VEC3",
		"componentType":5126,
		"count":304,
		"byteOffset":0,
		"min":[-0.005677434615790844,
		0.0037604840472340585,
		-0.005487706977874041],
		"max":[0.005176127888262272,
		0.02197510376572609,
		0.005487706977874041]
	},
	{
		"bufferView":11,
		"type":"VEC3",
		"componentType":5126,
		"count":304,
		"byteOffset":12,
		"min":[-0.9992771744728088,
		-0.6490142345428467,
		-0.9568285942077637],
		"max":[0.9999972581863403,
		0.9999788999557495,
		0.9534896612167358]
	},
	{
		"bufferView":11,
		"type":"VEC2",
		"componentType":5126,
		"count":304,
		"byteOffset":24,
		"min":[-0.15182162821292878,
		-0.02970433235168457],
		"max":[1.1518210172653199,
		1.0]
	},
	{
		"bufferView":12,
		"type":"SCALAR",
		"componentType":5123,
		"count":1092,
		"byteOffset":0,
		"min":[0],
		"max":[249]
	},
	{
		"bufferView":13,
		"type":"VEC3",
		"componentType":5126,
		"count":250,
		"byteOffset":0,
		"min":[0.02359815686941147,
		0.003215333679690957,
		-0.005978531204164028],
		"max":[0.0267755389213562,
		0.01848001964390278,
		0.005978499539196491]
	},
	{
		"bufferView":13,
		"type":"VEC3",
		"componentType":5126,
		"count":250,
		"byteOffset":12,
		"min":[-0.9971227645874023,
		-0.9957212805747986,
		-0.9999927282333374],
		"max":[0.9968083500862122,
		0.9956804513931274,
		0.9999927282333374]
	},
	{
		"bufferView":13,
		"type":"VEC2",
		"componentType":5126,
		"count":250,
		"byteOffset":24,
		"min":[0.0019013353157788516,
		0.2880125045776367],
		"max":[0.784390926361084,
		0.9980078935623169]
	},
	{
		"bufferView":14,
		"type":"SCALAR",
		"componentType":5123,
		"count":5856,
		"byteOffset":0,
		"min":[0],
		"max":[1455]
	},
	{
		"bufferView":15,
		"type":"VEC3",
		"componentType":5126,
		"count":1456,
		"byteOffset":0,
		"min":[-0.018184898421168329,
		0.003477557562291622,
		-0.005923768505454063],
		"max":[0.026540685445070268,
		0.022741669788956643,
		0.005923741031438112]
	},
	{
		"bufferView":15,
		"type":"VEC3",
		"componentType":5126,
		"count":1456,
		"byteOffset":12,
		"min":[-1.0,
		-1.0,
		-0.9998974204063416],
		"max":[0.9998713135719299,
		1.0,
		0.999958336353302]
	},
	{
		"bufferView":15,
		"type":"VEC2",
		"componentType":5126,
		"count":1456,
		"byteOffset":24,
		"min":[0.0019013353157788516,
		0.00199204683303833],
		"max":[0.9525688886642456,
		0.9980078935623169]
	},
	{
		"bufferView":16,
		"type":"SCALAR",
		"componentType":5123,
		"count":552,
		"byteOffset":0,
		"min":[0],
		"max":[207]
	},
	{
		"bufferView":17,
		"type":"VEC3",
		"componentType":5126,
		"count":208,
		"byteOffset":0,
		"min":[-0.016622725874185563,
		0.003494967706501484,
		-0.005892422050237656],
		"max":[0.015680653974413873,
		0.022741669788956643,
		0.005892388988286257]
	},
	{
		"bufferView":17,
		"type":"VEC3",
		"componentType":5126,
		"count":208,
		"byteOffset":12,
		"min":[-0.26378366351127627,
		-1.0,
		-0.9999994039535523],
		"max":[0.30538368225097659,
		0.998803436756134,
		0.9999997615814209]
	},
	{
		"bufferView":17,
		"type":"VEC2",
		"componentType":5126,
		"count":208,
		"byteOffset":24,
		"min":[0.0019013353157788516,
		0.13576865196228028],
		"max":[0.7808595895767212,
		0.9971039295196533]
	},
	{
		"bufferView":18,
		"type":"SCALAR",
		"componentType":5123,
		"count":912,
		"byteOffset":0,
		"min":[0],
		"max":[315]
	},
	{
		"bufferView":19,
		"type":"VEC3",
		"componentType":5126,
		"count":316,
		"byteOffset":0,
		"min":[0.002520483685657382,
		0.013568203896284104,
		-0.0021029976196587087],
		"max":[0.005030110478401184,
		0.017376510426402093,
		0.0021029976196587087]
	},
	{
		"bufferView":19,
		"type":"VEC3",
		"componentType":5126,
		"count":316,
		"byteOffset":12,
		"min":[-0.9950541257858276,
		-0.9934948086738586,
		-1.0],
		"max":[0.9900572299957275,
		0.9903388619422913,
		1.0]
	},
	{
		"bufferView":19,
		"type":"VEC2",
		"componentType":5126,
		"count":316,
		"byteOffset":24,
		"min":[0.0,
		0.0],
		"max":[1.0,
		1.0]
	},
	{
		"bufferView":20,
		"type":"SCALAR",
		"componentType":5123,
		"count":60,
		"byteOffset":0,
		"min":[0],
		"max":[21]
	},
	{
		"bufferView":21,
		"type":"VEC3",
		"componentType":5126,
		"count":22,
		"byteOffset":0,
		"min":[0.003370635909959674,
		0.011909189634025097,
		-0.0005840101512148976],
		"max":[0.009237732738256455,
		0.0160056184977293,
		0.0005840100930072367]
	},
	{
		"bufferView":21,
		"type":"VEC3",
		"componentType":5126,
		"count":22,
		"byteOffset":12,
		"min":[-0.49708032608032229,
		-0.8609996438026428,
		-0.9788054823875427],
		"max":[0.49708032608032229,
		0.8609996438026428,
		0.9788054823875427]
	},
	{
		"bufferView":21,
		"type":"VEC2",
		"componentType":5126,
		"count":22,
		"byteOffset":24,
		"min":[0.375,
		0.3125],
		"max":[0.6249998807907105,
		0.6875]
	},
	{
		"bufferView":22,
		"type":"SCALAR",
		"componentType":5123,
		"count":150,
		"byteOffset":0,
		"min":[0],
		"max":[79]
	},
	{
		"bufferView":23,
		"type":"VEC3",
		"componentType":5126,
		"count":80,
		"byteOffset":0,
		"min":[0.00399921415373683,
		0.0152346882969141,
		-0.005233381409198046],
		"max":[0.00576903996989131,
		0.022531559690833093,
		0.005233509466052055]
	},
	{
		"bufferView":23,
		"type":"VEC3",
		"componentType":5126,
		"count":80,
		"byteOffset":12,
		"min":[-0.9969554543495178,
		-0.26800212264060976,
		-0.6524853706359863],
		"max":[0.9969586730003357,
		0.7562049627304077,
		0.9283741116523743]
	},
	{
		"bufferView":23,
		"type":"VEC2",
		"componentType":5126,
		"count":80,
		"byteOffset":24,
		"min":[-5.4016709327697757e-8,
		0.0],
		"max":[1.0,
		1.0]
	},
	{
		"bufferView":24,
		"type":"SCALAR",
		"componentType":5123,
		"count":306,
		"byteOffset":0,
		"min":[0],
		"max":[124]
	},
	{
		"bufferView":25,
		"type":"VEC3",
		"componentType":5126,
		"count":125,
		"byteOffset":0,
		"min":[0.00399921415373683,
		0.0152346882969141,
		-0.005341916810721159],
		"max":[0.005748616997152567,
		0.022544749081134797,
		0.0053419675678014759]
	},
	{
		"bufferView":25,
		"type":"VEC3",
		"componentType":5126,
		"count":125,
		"byteOffset":12,
		"min":[-0.6805483102798462,
		-0.13268892467021943,
		-0.8677005767822266],
		"max":[0.9996554255485535,
		0.9956938028335571,
		0.8821719288825989]
	},
	{
		"bufferView":25,
		"type":"VEC2",
		"componentType":5126,
		"count":125,
		"byteOffset":24,
		"min":[-5.4016709327697757e-8,
		0.0],
		"max":[1.0,
		1.0]
	}],
	"materials":[{
		"pbrMetallicRoughness":{
			"baseColorFactor":[0.6,
			0.5854,
			0.162,
			1.0],
			"metallicFactor":0.0,
			"roughnessFactor":0.5
		},
		"emissiveFactor":[0.0,
		0.0,
		0.0],
		"alphaMode":"OPAQUE",
		"name":"DarkBrown.3",
		"doubleSided":false
	},
	{
		"pbrMetallicRoughness":{
			"baseColorFactor":[1.0,
			1.0,
			1.0,
			1.0],
			"metallicFactor":0.0,
			"roughnessFactor":0.5
		},
		"emissiveFactor":[0.0,
		0.0,
		0.0],
		"alphaMode":"OPAQUE",
		"name":"DarkBrown.2",
		"doubleSided":false
	},
	{
		"pbrMetallicRoughness":{
			"baseColorFactor":[0.54,
			0.5332499999999999,
			0.5238,
			1.0],
			"metallicFactor":0.0,
			"roughnessFactor":0.5
		},
		"emissiveFactor":[0.0,
		0.0,
		0.0],
		"alphaMode":"OPAQUE",
		"name":"DarkBrown.1",
		"doubleSided":false
	},
	{
		"pbrMetallicRoughness":{
			"baseColorFactor":[0.17,
			0.17,
			0.17,
			1.0],
			"metallicFactor":0.0,
			"roughnessFactor":0.5
		},
		"emissiveFactor":[0.0,
		0.0,
		0.0],
		"alphaMode":"OPAQUE",
		"name":"DarkBrown.1",
		"doubleSided":false
	},
	{
		"pbrMetallicRoughness":{
			"baseColorFactor":[0.96,
			0.88224,
			0.44159999999999996,
			1.0],
			"metallicFactor":0.0,
			"roughnessFactor":0.5
		},
		"emissiveFactor":[0.0,
		0.0,
		0.0],
		"alphaMode":"OPAQUE",
		"name":"DarkBrown.1",
		"doubleSided":false
	},
	{
		"pbrMetallicRoughness":{
			"baseColorFactor":[1.0,
			0.12,
			0.12,
			1.0],
			"metallicFactor":0.0,
			"roughnessFactor":0.5
		},
		"emissiveFactor":[0.0,
		0.0,
		0.0],
		"alphaMode":"OPAQUE",
		"name":"DarkBrown",
		"doubleSided":false
	},
	{
		"pbrMetallicRoughness":{
			"baseColorFactor":[1.0,
			0.55,
			0.55,
			1.0],
			"metallicFactor":0.0,
			"roughnessFactor":0.5
		},
		"emissiveFactor":[0.0,
		0.0,
		0.0],
		"alphaMode":"OPAQUE",
		"name":"Brown",
		"doubleSided":false
	},
	{
		"pbrMetallicRoughness":{
			"baseColorFactor":[0.6642685851318946,
			0.6642685851318946,
			0.6642685851318946,
			0.17985611510791367],
			"metallicFactor":0.0,
			"roughnessFactor":0.5
		},
		"emissiveFactor":[0.0,
		0.0,
		0.0],
		"alphaMode":"BLEND",
		"name":"DarkBrown.2",
		"doubleSided":false
	}]
}